<?xml version="1.0" encoding="utf-8"?>
<!-- Generator: Adobe Illustrator 26.3.1, SVG Export Plug-In . SVG Version: 6.00 Build 0)  -->
<svg version="1.1" id="Camada_1" xmlns="http://www.w3.org/2000/svg" xmlns:xlink="http://www.w3.org/1999/xlink" x="0px" y="0px"
	 viewBox="0 0 33.16 40.01" style="enable-background:new 0 0 33.16 40.01;" xml:space="preserve">
<style type="text/css">
	.st0{fill:#FFFFFF;}
</style>
<g>
	<path class="st0" d="M27.79,21.26c-0.05-5.07,4.13-7.5,4.32-7.62c-2.35-3.44-6.01-3.91-7.32-3.96c-3.11-0.32-6.08,1.83-7.66,1.83
		c-1.58,0-4.02-1.79-6.6-1.74c-3.4,0.05-6.53,1.98-8.28,5.02c-3.53,6.12-0.9,15.19,2.54,20.16c1.68,2.43,3.68,5.16,6.31,5.06
		c2.53-0.1,3.49-1.64,6.55-1.64s3.92,1.64,6.6,1.59c2.73-0.05,4.45-2.47,6.12-4.91c1.93-2.82,2.72-5.55,2.77-5.69
		C33.1,29.32,27.85,27.31,27.79,21.26z"/>
	<path class="st0" d="M22.76,6.39C24.15,4.7,25.1,2.35,24.84,0c-2.01,0.08-4.45,1.34-5.89,3.03c-1.29,1.5-2.43,3.89-2.12,6.19
		C19.07,9.4,21.36,8.08,22.76,6.39z"/>
</g>
</svg>
