<?xml version="1.0" encoding="utf-8"?>
<!-- Generator: Adobe Illustrator 26.3.1, SVG Export Plug-In . SVG Version: 6.00 Build 0)  -->
<svg version="1.1" id="Camada_1" xmlns="http://www.w3.org/2000/svg" xmlns:xlink="http://www.w3.org/1999/xlink" x="0px" y="0px"
	 viewBox="0 0 512 512" style="enable-background:new 0 0 512 512;" xml:space="preserve">
<style type="text/css">
	.st0{fill:#FFFFFF;stroke:#000000;stroke-miterlimit:10;}
</style>
<g transform="translate(0.000000,512.000000) scale(0.100000,-0.100000)">
	<path class="st0" d="M5098.8,3720c-17,44-44,77-137,171c-143,144-177,163-286,164c-58,0-91-5-120-19c-27-13-355-333-1018-995
		l-977-976l-978,977c-760,760-987,982-1022,997c-30,14-67,21-110,21c-103,0-153-29-291-168c-97-98-119-127-137-175
		c-28-73-28-131-1-204c20-56,71-108,1193-1230c1296-1297,1214-1223,1346-1223s50-74,1346,1223c1123,1123,1173,1174,1193,1230
		C5125.8,3585,5125.8,3649,5098.8,3720z"/>
</g>
</svg>
