<?xml version="1.0" encoding="utf-8"?>
<!-- Generator: Adobe Illustrator 26.3.1, SVG Export Plug-In . SVG Version: 6.00 Build 0)  -->
<svg version="1.1" id="Camada_1" xmlns="http://www.w3.org/2000/svg" xmlns:xlink="http://www.w3.org/1999/xlink" x="0px" y="0px"
	 viewBox="0 0 34.47 40" style="enable-background:new 0 0 34.47 40;" xml:space="preserve">
<style type="text/css">
	.st0{fill-rule:evenodd;clip-rule:evenodd;fill:#302E2F;}
	.st1{fill-rule:evenodd;clip-rule:evenodd;fill:#FFFFFF;}
	.st2{fill:#FFFFFF;}
</style>
<g>
	<path class="st0" d="M31.34,0H3.13C0.84,0,0,0.84,0,3.13v27.6c0,0.26,0.01,0.5,0.03,0.72c0.05,0.5,0.06,0.98,0.53,1.53
		c0.05,0.05,0.52,0.41,0.52,0.41c0.26,0.13,0.43,0.22,0.72,0.33l13.89,5.82c0.72,0.33,1.02,0.46,1.55,0.45v0c0,0,0,0,0,0
		c0,0,0,0,0,0v0c0.52,0.01,0.83-0.12,1.55-0.45l13.89-5.82c0.29-0.12,0.46-0.21,0.72-0.33c0,0,0.47-0.35,0.52-0.41
		c0.46-0.55,0.47-1.03,0.53-1.53c0.02-0.22,0.03-0.46,0.03-0.72V3.13C34.47,0.84,33.63,0,31.34,0z"/>
	<path class="st1" d="M9.41,28.47l0.05-0.04l0.04-0.04v-0.06v-0.06V28.2v-0.06v-0.06v-0.06v-0.06v-0.06v-0.06v-0.06v-0.06v-0.06
		v-0.06v-0.06v-0.06v-0.06v-0.06v-0.06V27.2v-0.06v-0.06v-0.06v-0.06v-0.06v-0.06v-0.06V26.7v-0.06v-0.06v-0.06v-0.06v-0.06v-0.06
		H9.44H9.37H9.31H9.25H9.18H9.12H9.06H8.99H8.93H8.87H8.8H8.74H8.68H8.61H8.55H8.49H8.42H8.36H8.3H8.23H8.17H8.11H8.04H7.98H7.92
		H7.85H7.79H7.73H7.66H7.6H7.54H7.47H7.41v0.06v0.06v0.06v0.06v0.06v0.06v0.06v0.06v0.06v0.06v0.06v0.06v0.06v0.06v0.06h0.06h0.06
		h0.06h0.06h0.06h0.06h0.06H7.9h0.06h0.06h0.06h0.06h0.06h0.06h0.06v0.06v0.06v0.06v0.06v0.07v0.06v0.06v0.06v0.06l-0.05,0.03
		l-0.04,0.03l-0.06,0.03l-0.05,0.03l-0.06,0.03l-0.06,0.01L7.96,28l-0.06,0.01l-0.06,0.01l-0.06,0.01L7.7,28.04l-0.07,0.01H7.55
		H7.48l-0.07-0.01l-0.06-0.01l-0.06-0.01l-0.06-0.01l-0.06-0.02l-0.06-0.02l-0.06-0.03l-0.06-0.03l-0.06-0.03l-0.05-0.03l-0.05-0.03
		l-0.05-0.04l-0.05-0.04l-0.04-0.04l-0.04-0.04l-0.04-0.04l-0.04-0.04l-0.04-0.05l-0.03-0.05l-0.03-0.05l-0.03-0.06L6.4,27.31
		l-0.03-0.06L6.35,27.2l-0.02-0.06l-0.01-0.06l-0.01-0.06l-0.01-0.06L6.29,26.9l-0.01-0.06l-0.01-0.06v-0.06v-0.01v-0.07l0.01-0.06
		l0.01-0.06l0.01-0.07l0.01-0.06l0.01-0.06l0.02-0.06l0.03-0.06l0.02-0.06l0.03-0.06l0.03-0.05l0.03-0.06l0.03-0.05l0.03-0.04
		l0.04-0.05l0.04-0.04l0.04-0.04l0.04-0.04l0.04-0.04l0.04-0.04l0.05-0.03l0.05-0.03l0.05-0.03L7,25.5l0.06-0.03l0.06-0.02
		l0.06-0.02l0.06-0.01l0.06-0.01l0.06-0.01l0.06-0.01h0.06h0.07l0.07,0.01l0.07,0.01l0.06,0.01l0.06,0.01l0.06,0.01l0.06,0.01
		l0.06,0.02l0.06,0.02l0.05,0.02l0.05,0.03l0.05,0.03l0.06,0.03l0.05,0.03l0.05,0.03l0.05,0.03l0.05,0.04l0.05,0.03l0.05,0.04
		l0.05,0.04l0.04-0.05l0.04-0.04l0.04-0.05l0.04-0.05l0.04-0.05l0.04-0.04L8.9,25.5l0.04-0.05l0.04-0.05l0.04-0.04l0.04-0.05
		l0.04-0.05l0.04-0.04l0.04-0.05l0.04-0.05l0.04-0.05l0.04-0.04l0.04-0.05l-0.05-0.04l-0.05-0.04l-0.05-0.04L9.14,24.8l-0.05-0.03
		l-0.05-0.04L8.98,24.7l-0.05-0.03l-0.06-0.03l-0.05-0.03l-0.06-0.03l-0.06-0.03l-0.06-0.03L8.6,24.5l-0.06-0.03l-0.06-0.02
		l-0.05-0.02l-0.06-0.01L8.32,24.4l-0.06-0.01L8.2,24.38l-0.06-0.01l-0.06-0.01l-0.06-0.01l-0.06-0.01l-0.07-0.01l-0.06-0.01H7.76
		L7.7,24.31L7.63,24.3H7.56H7.49H7.42H7.35l-0.06,0.01l-0.06,0.01l-0.06,0.01L7.1,24.33l-0.06,0.01l-0.06,0.01l-0.06,0.01
		l-0.06,0.02l-0.06,0.01l-0.06,0.02l-0.06,0.01l-0.06,0.03l-0.06,0.02L6.5,24.49l-0.06,0.03l-0.06,0.03l-0.06,0.03L6.27,24.6
		l-0.06,0.03l-0.06,0.03L6.1,24.7l-0.05,0.03L6,24.77L5.95,24.8L5.9,24.84l-0.04,0.04l-0.05,0.04l-0.04,0.04L5.72,25l-0.04,0.04
		l-0.04,0.04l-0.04,0.04l-0.04,0.04l-0.04,0.05l-0.04,0.05l-0.04,0.05l-0.03,0.05l-0.03,0.05l-0.03,0.05l-0.03,0.05l-0.03,0.06
		l-0.03,0.06l-0.03,0.06L5.2,25.77l-0.03,0.06l-0.03,0.06l-0.02,0.06l-0.02,0.06L5.1,26.06l-0.01,0.06l-0.02,0.06l-0.01,0.06
		l-0.01,0.06l-0.01,0.06l-0.01,0.07l-0.01,0.06v0.06l-0.01,0.07v0.06v0.01v0.06v0.07l0.01,0.06l0.01,0.06l0.01,0.06l0.01,0.06
		l0.01,0.06l0.01,0.06l0.01,0.06l0.02,0.06l0.01,0.06l0.02,0.06l0.01,0.06l0.03,0.06l0.02,0.05l0.03,0.06l0.03,0.06l0.03,0.06
		l0.03,0.06l0.03,0.05l0.03,0.06l0.03,0.05l0.03,0.05l0.04,0.05l0.03,0.05l0.04,0.04l0.04,0.05l0.04,0.04l0.04,0.04l0.04,0.04
		l0.04,0.04l0.04,0.04l0.04,0.04l0.04,0.04l0.05,0.04l0.05,0.04l0.05,0.04l0.05,0.03l0.05,0.03l0.06,0.03l0.05,0.03l0.06,0.03
		l0.06,0.03l0.06,0.03l0.06,0.03l0.06,0.03l0.06,0.02l0.06,0.03L6.68,29l0.06,0.01l0.06,0.02l0.06,0.01l0.06,0.01l0.06,0.01
		l0.06,0.01l0.06,0.01l0.06,0.01l0.06,0.01l0.07,0.01l0.06,0.01h0.06H7.5h0.07h0.07l0.07-0.01l0.06-0.01l0.07-0.01l0.06-0.01
		l0.07-0.01l0.06-0.01l0.06-0.01l0.06-0.01l0.06-0.01l0.06-0.01l0.06-0.02l0.06-0.02l0.06-0.02l0.06-0.02l0.06-0.02l0.06-0.03
		l0.06-0.03l0.06-0.03l0.06-0.03l0.06-0.03l0.06-0.03l0.06-0.03l0.06-0.03l0.06-0.03l0.05-0.03l0.05-0.03l0.05-0.04l0.05-0.03
		l0.05-0.04L9.41,28.47z M29.44,27.82l0.01-0.06l0.01-0.07v-0.07V27.6v-0.07l-0.01-0.07l-0.01-0.06l-0.01-0.06l-0.01-0.06
		l-0.01-0.06l-0.02-0.06l-0.02-0.06l-0.03-0.05l-0.03-0.06l-0.03-0.05l-0.04-0.06l-0.04-0.05l-0.04-0.04l-0.04-0.05l-0.05-0.04
		l-0.05-0.04l-0.05-0.03l-0.05-0.04l-0.05-0.03l-0.06-0.03l-0.06-0.03l-0.06-0.03l-0.06-0.03l-0.06-0.03l-0.07-0.02l-0.06-0.02
		l-0.06-0.02l-0.06-0.02l-0.06-0.02l-0.06-0.02l-0.06-0.02l-0.06-0.01l-0.07-0.02l-0.06-0.02l-0.07-0.01l-0.07-0.02l-0.07-0.02
		l-0.07-0.02l-0.06-0.01l-0.06-0.02l-0.06-0.01l-0.05-0.02l-0.05-0.01l-0.08-0.03L27.23,26l-0.06-0.03l-0.05-0.03l-0.06-0.03
		l-0.04-0.04l-0.03-0.04l-0.03-0.07l-0.01-0.08v-0.01l0.01-0.06l0.02-0.06l0.04-0.06l0.06-0.05l0.04-0.03l0.05-0.03l0.06-0.01
		l0.06-0.01l0.07-0.01h0.08h0.06l0.06,0.01l0.06,0.01l0.06,0.01l0.06,0.01l0.06,0.01l0.06,0.01l0.06,0.02L28,25.44l0.07,0.02
		l0.05,0.03l0.06,0.02l0.05,0.03l0.06,0.03l0.05,0.03l0.06,0.03l0.05,0.03l0.06,0.03l0.05,0.04l0.05,0.03l0.06,0.03l0.05,0.04
		l0.04-0.05l0.03-0.05l0.04-0.05l0.04-0.05l0.04-0.06l0.03-0.05l0.04-0.05L29,25.39l0.03-0.05l0.04-0.05l0.04-0.05l0.03-0.05
		l0.04-0.06l0.04-0.05l0.04-0.05l0.03-0.05l0.04-0.05l-0.05-0.04l-0.05-0.04l-0.05-0.04l-0.05-0.03l-0.06-0.04l-0.05-0.03
		l-0.06-0.03l-0.06-0.03l-0.05-0.03l-0.06-0.03l-0.06-0.03l-0.06-0.03l-0.06-0.03l-0.06-0.02l-0.06-0.03l-0.06-0.01l-0.06-0.02
		l-0.06-0.02l-0.06-0.01l-0.06-0.01l-0.06-0.01l-0.06-0.01l-0.06-0.01l-0.07-0.01l-0.06-0.01l-0.07-0.01h-0.06l-0.07-0.01
		l-0.07-0.01h-0.07h-0.07H27.4h-0.06l-0.06,0.01l-0.06,0.01l-0.06,0.01l-0.06,0.01l-0.06,0.01l-0.06,0.01l-0.06,0.01l-0.06,0.01
		L26.8,24.4l-0.06,0.02l-0.06,0.03l-0.06,0.02l-0.06,0.03l-0.06,0.03l-0.06,0.03l-0.06,0.03l-0.05,0.03l-0.05,0.04l-0.05,0.04
		l-0.04,0.03l-0.05,0.04l-0.04,0.05l-0.04,0.04L26,24.91l-0.04,0.05l-0.04,0.05l-0.03,0.06l-0.03,0.06l-0.03,0.06l-0.03,0.06
		l-0.03,0.06l-0.01,0.06l-0.02,0.06l-0.01,0.06l-0.01,0.06l-0.01,0.06l-0.01,0.06l-0.01,0.06v0.06v0.01v0.07l0.01,0.07l0.01,0.06
		l0.01,0.06l0.01,0.06l0.01,0.06l0.02,0.05l0.02,0.06l0.02,0.05l0.03,0.04l0.03,0.06l0.03,0.05l0.03,0.04l0.04,0.04l0.04,0.04
		l0.04,0.04l0.04,0.04l0.04,0.04l0.05,0.03l0.05,0.04l0.06,0.03l0.05,0.03l0.06,0.03l0.06,0.03l0.06,0.03L26.6,27l0.06,0.03
		l0.07,0.03l0.06,0.02l0.06,0.02l0.06,0.02l0.06,0.01l0.06,0.02l0.06,0.02l0.06,0.01l0.06,0.02l0.06,0.01l0.07,0.02l0.06,0.01
		l0.07,0.02l0.06,0.01l0.06,0.02l0.06,0.01l0.06,0.02l0.05,0.01l0.04,0.01l0.08,0.03l0.06,0.03l0.06,0.03l0.05,0.03l0.05,0.04
		l0.04,0.04l0.03,0.04l0.03,0.06l0.01,0.08v0.01l-0.01,0.06l-0.02,0.06l-0.03,0.05l-0.04,0.04l-0.05,0.04l-0.04,0.03l-0.05,0.02
		l-0.06,0.01l-0.06,0.01l-0.06,0.01l-0.07,0.01h-0.08H27.6l-0.07-0.01h-0.06l-0.06-0.01l-0.07-0.01l-0.06-0.01l-0.06-0.01
		l-0.06-0.01l-0.06-0.02l-0.06-0.02l-0.06-0.02l-0.06-0.03l-0.06-0.02l-0.06-0.03l-0.06-0.03l-0.06-0.03l-0.05-0.03l-0.06-0.03
		l-0.05-0.03l-0.06-0.04l-0.05-0.03l-0.06-0.04l-0.05-0.04l-0.06-0.04l-0.05-0.04l-0.04,0.05l-0.04,0.04l-0.04,0.05l-0.04,0.05
		l-0.04,0.04l-0.04,0.05l-0.04,0.05l-0.04,0.04l-0.04,0.05L25.79,28l-0.04,0.05l-0.04,0.05l-0.04,0.04l-0.04,0.05l-0.04,0.05
		l-0.04,0.04l-0.04,0.05l0.05,0.04l0.04,0.04l0.05,0.04l0.05,0.04l0.05,0.04l0.05,0.04l0.05,0.03l0.05,0.03l0.06,0.03l0.05,0.03
		l0.06,0.03l0.06,0.03l0.06,0.03l0.06,0.03l0.06,0.03l0.06,0.03l0.06,0.02l0.06,0.02l0.06,0.03l0.06,0.02l0.06,0.02l0.06,0.01
		l0.06,0.02l0.06,0.01l0.06,0.01l0.06,0.01l0.06,0.01l0.06,0.01l0.06,0.01l0.07,0.01l0.06,0.01l0.06,0.01h0.07l0.06,0.01h0.06h0.07
		h0.07h0.06l0.06-0.01l0.07-0.01l0.06-0.01l0.06-0.01l0.06-0.01l0.06-0.01l0.06-0.01l0.06-0.01l0.06-0.01L28.37,29l0.06-0.02
		l0.06-0.02l0.06-0.03l0.06-0.03l0.06-0.03l0.06-0.03l0.06-0.03l0.05-0.04l0.05-0.03l0.05-0.04l0.04-0.04l0.05-0.04l0.04-0.04
		l0.04-0.04l0.04-0.04l0.03-0.05l0.04-0.05l0.03-0.05l0.03-0.05l0.03-0.06l0.03-0.05l0.03-0.06l0.02-0.06l0.01-0.06l0.02-0.06
		l0.01-0.06L29.44,27.82z M24.94,29.02h0.06h0.06v-0.06V28.9v-0.06v-0.06v-0.06v-0.06v-0.06v-0.06v-0.06v-0.06v-0.06v-0.06v-0.06
		v-0.06V28.1v-0.06v-0.06h-0.06h-0.06h-0.06h-0.06h-0.06h-0.06h-0.06h-0.06H24.5h-0.07h-0.06H24.3h-0.06h-0.06h-0.06h-0.06h-0.06
		h-0.06h-0.06H23.8h-0.06h-0.06H23.6h-0.06h-0.06h-0.06h-0.06h-0.06h-0.06h-0.07h-0.06h-0.06h-0.06H22.9h-0.06h-0.06h-0.06h-0.06
		h-0.06v-0.06v-0.07v-0.06v-0.06v-0.07v-0.06v-0.06v-0.07v-0.06v-0.06v-0.07v-0.06h0.06h0.06h0.06h0.06h0.06h0.06h0.06h0.06h0.06
		h0.06h0.06h0.06h0.06h0.06h0.06h0.06h0.06h0.06h0.06h0.06h0.06h0.06h0.06h0.06h0.06h0.06h0.06h0.06h0.06h0.06h0.06h0.06h0.06h0.06
		h0.06v-0.06v-0.06V27v-0.06v-0.06v-0.06v-0.06v-0.06v-0.06v-0.06V26.5v-0.06v-0.06v-0.06v-0.06V26.2h-0.06h-0.06H24.6h-0.06h-0.06
		h-0.06h-0.06h-0.06h-0.06h-0.06H24.1h-0.06h-0.06h-0.06h-0.06h-0.06h-0.06h-0.06h-0.06h-0.06h-0.06H23.4h-0.06h-0.06h-0.06h-0.06
		h-0.06h-0.06h-0.06H22.9h-0.06h-0.06h-0.06h-0.06h-0.06v-0.06v-0.06v-0.06v-0.06v-0.06v-0.06v-0.06V25.7v-0.06v-0.06V25.5v-0.06
		h0.06h0.06h0.06h0.06h0.06h0.06h0.06h0.06h0.06h0.06h0.06h0.06h0.06h0.06h0.06h0.06h0.06h0.06h0.06h0.06h0.06h0.06h0.06h0.06h0.06
		h0.06h0.06h0.06h0.06h0.06h0.06h0.06h0.06h0.06h0.06h0.06h0.06h0.06h0.06v-0.06v-0.06v-0.06v-0.06v-0.06v-0.06v-0.06v-0.06v-0.06
		v-0.06v-0.06V24.7v-0.06v-0.06v-0.06v-0.06v-0.06h-0.06h-0.06h-0.06h-0.06h-0.06h-0.06h-0.06h-0.06h-0.06H24.4h-0.06h-0.06h-0.06
		h-0.06h-0.06h-0.06h-0.06H23.9h-0.06h-0.06h-0.06h-0.06h-0.06h-0.06h-0.06H23.4h-0.06h-0.06h-0.06h-0.06h-0.06h-0.06h-0.06h-0.06
		h-0.06h-0.06H22.7h-0.06h-0.06h-0.06h-0.06h-0.06h-0.06h-0.06H22.2h-0.06h-0.06h-0.06h-0.06h-0.06h-0.06h-0.06h-0.06h-0.06h-0.06
		H21.5h-0.06h-0.06v0.06v0.06v0.06v0.06v0.06v0.06v0.06v0.06v0.06v0.06v0.06v0.06v0.06v0.06v0.06v0.06v0.06v0.06v0.06v0.06v0.06
		v0.06v0.06v0.06v0.06v0.06v0.06v0.06v0.06v0.06v0.06v0.06v0.06v0.06v0.06v0.06v0.06v0.06v0.06v0.06v0.06v0.06v0.06v0.06v0.06v0.06
		v0.06v0.06v0.06v0.06v0.06v0.06v0.06v0.06v0.06v0.06v0.06v0.06v0.06v0.06v0.06v0.06v0.06v0.06v0.06v0.06v0.06v0.06v0.06v0.06v0.06
		v0.06v0.06h0.06h0.06h0.06h0.06h0.06h0.06h0.06h0.06h0.06h0.07h0.06h0.06h0.06h0.06h0.06h0.06h0.06h0.06h0.06h0.06h0.06h0.06h0.06
		h0.06h0.06h0.06h0.06h0.06h0.07h0.06h0.06h0.06h0.06h0.06h0.06h0.06h0.06h0.06h0.06h0.06h0.06h0.06h0.06h0.06h0.06h0.06h0.06h0.06
		h0.07h0.06h0.06h0.06h0.06h0.06h0.06H24.94z M20.37,29.02h-0.06h-0.06h-0.07h-0.06h-0.06h-0.06h-0.06h-0.06h-0.07h-0.06h-0.06H19.6
		h-0.06h-0.06H19.4h-0.06h-0.06h-0.06v-0.06V28.9v-0.06v-0.06v-0.06v-0.06v-0.06v-0.06v-0.06v-0.06v-0.06v-0.06V28.2v-0.06v-0.06
		v-0.06v-0.06v-0.06v-0.06v-0.06v-0.06v-0.06v-0.06v-0.06v-0.06v-0.06V27.3v-0.06v-0.06v-0.06v-0.06v-0.06v-0.06v-0.06v-0.06v-0.06
		v-0.06V26.6v-0.06v-0.06v-0.06v-0.06v-0.06l-0.03,0.05l-0.04,0.06l-0.03,0.05l-0.04,0.05l-0.03,0.06l-0.04,0.05l-0.03,0.05
		l-0.03,0.06l-0.04,0.05l-0.03,0.05l-0.04,0.05l-0.03,0.06l-0.04,0.05l-0.03,0.05l-0.03,0.06l-0.04,0.05l-0.03,0.05l-0.04,0.06
		l-0.03,0.05l-0.04,0.05l-0.03,0.06l-0.03,0.05l-0.04,0.05l-0.03,0.06l-0.04,0.05l-0.03,0.05l-0.04,0.05l-0.03,0.06l-0.03,0.05
		l-0.04,0.05l-0.03,0.06l-0.04,0.05l-0.03,0.05l-0.04,0.06l-0.03,0.05h-0.03l-0.04-0.06l-0.03-0.05l-0.04-0.06l-0.03-0.05
		l-0.04-0.06l-0.03-0.05l-0.04-0.06l-0.03-0.05l-0.04-0.06l-0.03-0.05l-0.04-0.06l-0.03-0.05l-0.04-0.06l-0.03-0.05l-0.04-0.06
		l-0.03-0.05l-0.04-0.06l-0.04-0.05l-0.03-0.06l-0.04-0.05L17.25,27l-0.04-0.05l-0.03-0.06l-0.04-0.05l-0.03-0.06l-0.04-0.05
		l-0.03-0.06L17,26.62l-0.03-0.06l-0.04-0.05l-0.03-0.06l-0.04-0.05l-0.03-0.06l-0.04-0.05v0.06v0.06v0.06v0.06v0.06v0.06v0.06v0.06
		v0.06v0.06v0.06v0.06v0.06v0.06v0.06v0.06v0.06v0.06v0.06v0.06v0.06v0.06v0.06v0.06v0.06v0.06v0.06v0.06v0.06v0.06v0.06v0.06v0.06
		v0.06v0.06v0.06v0.06v0.06v0.06v0.06v0.06v0.06v0.06h-0.06h-0.06H16.6h-0.06h-0.06h-0.06h-0.06h-0.06h-0.06h-0.06H16.1h-0.06h-0.06
		h-0.06h-0.06h-0.06h-0.06h-0.06h-0.06v-0.06V28.9v-0.06v-0.06v-0.06v-0.06v-0.06v-0.06v-0.06v-0.06v-0.06v-0.06V28.2v-0.06v-0.06
		v-0.06v-0.06v-0.06v-0.06v-0.06v-0.06v-0.06v-0.06V27.5v-0.06v-0.06v-0.06v-0.06v-0.06v-0.06v-0.06v-0.06v-0.06v-0.06V26.8v-0.06
		v-0.06v-0.06v-0.06v-0.06v-0.06v-0.06v-0.06v-0.06v-0.06V26.1v-0.06v-0.06v-0.06v-0.06v-0.06v-0.06v-0.06v-0.06v-0.06v-0.06v-0.06
		v-0.06v-0.06v-0.06v-0.06v-0.06v-0.06v-0.06V24.9v-0.06v-0.06v-0.06v-0.06v-0.06v-0.06v-0.06v-0.06h0.06h0.06h0.06h0.06h0.06h0.06
		h0.06h0.06h0.06h0.06h0.06h0.06h0.06h0.06h0.06h0.06h0.06h0.06h0.06h0.06h0.06l0.03,0.05l0.03,0.06l0.04,0.05l0.03,0.06l0.03,0.05
		l0.03,0.06l0.03,0.05l0.04,0.06l0.03,0.05l0.03,0.05l0.03,0.06l0.03,0.05l0.04,0.06l0.03,0.05l0.03,0.06l0.03,0.05l0.04,0.05
		l0.03,0.06l0.03,0.05l0.03,0.06l0.03,0.05l0.04,0.06l0.03,0.05l0.03,0.06l0.03,0.05l0.03,0.05l0.04,0.06l0.03,0.05l0.03,0.06
		L17.88,26l0.03,0.06l0.04,0.05l0.03,0.06l0.03,0.05l0.03-0.05l0.03-0.06l0.04-0.05L18.14,26l0.03-0.05l0.03-0.06l0.04-0.05
		l0.03-0.06l0.03-0.05l0.03-0.05l0.04-0.06l0.03-0.05l0.03-0.06l0.03-0.05l0.04-0.06l0.03-0.05l0.03-0.06l0.03-0.05l0.03-0.05
		l0.04-0.06l0.03-0.05l0.03-0.06l0.03-0.05l0.04-0.06l0.03-0.05l0.03-0.05l0.03-0.06l0.04-0.05l0.03-0.06l0.03-0.05l0.03-0.06
		l0.04-0.05l0.03-0.06l0.03-0.05h0.06h0.06h0.06h0.06h0.06h0.06h0.06h0.06h0.06h0.06h0.06h0.06h0.06h0.06h0.06h0.06h0.06h0.06h0.06
		h0.06h0.06v0.06v0.06v0.06v0.06v0.06v0.06v0.06v0.06v0.06v0.06v0.06v0.06v0.06v0.06v0.06v0.06v0.06v0.06v0.06v0.06v0.06v0.06v0.06
		v0.06v0.06v0.06v0.06v0.06v0.06v0.06v0.06v0.06v0.06v0.06v0.06v0.06v0.06v0.06v0.06v0.06v0.06v0.06v0.06v0.06v0.06v0.06v0.06v0.06
		v0.06v0.06v0.06v0.06v0.06v0.06v0.06v0.06v0.06v0.06v0.06v0.06v0.06v0.06v0.06v0.06v0.06v0.06v0.06v0.06v0.06v0.06v0.06v0.06v0.06
		H20.37z M13,27.06l0.02,0.06l0.03,0.06h-0.06h-0.06h-0.06h-0.06h-0.06h-0.06H12.6h-0.06h-0.06h-0.06h-0.06h-0.06h-0.06h-0.06H12.1
		h-0.06h-0.06L12,27.11l0.02-0.06l0.03-0.06l0.03-0.06l0.02-0.06l0.03-0.06l0.03-0.06l0.03-0.06l0.02-0.06l0.03-0.06l0.03-0.06
		l0.02-0.06l0.03-0.06l0.03-0.06l0.02-0.06l0.03-0.06l0.03-0.06l0.03-0.06l0.02-0.06L12.44,26l0.03-0.06l0.02-0.06l0.03-0.06
		l0.03,0.06l0.02,0.06L12.58,26l0.03,0.06l0.02,0.06l0.03,0.06l0.03,0.06l0.02,0.06l0.03,0.06l0.03,0.06l0.02,0.06l0.03,0.06
		l0.02,0.06l0.03,0.06l0.03,0.06l0.02,0.06l0.03,0.06l0.03,0.06l0.02,0.06l0.03,0.06L13,27.06z M15.01,29.02h-0.06h-0.06h-0.06
		h-0.06H14.7h-0.06h-0.06h-0.06h-0.06h-0.06h-0.06h-0.06h-0.06h-0.06h-0.06h-0.06h-0.06h-0.06h-0.06h-0.06l-0.03-0.06l-0.02-0.06
		l-0.03-0.06l-0.03-0.06l-0.02-0.06l-0.03-0.06l-0.03-0.06l-0.02-0.06l-0.03-0.06l-0.03-0.06l-0.02-0.06l-0.03-0.06l-0.03-0.06
		l-0.02-0.06l-0.03-0.06h-0.06h-0.06h-0.06h-0.06h-0.06h-0.06h-0.06h-0.06h-0.06h-0.06h-0.06h-0.06H12.6h-0.06h-0.06h-0.06h-0.06
		h-0.06h-0.06h-0.06H12.1h-0.06h-0.06h-0.06h-0.06h-0.06h-0.06h-0.06H11.6l-0.03,0.06l-0.02,0.06l-0.03,0.06l-0.03,0.06l-0.02,0.06
		l-0.03,0.06l-0.03,0.06l-0.02,0.06l-0.03,0.06l-0.03,0.06l-0.02,0.06l-0.03,0.06l-0.03,0.06l-0.02,0.06l-0.03,0.06h-0.06h-0.06
		h-0.06H11h-0.06h-0.07H10.8h-0.06h-0.06h-0.06h-0.06h-0.06h-0.06h-0.06h-0.06h-0.07h-0.06H10.1h-0.06H9.97L10,28.97l0.03-0.06
		l0.03-0.06l0.03-0.06l0.02-0.06l0.03-0.06l0.03-0.06l0.03-0.06l0.03-0.06l0.03-0.06l0.03-0.06l0.03-0.06l0.02-0.06l0.03-0.06
		l0.03-0.06l0.03-0.06l0.03-0.06l0.03-0.06l0.03-0.06l0.03-0.06l0.02-0.06l0.03-0.06l0.03-0.06l0.03-0.06l0.03-0.06l0.03-0.06
		l0.03-0.06l0.03-0.06l0.02-0.06l0.03-0.06l0.03-0.06l0.03-0.06l0.03-0.06l0.03-0.06l0.03-0.06l0.03-0.06l0.02-0.06l0.03-0.06
		l0.03-0.06l0.03-0.06l0.03-0.06L11,26.57l0.03-0.06l0.03-0.06l0.02-0.06l0.03-0.06l0.03-0.06l0.03-0.06l0.03-0.06l0.03-0.06
		l0.03-0.06l0.03-0.06l0.02-0.06l0.03-0.06l0.03-0.06l0.03-0.06l0.03-0.06l0.03-0.06l0.03-0.06l0.03-0.06l0.02-0.06l0.03-0.06
		l0.03-0.06l0.03-0.06l0.03-0.06l0.03-0.06l0.03-0.06l0.03-0.06L11.66,25l0.03-0.06l0.03-0.06l0.03-0.06l0.03-0.06l0.03-0.06
		l0.03-0.06l0.03-0.06l0.02-0.06l0.03-0.06l0.03-0.06l0.03-0.06H12h0.06h0.06h0.06h0.06h0.06h0.06h0.06h0.06h0.06h0.06h0.06h0.06
		h0.06h0.06h0.06h0.06h0.06h0.06l0.03,0.06l0.03,0.06l0.03,0.06l0.03,0.06l0.02,0.06l0.03,0.06l0.03,0.06l0.03,0.06l0.03,0.06
		l0.03,0.06L13.38,25l0.03,0.06l0.02,0.06l0.03,0.06l0.03,0.06l0.03,0.06l0.03,0.06l0.03,0.06l0.03,0.06l0.03,0.06l0.02,0.06
		l0.03,0.06l0.03,0.06l0.03,0.06l0.03,0.06l0.03,0.06l0.03,0.06l0.03,0.06l0.02,0.06l0.03,0.06l0.03,0.06l0.03,0.06l0.03,0.06
		l0.02,0.06l0.03,0.06L14,26.46l0.02,0.06l0.03,0.06l0.03,0.06l0.03,0.06l0.03,0.06l0.03,0.06l0.03,0.06l0.03,0.06l0.02,0.06
		l0.03,0.06l0.03,0.06l0.03,0.06l0.03,0.06l0.03,0.06l0.03,0.06l0.03,0.06l0.02,0.06l0.03,0.06l0.03,0.06l0.03,0.06l0.03,0.06
		l0.03,0.06l0.03,0.06l0.03,0.06l0.02,0.06l0.03,0.06l0.03,0.06l0.03,0.06l0.03,0.06l0.03,0.06l0.03,0.06l0.02,0.06l0.02,0.06
		l0.03,0.06l0.02,0.06l0.03,0.06l0.03,0.06l0.03,0.06l0.03,0.06l0.03,0.06L15,28.85l0.03,0.06l0.03,0.06l0.03,0.06H15.01z"/>
	<path class="st2" d="M7.42,13.9h2.75v-2.13H7.42V7.44h2.86V5.32H5.09v15.34h5.23v-2.13h-2.9V13.9z"/>
	<path class="st2" d="M27.1,14.36v3.46c0,0.61-0.28,0.9-0.87,0.9h-0.44c-0.61,0-0.89-0.28-0.89-0.9V8.14c0-0.61,0.28-0.9,0.89-0.9
		h0.39c0.59,0,0.87,0.28,0.87,0.9v3h2.29V8.01c0-1.91-0.92-2.83-2.81-2.83h-1.13c-1.9,0-2.83,0.94-2.83,2.85v9.9
		c0,1.91,0.94,2.85,2.83,2.85h1.16c1.9,0,2.83-0.94,2.83-2.85v-3.57H27.1z"/>
	<path class="st2" d="M18.99,20.65h2.33V5.32h-2.33V20.65z"/>
	<path class="st1" d="M11.44,5.32h3.66c1.9,0,2.83,0.94,2.83,2.85v4.08c0,1.91-0.94,2.85-2.83,2.85h-1.33v5.57h-2.33V5.32z
		 M14.74,13.03c0.59,0,0.87-0.28,0.87-0.9V8.27c0-0.61-0.28-0.9-0.87-0.9h-0.96v5.65H14.74z"/>
	<path class="st1" d="M10.59,34.52h13.36l-6.82,2.25L10.59,34.52z"/>
</g>
</svg>
