<?xml version="1.0" encoding="utf-8"?>
<!-- Generator: Adobe Illustrator 26.3.1, SVG Export Plug-In . SVG Version: 6.00 Build 0)  -->
<svg version="1.1" id="Camada_1" xmlns="http://www.w3.org/2000/svg" xmlns:xlink="http://www.w3.org/1999/xlink" x="0px" y="0px"
	 viewBox="0 0 40 40.01" style="enable-background:new 0 0 40 40.01;" xml:space="preserve">
<style type="text/css">
	.st0{fill:url(#SVGID_1_);}
	.st1{fill:#FFFFFF;}
</style>
<g>
	
		<linearGradient id="SVGID_1_" gradientUnits="userSpaceOnUse" x1="5.993" y1="837.9977" x2="36.615" y2="807.3757" gradientTransform="matrix(1 0 0 -1 0 844)">
		<stop  offset="0" style="stop-color:#489FD8"/>
		<stop  offset="1" style="stop-color:#2E75BB"/>
	</linearGradient>
	<path class="st0" d="M20,0.01c-11.05,0-20,8.95-20,20s8.95,20,20,20s20-8.95,20-20S31.05,0.01,20,0.01z"/>
	<path class="st1" d="M22.71,25.31h5.18l0.81-5.26h-5.99v-2.87c0-2.18,0.71-4.12,2.76-4.12h3.28V8.47c-0.58-0.08-1.8-0.25-4.1-0.25
		c-4.81,0-7.64,2.54-7.64,8.33v3.5h-4.95v5.26h4.95v14.45c0.98,0.15,1.97,0.25,2.99,0.25c0.92,0,1.82-0.08,2.71-0.2V25.31z"/>
</g>
</svg>
