<?xml version="1.0" encoding="utf-8"?>
<!-- Generator: Adobe Illustrator 26.3.1, SVG Export Plug-In . SVG Version: 6.00 Build 0)  -->
<svg version="1.1" id="Camada_1" xmlns="http://www.w3.org/2000/svg" xmlns:xlink="http://www.w3.org/1999/xlink" x="0px" y="0px"
	 viewBox="0 0 40 40.01" style="enable-background:new 0 0 40 40.01;" xml:space="preserve">
<style type="text/css">
	.st0{fill:none;}
	.st1{fill-rule:evenodd;clip-rule:evenodd;fill:#FBBC0C;}
	.st2{fill-rule:evenodd;clip-rule:evenodd;fill:#E84436;}
	.st3{fill-rule:evenodd;clip-rule:evenodd;fill:#32A853;}
	.st4{fill-rule:evenodd;clip-rule:evenodd;fill:#517CBE;}
</style>
<g id="_x31__stroke_00000142882320689710871150000004286406689948965809_">
	<g id="Google_00000008147220765254611820000009114033012916462478_">
		<rect y="0" class="st0" width="40" height="40"/>
		<path class="st1" d="M8.62,20c0-1.3,0.22-2.54,0.6-3.71l-6.74-5.15C1.17,13.81,0.43,16.82,0.43,20c0,3.18,0.74,6.19,2.05,8.85
			l6.74-5.16C8.83,22.54,8.62,21.3,8.62,20"/>
		<path class="st2" d="M20.46,8.19c2.82,0,5.37,1,7.37,2.64L33.66,5c-3.55-3.09-8.1-5-13.2-5C12.54,0,5.74,4.53,2.48,11.14
			l6.74,5.15C10.77,11.58,15.2,8.19,20.46,8.19"/>
		<path class="st3" d="M20.46,31.82c-5.25,0-9.68-3.39-11.23-8.11l-6.74,5.15C5.74,35.48,12.54,40,20.46,40
			c4.89,0,9.55-1.73,13.05-4.98l-6.4-4.95C25.3,31.21,23.03,31.82,20.46,31.82"/>
		<path class="st4" d="M39.57,20c0-1.18-0.18-2.45-0.46-3.64H20.46v7.73H31.2c-0.54,2.63-2,4.66-4.09,5.98l6.4,4.95
			C37.18,31.61,39.57,26.52,39.57,20"/>
	</g>
</g>
</svg>
