<?xml version="1.0" encoding="utf-8"?>
<!-- Generator: Adobe Illustrator 26.3.1, SVG Export Plug-In . SVG Version: 6.00 Build 0)  -->
<svg version="1.1" id="Camada_1" xmlns="http://www.w3.org/2000/svg" xmlns:xlink="http://www.w3.org/1999/xlink" x="0px" y="0px"
	 viewBox="0 0 512 512" style="enable-background:new 0 0 512 512;" xml:space="preserve">
<style type="text/css">
	.st0{fill:#BA225C;}
</style>
<g transform="translate(0.000000,512.000000) scale(0.100000,-0.100000)">
	<path class="st0" d="M3720.8,21.3c44,17,77,44,171,137c144,143,163,177,164,286c0,58-5,91-19,120c-13,27-333,355-995,1018l-976,977
		l977,978c760,760,982,987,997,1022c14,30,21,67,21,110c0,103-29,153-168,291c-98,97-127,119-175,137c-73,28-131,28-204,1
		c-56-20-108-71-1230-1193c-1297-1296-1223-1214-1223-1346s-74-50,1223-1346c1123-1123,1174-1173,1230-1193
		C3585.8-5.7,3649.8-5.7,3720.8,21.3z"/>
</g>
</svg>
