<?xml version="1.0" encoding="utf-8"?>
<!-- Generator: Adobe Illustrator 26.3.1, SVG Export Plug-In . SVG Version: 6.00 Build 0)  -->
<svg version="1.1" id="Camada_1" xmlns="http://www.w3.org/2000/svg" xmlns:xlink="http://www.w3.org/1999/xlink" x="0px" y="0px"
	 viewBox="0 0 20 20" style="enable-background:new 0 0 20 20;" xml:space="preserve">
<style type="text/css">
	.st0{fill:#FFFFFF;}
</style>
<g id="comp_x5F_232-nintendo-switch_00000170964566036638362670000003504845585658988979_">
	<g>
		<path class="st0" d="M4.28,0.06c-1.99,0.36-3.59,1.83-4.1,3.77C0,4.53-0.02,4.94,0.01,10.37c0.01,4.98,0.01,5.1,0.1,5.49
			c0.46,2.08,1.93,3.55,4.03,4.04c0.27,0.06,0.62,0.08,2.86,0.08C9.31,20,9.56,20,9.62,19.93c0.06-0.06,0.07-0.86,0.07-9.92
			c0-6.72-0.01-9.88-0.04-9.94C9.6,0,9.53-0.01,7.1,0C5.13,0,4.54,0.02,4.28,0.06L4.28,0.06z M8.02,10v8.39l-1.69-0.02
			c-1.55-0.02-1.72-0.03-2.03-0.1c-1.33-0.34-2.32-1.37-2.6-2.71c-0.09-0.42-0.09-10.72,0-11.13c0.25-1.17,1.06-2.13,2.14-2.56
			c0.54-0.22,0.8-0.25,2.57-0.25l1.6,0L8.02,10L8.02,10z M4.64,4.14C4.38,4.19,3.98,4.39,3.76,4.57C3.33,4.95,3.11,5.49,3.15,6.11
			c0.02,0.33,0.04,0.42,0.17,0.68c0.2,0.4,0.49,0.7,0.89,0.89c0.28,0.14,0.35,0.15,0.71,0.17c0.33,0.01,0.44,0,0.66-0.08
			c0.9-0.3,1.44-1.17,1.29-2.07C6.69,4.65,5.68,3.93,4.64,4.14z M11.7,0.02c-0.02,0.01-0.03,4.5-0.03,9.98c0,9.03,0,9.95,0.07,9.97
			c0.11,0.04,3.33,0.03,3.72-0.02c1.68-0.19,3.17-1.21,3.97-2.73c0.1-0.2,0.24-0.52,0.31-0.72C20.01,15.72,20,15.93,20,9.98
			c0-4.75-0.01-5.46-0.07-5.76c-0.41-2.16-2.06-3.79-4.22-4.16C15.43,0.01,14.98,0,13.54,0C12.54-0.01,11.71,0.01,11.7,0.02z
			 M16.12,9.04c0.65,0.17,1.17,0.66,1.39,1.29c0.14,0.39,0.13,0.96,0,1.32c-0.25,0.66-0.75,1.12-1.39,1.29
			c-1.04,0.27-2.14-0.36-2.44-1.38c-0.09-0.31-0.08-0.84,0.02-1.17C14.01,9.37,15.09,8.77,16.12,9.04L16.12,9.04z"/>
	</g>
</g>
</svg>
