<?xml version="1.0" encoding="utf-8"?>
<!-- Generator: Adobe Illustrator 26.3.1, SVG Export Plug-In . SVG Version: 6.00 Build 0)  -->
<svg version="1.1" id="Camada_1" xmlns="http://www.w3.org/2000/svg" xmlns:xlink="http://www.w3.org/1999/xlink" x="0px" y="0px"
	 viewBox="0 0 40 40.01" style="enable-background:new 0 0 40 40.01;" xml:space="preserve">
<style type="text/css">
	.st0{fill:#E52321;}
</style>
<g>
	<path class="st0" d="M6.3,12.24c0.04,0.65,0.07,0.83,0.34,1.36c0.39,0.8,0.98,1.39,1.78,1.79c0.56,0.28,0.7,0.3,1.42,0.33
		c0.65,0.03,0.88,0,1.32-0.15c1.79-0.61,2.88-2.35,2.57-4.14c-0.35-2.12-2.38-3.55-4.46-3.13c-0.52,0.1-1.31,0.5-1.74,0.87
		C6.67,9.91,6.23,10.98,6.3,12.24z"/>
	<path class="st0" d="M8.56,0.13c-3.98,0.71-7.19,3.66-8.2,7.54C0,9.07-0.03,9.89,0.02,20.75c0.02,9.96,0.03,10.2,0.2,10.97
		c0.92,4.15,3.87,7.11,8.06,8.08c0.55,0.13,1.24,0.15,5.72,0.17c4.63,0.04,5.12,0.03,5.24-0.1c0.13-0.13,0.13-1.72,0.13-19.84
		c0-13.44-0.03-19.76-0.08-19.87C19.21,0.01,19.07,0,14.21,0.01C10.27,0.02,9.08,0.04,8.56,0.13L8.56,0.13z M16.03,3.22v16.79
		l0.02,0v16.78l-3.38-0.04c-3.11-0.04-3.44-0.05-4.06-0.21c-2.67-0.69-4.64-2.74-5.21-5.42C3.23,30.28,3.23,9.68,3.4,8.86
		C3.9,6.53,5.51,4.6,7.68,3.73c1.09-0.44,1.6-0.49,5.14-0.5L16.03,3.22z M23.4,0.05c-0.04,0.03-0.05,9-0.05,19.96
		c0,18.06,0.01,19.89,0.13,19.95c0.22,0.08,6.65,0.05,7.45-0.04c3.37-0.39,6.34-2.43,7.95-5.47c0.21-0.39,0.48-1.04,0.63-1.45
		C40.01,31.46,40,31.87,40,19.97c0-9.5-0.02-10.92-0.13-11.52c-0.82-4.31-4.12-7.57-8.44-8.31c-0.58-0.1-1.47-0.13-4.36-0.13
		C25.07,0,23.42,0.02,23.4,0.05L23.4,0.05L23.4,0.05z M27.4,20.78c0.62-2.03,2.77-3.22,4.84-2.68v0c1.3,0.34,2.35,1.32,2.79,2.58
		c0.28,0.78,0.27,1.92-0.01,2.64c-0.51,1.31-1.5,2.23-2.78,2.57c-2.07,0.54-4.28-0.72-4.87-2.77C27.19,22.49,27.2,21.43,27.4,20.78z
		"/>
</g>
</svg>
