<?xml version="1.0" encoding="utf-8"?>
<!-- Generator: Adobe Illustrator 26.3.1, SVG Export Plug-In . SVG Version: 6.00 Build 0)  -->
<svg version="1.1" id="Camada_1" xmlns="http://www.w3.org/2000/svg" xmlns:xlink="http://www.w3.org/1999/xlink" x="0px" y="0px"
	 viewBox="0 0 20 20" style="enable-background:new 0 0 20 20;" xml:space="preserve">
<style type="text/css">
	.st0{fill:#B3B3B3;}
	.st1{fill:#FFFFFF;}
	.st2{fill:#546E7A;}
</style>
<g>
	<path class="st0" d="M12.55,15.54h-2.48c0.74-0.82-0.74-1.65,0-2.48c-0.17,0-0.33,0-0.5,0c-0.74,0.82,0.74,1.65,0,2.48H7.1
		c-0.55,0-0.99,0.44-0.99,0.99v2.48C6.11,19.56,6.56,20,7.1,20h5.45c0.55,0,0.99-0.44,0.99-0.99v-2.48
		C13.54,15.99,13.1,15.54,12.55,15.54z M13.04,19.01c0,0.27-0.22,0.5-0.5,0.5H7.1c-0.27,0-0.5-0.22-0.5-0.5v-2.48
		c0-0.27,0.22-0.5,0.5-0.5h5.45c0.27,0,0.5,0.22,0.5,0.5V19.01z"/>
	<g id="_1_00000142140687770369130360000017378064145576691355_">
		<path class="st1" d="M16.89,12.91H3.11c-1.04,0-1.88-0.84-1.88-1.88V1.88C1.23,0.84,2.08,0,3.11,0h13.77
			c1.04,0,1.88,0.84,1.88,1.88v9.15C18.76,12.06,17.92,12.9,16.89,12.91z M3.11,1.31c-0.32,0-0.57,0.26-0.57,0.57v9.15
			c0,0.32,0.26,0.57,0.57,0.57h13.77c0.32,0,0.57-0.26,0.57-0.57V1.88c0-0.32-0.26-0.57-0.57-0.57H3.11z"/>
		<path class="st1" d="M13.01,15.2H6.99c-0.36,0-0.65-0.29-0.65-0.65c0-0.08,0.01-0.16,0.04-0.23l0.87-2.29
			c0.1-0.25,0.34-0.42,0.61-0.42h4.27c0.27,0,0.51,0.17,0.61,0.42l0.87,2.29c0.13,0.34-0.04,0.72-0.38,0.84
			C13.17,15.18,13.09,15.2,13.01,15.2z M7.94,13.89h4.12l-0.37-0.98H8.31L7.94,13.89z"/>
		<path class="st1" d="M14.34,15.2H5.66c-0.36,0-0.65-0.29-0.65-0.65c0-0.36,0.29-0.65,0.65-0.65h8.68c0.36,0,0.65,0.29,0.65,0.65
			C14.99,14.9,14.7,15.2,14.34,15.2z"/>
		<path class="st1" d="M18.11,10.75H1.89c-0.36,0-0.65-0.29-0.65-0.65c0-0.36,0.29-0.65,0.65-0.65h16.22c0.36,0,0.65,0.29,0.65,0.65
			C18.77,10.45,18.47,10.75,18.11,10.75z"/>
	</g>
	<g id="_21-Mouse_00000059307991280975828420000014525213751486599301_">
		<path class="st2" d="M15.7,16.34h-0.51c-0.49,0-0.89,0.4-0.89,0.89v1.27c0,0.49,0.4,0.89,0.89,0.89h0.51
			c0.49,0,0.89-0.4,0.89-0.89v-1.27C16.59,16.74,16.19,16.34,15.7,16.34z M14.55,17.23c0-0.35,0.28-0.64,0.64-0.64h0.13v0.76h-0.76
			V17.23z M16.33,18.5c0,0.35-0.28,0.64-0.64,0.64h-0.51c-0.35,0-0.64-0.28-0.64-0.64v-0.89h1.78V18.5z M16.33,17.36h-0.76V16.6
			h0.13c0.35,0,0.64,0.28,0.64,0.64V17.36z"/>
		<path class="st2" d="M14.32,16.05h-0.25c-0.07,0-0.13,0.06-0.13,0.13l0,0c0,0.07,0.06,0.13,0.13,0.13h0.25
			c0.21,0,0.38-0.17,0.38-0.38v0c0-0.07,0.06-0.13,0.13-0.13h0.38c0.07,0,0.13,0.06,0.13,0.13v0.25c0,0.07,0.06,0.13,0.13,0.13l0,0
			c0.07,0,0.13-0.06,0.13-0.13v-0.25c0-0.21-0.17-0.38-0.38-0.38h-0.38c-0.21,0-0.38,0.17-0.38,0.38v0
			C14.45,15.99,14.4,16.05,14.32,16.05z"/>
	</g>
</g>
</svg>
