<?xml version="1.0" encoding="utf-8"?>
<!-- Generator: Adobe Illustrator 26.3.1, SVG Export Plug-In . SVG Version: 6.00 Build 0)  -->
<svg version="1.1" id="Camada_1" xmlns="http://www.w3.org/2000/svg" xmlns:xlink="http://www.w3.org/1999/xlink" x="0px" y="0px"
	 viewBox="0 0 20 20" style="enable-background:new 0 0 20 20;" xml:space="preserve">
<style type="text/css">
	.st0{fill:#FFFFFF;}
</style>
<g>
	<path class="st0" d="M0.38,13.1c0.66-0.49,1.79-0.86,1.79-0.86l4.67-1.66v1.89l-3.36,1.2c-0.59,0.21-0.68,0.51-0.2,0.67
		c0.48,0.16,1.36,0.11,1.95-0.1l1.61-0.59v1.69c-1.79,0.32-3.52,0.25-5.34-0.35C-0.08,14.56-0.34,13.64,0.38,13.1z M12.03,5.65
		c0-0.57-0.1-1.09-0.64-1.24c-0.41-0.13-0.66,0.25-0.66,0.81v12.08l-3.26-1.03V1.88c1.39,0.26,3.4,0.86,4.49,1.23
		c2.76,0.95,3.69,2.13,3.69,4.78c0,2.59-1.6,3.57-3.63,2.59V5.65z M18.48,14.53l-7.12,2.56V15.2l5.24-1.87
		c0.59-0.21,0.69-0.51,0.2-0.67c-0.48-0.16-1.36-0.11-1.95,0.1L11.35,14v-1.96c0.81-0.27,1.64-0.47,2.63-0.58
		c1.42-0.16,3.16,0.02,4.52,0.54c1.53,0.49,1.71,1.2,1.32,1.7C19.43,14.18,18.48,14.53,18.48,14.53z"/>
</g>
</svg>
