<?xml version="1.0" encoding="utf-8"?>
<!-- Generator: Adobe Illustrator 26.3.1, SVG Export Plug-In . SVG Version: 6.00 Build 0)  -->
<svg version="1.1" id="Camada_1" xmlns="http://www.w3.org/2000/svg" xmlns:xlink="http://www.w3.org/1999/xlink" x="0px" y="0px"
	 viewBox="0 0 51.84 40.01" style="enable-background:new 0 0 51.84 40.01;" xml:space="preserve">
<style type="text/css">
	.st0{fill-rule:evenodd;clip-rule:evenodd;fill:#0C4596;}
</style>
<g id="形状_1_00000001624757108157639150000002885534543110698154_">
	<g>
		<path class="st0" d="M31.08,8.47c0.14,0.7,0.09,1.41,0.1,2.12c0.01,3.91-0.01,7.81,0.01,11.72c1.17,0.55,2.44,0.96,3.75,0.95
			c0.86,0.02,1.73-0.18,2.5-0.59c0.79-0.43,1.45-1.09,1.92-1.85c0.53-0.87,0.85-1.85,1.03-2.84c0.22-1.15,0.22-2.32,0.18-3.48
			c-0.08-1.78-0.34-3.59-1.12-5.21c-0.43-0.89-1.01-1.71-1.71-2.41c-0.65-0.67-1.42-1.21-2.22-1.7c-1.78-1.06-3.73-1.76-5.7-2.39
			c-1.25-0.4-2.51-0.78-3.77-1.15c-2.2-0.63-4.42-1.23-6.67-1.65c0,12.44,0,24.88,0,37.32c2.81,0.89,5.63,1.79,8.44,2.68
			c0.01-10.46,0-20.92,0-31.38c0.02-0.59,0.12-1.23,0.5-1.7c0.23-0.3,0.62-0.46,1-0.38c0.37,0.08,0.73,0.22,1.01,0.47
			C30.76,7.38,30.98,7.93,31.08,8.47z M9.03,30.59c2.9-1.04,5.79-2.08,8.69-3.11c0.02-0.19,0.01-0.39,0.01-0.59
			c0-1.44,0-2.88,0-4.32c-3.67,1.29-7.33,2.61-11,3.9c-0.89,0.33-1.8,0.62-2.68,0.99C3.04,27.89,2.04,28.37,1.13,29
			c-0.39,0.27-0.75,0.61-0.95,1.05c-0.21,0.44-0.22,0.96-0.05,1.41c0.2,0.53,0.6,0.97,1.05,1.31c0.81,0.62,1.78,0.99,2.75,1.27
			c2.96,0.97,6.09,1.46,9.2,1.39c1.55-0.02,3.09-0.21,4.61-0.48c0.02-0.24,0.01-0.49,0.01-0.73c0-1.22,0.01-2.44,0-3.66
			c-1.24,0.44-2.48,0.89-3.72,1.34c-0.48,0.18-0.96,0.35-1.46,0.45c-0.74,0.16-1.5,0.22-2.25,0.23c-0.68-0.03-1.37-0.07-2.01-0.33
			c-0.23-0.1-0.48-0.23-0.58-0.48c-0.08-0.21,0.04-0.42,0.18-0.56C8.22,30.91,8.63,30.74,9.03,30.59z M51.01,27.79
			c-0.73-0.66-1.65-1.07-2.57-1.4c-0.51-0.16-1.01-0.37-1.53-0.52c-2.63-0.83-5.4-1.17-8.15-1.18c-0.84,0.03-1.67,0.05-2.51,0.15
			c-2.32,0.27-4.62,0.74-6.83,1.51c0,1.69,0,3.38,0,5.07c3.05-1.06,6.09-2.14,9.14-3.21c1.01-0.34,2.09-0.47,3.16-0.48
			c0.68,0.02,1.38,0.07,2.02,0.32c0.23,0.1,0.47,0.23,0.57,0.47c0.1,0.27-0.1,0.52-0.3,0.68c-0.49,0.39-1.11,0.55-1.69,0.77
			c-4.28,1.53-8.55,3.05-12.83,4.58c-0.09,0.02-0.05,0.13-0.06,0.19c0,1.57,0,3.15,0,4.72c5.62-2.02,11.24-4.04,16.87-6.06
			c0.92-0.34,1.87-0.63,2.74-1.08c0.83-0.42,1.65-0.9,2.27-1.59c0.33-0.37,0.56-0.86,0.53-1.36C51.83,28.73,51.45,28.19,51.01,27.79
			z"/>
	</g>
</g>
</svg>
