<?xml version="1.0" encoding="utf-8"?>
<!-- Generator: Adobe Illustrator 26.3.1, SVG Export Plug-In . SVG Version: 6.00 Build 0)  -->
<svg version="1.1" id="Camada_1" xmlns="http://www.w3.org/2000/svg" xmlns:xlink="http://www.w3.org/1999/xlink" x="0px" y="0px"
	 viewBox="0 0 512 512" style="enable-background:new 0 0 512 512;" xml:space="preserve">
<style type="text/css">
	.st0{fill:#BA225C;}
</style>
<g transform="translate(0.000000,512.000000) scale(0.100000,-0.100000)">
	<path class="st0" d="M1400,5098c-44-17-77-44-171-137c-144-143-163-177-164-286c0-58,5-91,19-120c13-27,333-355,995-1018l976-977
		l-977-978c-760-760-982-987-997-1022c-14-30-21-67-21-110c0-103,29-153,168-291c98-97,127-119,175-137c73-28,131-28,204-1
		c56,20,108,71,1230,1193c1297,1296,1223,1214,1223,1346s74,50-1223,1346C1714,5029,1663,5079,1607,5099
		C1535,5125,1471,5125,1400,5098z"/>
</g>
</svg>
