<?xml version="1.0" encoding="utf-8"?>
<!-- Generator: Adobe Illustrator 26.3.1, SVG Export Plug-In . SVG Version: 6.00 Build 0)  -->
<svg version="1.1" id="Camada_1" xmlns="http://www.w3.org/2000/svg" xmlns:xlink="http://www.w3.org/1999/xlink" x="0px" y="0px"
	 viewBox="0 0 40 40.01" style="enable-background:new 0 0 40 40.01;" xml:space="preserve">
<style type="text/css">
	.st0{fill-rule:evenodd;clip-rule:evenodd;fill:url(#BG_00000132060745818645911580000001599191287944949888_);}
	.st1{fill:#F2F2F2;}
</style>
<g id="steam_logo_00000090262753007103976030000004282406111255846022_">
	
		<linearGradient id="BG_00000011018448371839288910000004983841577518134202_" gradientUnits="userSpaceOnUse" x1="-292.685" y1="842.0004" x2="-292.685" y2="841.8404" gradientTransform="matrix(250 0 0 -250 73191.2578 210500.1094)">
		<stop  offset="0" style="stop-color:#131E2F"/>
		<stop  offset="0.2125" style="stop-color:#181E37"/>
		<stop  offset="0.4069" style="stop-color:#1E2445"/>
		<stop  offset="0.5811" style="stop-color:#21325E"/>
		<stop  offset="0.7376" style="stop-color:#174C7F"/>
		<stop  offset="0.8728" style="stop-color:#146598"/>
		<stop  offset="1" style="stop-color:#1588B9"/>
	</linearGradient>
	
		<path id="BG_00000073001829490415034340000002422621335409930412_" style="fill-rule:evenodd;clip-rule:evenodd;fill:url(#BG_00000011018448371839288910000004983841577518134202_);" d="
		M0.8,25.76C3.27,34,10.92,40,19.98,40C31.04,40,40,31.05,40,20C40,8.96,31.04,0,19.98,0C9.37,0,0.69,8.25,0,18.68
		C1.3,20.85,1.8,22.19,0.8,25.76L0.8,25.76z"/>
	<path id="Shape_00000064318969968600437460000016339035527278010287_" class="st1" d="M19.02,15.66c0,0.03,0,0.07,0,0.1l-4.91,7
		c-0.8-0.04-1.59,0.1-2.35,0.41c-0.33,0.13-0.65,0.3-0.94,0.49L0.03,19.3c0,0-0.25,4.03,0.79,7.03l7.63,3.08
		c0.38,1.68,1.56,3.15,3.29,3.86c2.83,1.16,6.1-0.16,7.28-2.94c0.31-0.73,0.45-1.49,0.43-2.25l7.03-4.92c0.06,0,0.12,0,0.17,0
		c4.21,0,7.63-3.36,7.63-7.49c0-4.13-3.42-7.49-7.63-7.49C22.45,8.17,19.02,11.53,19.02,15.66z M17.84,29.84
		c-0.91,2.15-3.43,3.17-5.62,2.27c-1.01-0.41-1.77-1.17-2.21-2.07l2.48,1.01c1.61,0.66,3.47-0.09,4.14-1.67
		c0.67-1.58-0.09-3.4-1.7-4.06l-2.57-1.04c0.99-0.37,2.12-0.38,3.17,0.05c1.06,0.43,1.88,1.25,2.32,2.29
		C18.29,27.65,18.29,28.8,17.84,29.84z M26.65,20.65c-2.8,0-5.08-2.24-5.08-4.99c0-2.75,2.28-4.99,5.08-4.99
		c2.8,0,5.08,2.24,5.08,4.99C31.74,18.41,29.46,20.65,26.65,20.65z M22.84,15.66c0-2.07,1.71-3.75,3.82-3.75
		c2.11,0,3.82,1.68,3.82,3.75c0,2.07-1.71,3.75-3.82,3.75C24.55,19.4,22.84,17.73,22.84,15.66z"/>
</g>
</svg>
