<?xml version="1.0" encoding="utf-8"?>
<!-- Generator: Adobe Illustrator 26.3.1, SVG Export Plug-In . SVG Version: 6.00 Build 0)  -->
<svg version="1.1" xmlns="http://www.w3.org/2000/svg" xmlns:xlink="http://www.w3.org/1999/xlink" x="0px" y="0px"
	 viewBox="0 0 1132.82 278.22" style="enable-background:new 0 0 1132.82 278.22;" xml:space="preserve">
<style type="text/css">
	.st0{fill:#FFFFFF;}
	.st1{fill:#23AD7A;}
	.st2{fill:#00532C;}
</style>
<g id="Type">
	<path class="st0" d="M297.74,98.58h114.73v21.44h-45.06v120.29H342.6V120.02h-44.86V98.58z M407.51,137.68h21.24v19.85h0.4
		c0.66-2.78,1.95-5.49,3.87-8.14c1.92-2.65,4.23-5.06,6.95-7.25c2.71-2.18,5.72-3.94,9.03-5.26c3.31-1.32,6.68-1.98,10.12-1.98
		c2.65,0,4.47,0.07,5.46,0.2c0.99,0.13,2.02,0.27,3.08,0.4v21.83c-1.59-0.26-3.21-0.5-4.86-0.7c-1.66-0.2-3.28-0.3-4.86-0.3
		c-3.84,0-7.44,0.76-10.82,2.28c-3.37,1.52-6.32,3.77-8.83,6.75c-2.52,2.98-4.5,6.65-5.96,11.02c-1.46,4.37-2.18,9.4-2.18,15.09
		v48.83h-22.63V137.68z M571.5,240.31h-22.23v-14.29h-0.4c-2.78,5.16-6.92,9.3-12.41,12.41c-5.49,3.11-11.08,4.67-16.77,4.67
		c-13.5,0-23.26-3.34-29.28-10.02c-6.02-6.68-9.03-16.77-9.03-30.27v-65.11h22.63v62.92c0,9,1.72,15.35,5.16,19.06
		c3.44,3.71,8.27,5.56,14.49,5.56c4.76,0,8.73-0.73,11.91-2.18c3.18-1.45,5.76-3.41,7.74-5.86c1.99-2.45,3.41-5.39,4.27-8.83
		c0.86-3.44,1.29-7.15,1.29-11.12v-59.55h22.63V240.31z M610.01,207.36c0.66,6.62,3.18,11.25,7.54,13.9
		c4.37,2.65,9.59,3.97,15.68,3.97c2.12,0,4.53-0.16,7.25-0.5c2.71-0.33,5.26-0.96,7.64-1.89c2.38-0.92,4.33-2.28,5.86-4.07
		c1.52-1.79,2.21-4.13,2.08-7.05c-0.13-2.91-1.19-5.29-3.18-7.15c-1.99-1.85-4.54-3.34-7.64-4.47c-3.11-1.12-6.65-2.08-10.62-2.88
		c-3.97-0.79-8.01-1.65-12.11-2.58c-4.24-0.92-8.31-2.05-12.21-3.38c-3.9-1.32-7.41-3.11-10.52-5.36c-3.11-2.25-5.59-5.13-7.44-8.63
		c-1.85-3.5-2.78-7.84-2.78-13c0-5.56,1.36-10.22,4.07-13.99c2.71-3.77,6.15-6.81,10.32-9.13c4.17-2.31,8.8-3.94,13.89-4.86
		c5.09-0.92,9.96-1.39,14.59-1.39c5.29,0,10.35,0.56,15.19,1.69c4.83,1.13,9.2,2.95,13.1,5.46c3.9,2.52,7.15,5.79,9.73,9.83
		c2.58,4.04,4.2,8.9,4.86,14.59h-23.62c-1.06-5.42-3.54-9.06-7.44-10.92c-3.91-1.85-8.37-2.78-13.4-2.78c-1.59,0-3.47,0.13-5.66,0.4
		c-2.18,0.27-4.24,0.76-6.15,1.49c-1.92,0.73-3.54,1.79-4.86,3.18c-1.32,1.39-1.99,3.21-1.99,5.46c0,2.78,0.96,5.03,2.88,6.75
		c1.92,1.72,4.43,3.14,7.54,4.27c3.11,1.13,6.65,2.08,10.62,2.88c3.97,0.79,8.07,1.66,12.31,2.58c4.1,0.93,8.14,2.05,12.11,3.37
		c3.97,1.32,7.51,3.11,10.62,5.36c3.11,2.25,5.62,5.1,7.54,8.54c1.92,3.44,2.88,7.68,2.88,12.7c0,6.09-1.39,11.25-4.17,15.48
		c-2.78,4.24-6.39,7.68-10.82,10.32c-4.43,2.65-9.36,4.57-14.79,5.76c-5.43,1.19-10.79,1.79-16.08,1.79
		c-6.49,0-12.47-0.73-17.96-2.18c-5.49-1.46-10.26-3.67-14.29-6.65c-4.04-2.98-7.21-6.68-9.53-11.12
		c-2.32-4.43-3.54-9.69-3.67-15.78H610.01z M684.64,137.68h17.07v-30.77h22.63v30.77h20.45v16.87h-20.45v54.79
		c0,2.38,0.1,4.44,0.3,6.15c0.2,1.72,0.66,3.18,1.39,4.37c0.73,1.19,1.82,2.08,3.28,2.68c1.45,0.6,3.44,0.89,5.95,0.89
		c1.59,0,3.18-0.03,4.76-0.1c1.59-0.07,3.18-0.3,4.76-0.69v17.47c-2.52,0.26-4.96,0.53-7.34,0.79c-2.38,0.26-4.83,0.4-7.34,0.4
		c-5.96,0-10.75-0.56-14.39-1.69c-3.64-1.12-6.49-2.78-8.54-4.96c-2.05-2.18-3.44-4.93-4.17-8.24c-0.73-3.31-1.16-7.08-1.29-11.31
		v-60.54h-17.07V137.68z M760.67,137.68h21.44v13.89h0.4c3.18-5.95,7.61-10.22,13.3-12.8c5.69-2.58,11.84-3.87,18.46-3.87
		c8.07,0,15.12,1.42,21.14,4.27c6.02,2.85,11.02,6.75,14.99,11.71c3.97,4.96,6.95,10.75,8.93,17.37c1.98,6.62,2.98,13.7,2.98,21.24
		c0,6.88-0.89,13.57-2.68,20.05c-1.79,6.49-4.5,12.21-8.14,17.17c-3.64,4.96-8.24,8.93-13.8,11.91c-5.56,2.98-12.11,4.47-19.65,4.47
		c-3.31,0-6.62-0.3-9.92-0.89c-3.31-0.6-6.49-1.56-9.53-2.88c-3.05-1.32-5.86-3.01-8.44-5.06c-2.58-2.05-4.73-4.47-6.45-7.25h-0.4
		v51.21h-22.63V137.68z M839.67,189.1c0-4.63-0.6-9.13-1.79-13.5c-1.19-4.37-2.98-8.24-5.36-11.61c-2.38-3.37-5.36-6.08-8.93-8.14
		c-3.57-2.05-7.68-3.08-12.31-3.08c-9.53,0-16.71,3.31-21.54,9.92c-4.83,6.62-7.25,15.42-7.25,26.4c0,5.16,0.63,9.96,1.89,14.39
		c1.26,4.43,3.14,8.24,5.66,11.41c2.51,3.18,5.52,5.69,9.03,7.54c3.5,1.86,7.57,2.78,12.21,2.78c5.16,0,9.53-1.06,13.1-3.18
		c3.57-2.12,6.52-4.86,8.83-8.24c2.31-3.38,3.97-7.21,4.96-11.51C839.17,198,839.67,193.6,839.67,189.1z M879.57,98.58h22.63v21.44
		h-22.63V98.58z M879.57,137.68h22.63v102.62h-22.63V137.68z M922.42,98.58h22.63v141.73h-22.63V98.58z M1014.32,243.09
		c-8.21,0-15.52-1.36-21.93-4.07c-6.42-2.71-11.84-6.45-16.28-11.21c-4.44-4.76-7.81-10.45-10.12-17.07
		c-2.32-6.62-3.47-13.9-3.47-21.83c0-7.81,1.16-15.02,3.47-21.64c2.31-6.62,5.69-12.31,10.12-17.07c4.43-4.76,9.86-8.5,16.28-11.21
		c6.42-2.71,13.73-4.07,21.93-4.07c8.2,0,15.51,1.36,21.93,4.07c6.42,2.71,11.84,6.45,16.28,11.21c4.43,4.76,7.81,10.46,10.12,17.07
		c2.31,6.62,3.47,13.83,3.47,21.64c0,7.94-1.16,15.22-3.47,21.83c-2.32,6.62-5.69,12.31-10.12,17.07
		c-4.44,4.76-9.86,8.5-16.28,11.21C1029.84,241.73,1022.53,243.09,1014.32,243.09z M1014.32,225.22c5.03,0,9.4-1.06,13.1-3.18
		c3.7-2.12,6.75-4.89,9.13-8.34c2.38-3.44,4.13-7.31,5.26-11.61c1.12-4.3,1.69-8.7,1.69-13.2c0-4.37-0.56-8.73-1.69-13.1
		c-1.12-4.37-2.88-8.24-5.26-11.61c-2.38-3.37-5.43-6.12-9.13-8.24c-3.71-2.12-8.07-3.18-13.1-3.18c-5.03,0-9.4,1.06-13.1,3.18
		c-3.71,2.12-6.75,4.86-9.13,8.24c-2.38,3.38-4.14,7.25-5.26,11.61c-1.13,4.37-1.69,8.73-1.69,13.1c0,4.5,0.56,8.9,1.69,13.2
		c1.12,4.3,2.88,8.17,5.26,11.61c2.38,3.44,5.42,6.22,9.13,8.34C1004.93,224.16,1009.29,225.22,1014.32,225.22z M1072.68,137.68
		h17.07v-30.77h22.63v30.77h20.45v16.87h-20.45v54.79c0,2.38,0.1,4.44,0.3,6.15c0.2,1.72,0.66,3.18,1.39,4.37
		c0.73,1.19,1.82,2.08,3.28,2.68c1.45,0.6,3.44,0.89,5.95,0.89c1.59,0,3.18-0.03,4.76-0.1c1.59-0.07,3.18-0.3,4.76-0.69v17.47
		c-2.52,0.26-4.96,0.53-7.34,0.79c-2.38,0.26-4.83,0.4-7.34,0.4c-5.96,0-10.75-0.56-14.39-1.69c-3.64-1.12-6.49-2.78-8.54-4.96
		c-2.05-2.18-3.44-4.93-4.17-8.24c-0.73-3.31-1.16-7.08-1.29-11.31v-60.54h-17.07V137.68z"/>
</g>
<g id="Star">
	<polygon class="st1" points="271.32,98.58 167.68,98.56 135.66,0 103.64,98.55 0,98.53 83.85,159.47 51.83,258.05 135.67,197.13 
		219.49,258.05 187.47,159.5 271.32,98.58 271.32,98.58 271.32,98.58 	"/>
	<polygon class="st2" points="194.73,181.84 187.47,159.5 135.67,197.13 	"/>
</g>
</svg>
