<?xml version="1.0" encoding="utf-8"?>
<!-- Generator: Adobe Illustrator 26.3.1, SVG Export Plug-In . SVG Version: 6.00 Build 0)  -->
<svg version="1.1" id="Layer_1" xmlns="http://www.w3.org/2000/svg" xmlns:xlink="http://www.w3.org/1999/xlink" x="0px" y="0px"
	 viewBox="0 0 48.2 48.2" style="enable-background:new 0 0 48.2 48.2;" xml:space="preserve">
<style type="text/css">
	.st0{fill:#1B9DF0;}
	.st1{fill:#FFFFFF;}
</style>
<g id="Dark_Blue">
	<circle class="st0" cx="24" cy="24.2" r="24"/>
</g>
<g id="Logo__x2014__FIXED">
	<path class="st1" d="M19.6,36.8c10.6,0,16.5-8.8,16.5-16.5c0-0.3,0-0.5,0-0.7c1.1-0.8,2.1-1.8,2.9-3c-1,0.5-2.1,0.8-3.3,0.9
		c1.2-0.7,2.1-1.8,2.5-3.2c-1.1,0.7-2.4,1.1-3.7,1.4c-1.1-1.1-2.6-1.8-4.2-1.8c-3.2,0-5.8,2.6-5.8,5.8c0,0.5,0,0.9,0.2,1.3
		c-4.8-0.2-9.1-2.5-11.9-6c-0.5,0.9-0.8,1.8-0.8,2.9c0,2,1,3.8,2.6,4.8c-0.9,0-1.8-0.3-2.6-0.7c0,0,0,0,0,0.1c0,2.8,2,5.1,4.6,5.7
		c-0.5,0.1-1,0.2-1.5,0.2c-0.4,0-0.7,0-1.1-0.1c0.7,2.3,2.9,4,5.4,4c-2,1.5-4.5,2.5-7.2,2.5c-0.5,0-0.9,0-1.4-0.1
		C13.3,35.9,16.3,36.8,19.6,36.8"/>
</g>
</svg>
