<?xml version="1.0" encoding="utf-8"?>
<!-- Generator: Adobe Illustrator 26.3.1, SVG Export Plug-In . SVG Version: 6.00 Build 0)  -->
<svg version="1.1" id="Camada_1" xmlns="http://www.w3.org/2000/svg" xmlns:xlink="http://www.w3.org/1999/xlink" x="0px" y="0px"
	 viewBox="0 0 20 20" style="enable-background:new 0 0 20 20;" xml:space="preserve">
<style type="text/css">
	.st0{fill:#FFFFFF;}
</style>
<g>
	<path class="st0" d="M2.43,13.31c-0.4,1.07-0.55,2.14-0.38,2.58c0.11,0.3,0.01,0.19-0.38-0.4c-0.94-1.43-1.41-2.84-1.63-4.87
		c-0.08-0.67-0.05-1.06,0.17-2.44c0.27-1.72,1.25-3.71,2.43-4.94c0.5-0.52,0.54-0.53,1.16-0.33C4.94,3.3,6.08,4.39,7.28,5.48
		C4.6,8.76,3.01,11.74,2.43,13.31z M16.78,17.29c-0.32,0.61-2.29,1.8-3.73,2.25c-1.19,0.38-2.76,0.54-4.05,0.41
		c-1.54-0.15-3.1-0.7-4.44-1.57c-1.12-0.73-1.38-1.04-1.38-1.64c0-1.21,1.33-3.32,3.6-5.73c1.29-1.37,3.08-2.97,3.28-2.93
		c0.38,0.08,3.4,3.03,4.53,4.41C16.37,14.7,17.2,16.49,16.78,17.29z M5.75,0.96c3.27-1.54,6.85-1.11,9.43,0.47
		c-0.54-0.02-1.75-0.24-4.33,1.02c-0.45,0.22-0.84,0.39-0.87,0.39C9.79,2.8,7.3,1.31,5.37,1.41C4.78,1.44,4.81,1.41,5.75,0.96z
		 M19.87,11.8c-0.14,0.75-0.45,1.71-0.75,2.37c-0.22,0.49-0.78,1.44-1.02,1.75c-0.12,0.16-0.12,0.16-0.06-0.19
		c0.09-0.45-0.02-1.27-0.3-2.11c-0.83-2.54-3.25-6.01-4.95-8.16c0.94-0.86,1.65-1.54,2.59-2.13c0.48-0.3,1.16-0.56,1.45-0.56
		c0.29,0,2.33,2.03,3.01,5.25C20.03,8.95,20.05,10.9,19.87,11.8z"/>
</g>
</svg>
