<?xml version="1.0" encoding="utf-8"?>
<!-- Generator: Adobe Illustrator 26.3.1, SVG Export Plug-In . SVG Version: 6.00 Build 0)  -->
<svg version="1.1" id="Camada_1" xmlns="http://www.w3.org/2000/svg" xmlns:xlink="http://www.w3.org/1999/xlink" x="0px" y="0px"
	 viewBox="0 0 40 40.01" style="enable-background:new 0 0 40 40.01;" xml:space="preserve">
<style type="text/css">
	.st0{fill:#187D35;}
</style>
<g id="_x33_87-xbox_00000098913238837300693200000017002019585908498861_">
	<g>
		<g>
			<path class="st0" d="M10.75,2.83c3.85-0.2,8.85,2.78,9.22,2.85c0.06,0.01,0.84-0.34,1.74-0.78c5.15-2.51,7.58-2.08,8.66-2.03
				C25.22-0.3,18.06-1.16,11.51,1.93C9.62,2.82,9.57,2.89,10.75,2.83z"/>
			<path class="st0" d="M14.56,10.96C12.17,8.79,9.88,6.61,7.6,5.85C6.37,5.44,6.28,5.46,5.28,6.5c-2.35,2.45-4.31,6.43-4.86,9.87
				c-0.44,2.76-0.49,3.53-0.34,4.88c0.45,4.07,1.39,6.89,3.27,9.75c0.77,1.18,0.98,1.39,0.75,0.8c-0.34-0.89-0.02-3.02,0.77-5.16
				C6.02,23.49,9.21,17.53,14.56,10.96z"/>
			<path class="st0" d="M39.69,16.08c-1.36-6.45-5.44-10.51-6.02-10.51c-0.59,0-1.95,0.52-2.9,1.12c-1.88,1.17-3.31,2.53-5.18,4.26
				c3.42,4.3,8.24,11.24,9.91,16.31c0.55,1.67,0.78,3.31,0.6,4.22c-0.14,0.69-0.14,0.69,0.11,0.37c0.49-0.62,1.6-2.52,2.05-3.51
				c0.6-1.31,1.21-3.24,1.5-4.73C40.1,21.8,40.07,17.9,39.69,16.08z"/>
			<path class="st0" d="M20.13,16.19c-0.4-0.09-3.98,3.12-6.56,5.85c-4.54,4.82-7.19,9.05-7.19,11.46c0,1.2,0.51,1.81,2.76,3.27
				c2.68,1.74,5.8,2.85,8.88,3.14c2.58,0.25,5.71-0.07,8.1-0.82c2.89-0.91,6.83-3.29,7.47-4.51c0.83-1.6-0.81-5.19-4.39-9.57
				C26.92,22.25,20.89,16.36,20.13,16.19z"/>
		</g>
	</g>
</g>
</svg>
