<?xml version="1.0" encoding="utf-8"?>
<!-- Generator: Adobe Illustrator 26.3.1, SVG Export Plug-In . SVG Version: 6.00 Build 0)  -->
<svg version="1.1" id="Camada_1" xmlns="http://www.w3.org/2000/svg" xmlns:xlink="http://www.w3.org/1999/xlink" x="0px" y="0px"
	 viewBox="0 0 75 85" style="enable-background:new 0 0 75 85;" xml:space="preserve">
<style type="text/css">
	.st0{fill:#B3B3B3;}
	.st1{fill:#BA225C;}
</style>
<g>
	<path class="st0" d="M67.9,85H11.3c-3.9,0-7.1-3.2-7.1-7.1V42.5c0-0.9,0.7-1.6,1.6-1.6h67.6c0.9,0,1.6,0.7,1.6,1.6v35.5
		C75,81.8,71.8,85,67.9,85z M7.4,44.1v33.9c0,2.2,1.8,3.9,3.9,3.9h56.6c2.2,0,3.9-1.8,3.9-3.9V44.1H7.4z"/>
	<path class="st0" d="M73.4,57.7H5.8c-0.9,0-1.6-0.7-1.6-1.6c0-0.9,0.7-1.6,1.6-1.6h67.6c0.9,0,1.6,0.7,1.6,1.6
		C75,57,74.3,57.7,73.4,57.7z"/>
	<path class="st0" d="M12.1,57.6c-0.2,0-0.3,0-0.5-0.1c-0.8-0.3-1.3-1.2-1-2l4.6-13.4c0.3-0.8,1.2-1.3,2-1c0.8,0.3,1.3,1.2,1,2
		l-4.6,13.4C13.4,57.2,12.8,57.6,12.1,57.6z"/>
	<path class="st0" d="M24.8,57.6c-0.2,0-0.3,0-0.5-0.1c-0.8-0.3-1.3-1.2-1-2l4.6-13.4c0.3-0.8,1.2-1.3,2-1s1.3,1.2,1,2l-4.6,13.4
		C26,57.2,25.4,57.6,24.8,57.6z"/>
	<path class="st0" d="M37.4,57.6c-0.2,0-0.3,0-0.5-0.1c-0.8-0.3-1.3-1.2-1-2l4.6-13.4c0.3-0.8,1.2-1.3,2-1s1.3,1.2,1,2l-4.6,13.4
		C38.7,57.2,38.1,57.6,37.4,57.6z"/>
	<path class="st0" d="M50.1,57.6c-0.2,0-0.3,0-0.5-0.1c-0.8-0.3-1.3-1.2-1-2l4.6-13.4c0.3-0.8,1.2-1.3,2-1s1.3,1.2,1,2l-4.6,13.4
		C51.4,57.2,50.8,57.6,50.1,57.6z"/>
	<path class="st0" d="M62.8,57.6c-0.2,0-0.3,0-0.5-0.1c-0.8-0.3-1.3-1.2-1-2l4.6-13.4c0.3-0.8,1.2-1.3,2-1c0.8,0.3,1.3,1.2,1,2
		l-4.6,13.4C64.1,57.2,63.4,57.6,62.8,57.6z"/>
	<path class="st1" d="M36.2,78.9c-0.3,0-0.5-0.1-0.7-0.2c-0.5-0.3-0.8-0.8-0.8-1.4V63.8c0-0.6,0.3-1.1,0.8-1.4
		c0.5-0.3,1.2-0.2,1.6,0.1l10,6.8c0.4,0.3,0.7,0.8,0.7,1.3c0,0.5-0.3,1-0.7,1.3l-10,6.8C36.9,78.8,36.5,78.9,36.2,78.9z M37.8,66.8
		v7.5l5.6-3.8L37.8,66.8z"/>
	<path class="st1" d="M5.8,44.1c-0.2,0-0.3,0-0.5-0.1c-0.4-0.1-0.7-0.4-0.9-0.8l-3.6-7.1c-0.9-1.7-1-3.6-0.4-5.4
		c0.6-1.8,1.8-3.3,3.5-4.1L54.2,0.8C57.7-1,62,0.4,63.8,3.9l3.6,7.1c0.2,0.4,0.2,0.8,0.1,1.2c-0.1,0.4-0.4,0.7-0.8,0.9L6.5,43.9
		C6.3,44,6.1,44.1,5.8,44.1z M57.4,3.2c-0.6,0-1.2,0.1-1.8,0.4L5.3,29.4c-0.9,0.5-1.6,1.3-1.9,2.3c-0.3,1-0.2,2.1,0.2,3l2.9,5.6
		l57.3-29.4l-2.9-5.6C60.2,4,58.9,3.2,57.4,3.2z"/>
	<path class="st1" d="M15.5,39.1c-0.4,0-0.8-0.1-1.1-0.4L4.2,28.8c-0.6-0.6-0.7-1.6,0-2.3c0.6-0.6,1.6-0.7,2.3,0l10.2,9.8
		c0.6,0.6,0.7,1.6,0,2.3C16.4,38.9,15.9,39.1,15.5,39.1z"/>
	<path class="st1" d="M26.8,33.3c-0.4,0-0.8-0.1-1.1-0.4L15.4,23c-0.6-0.6-0.7-1.6,0-2.3c0.6-0.6,1.6-0.7,2.3,0l10.2,9.8
		c0.6,0.6,0.7,1.6,0,2.3C27.6,33.1,27.2,33.3,26.8,33.3z"/>
	<path class="st1" d="M38.1,27.5c-0.4,0-0.8-0.1-1.1-0.4l-10.2-9.8c-0.6-0.6-0.7-1.6,0-2.3c0.6-0.6,1.6-0.7,2.3,0l10.2,9.8
		c0.6,0.6,0.7,1.6,0,2.3C38.9,27.4,38.5,27.5,38.1,27.5z"/>
	<path class="st1" d="M49.3,21.7c-0.4,0-0.8-0.1-1.1-0.4L38,11.5c-0.6-0.6-0.7-1.6,0-2.3c0.6-0.6,1.6-0.7,2.3,0L50.4,19
		c0.6,0.6,0.7,1.6,0,2.3C50.2,21.6,49.8,21.7,49.3,21.7z"/>
	<path class="st1" d="M60.6,16c-0.4,0-0.8-0.1-1.1-0.4L49.3,5.7c-0.6-0.6-0.7-1.6,0-2.3c0.6-0.6,1.6-0.7,2.3,0l10.2,9.8
		c0.6,0.6,0.7,1.6,0,2.3C61.5,15.8,61,16,60.6,16z"/>
</g>
</svg>
