<?xml version="1.0" encoding="utf-8"?>
<!-- Generator: Adobe Illustrator 26.3.1, SVG Export Plug-In . SVG Version: 6.00 Build 0)  -->
<svg version="1.1" id="Camada_1" xmlns="http://www.w3.org/2000/svg" xmlns:xlink="http://www.w3.org/1999/xlink" x="0px" y="0px"
	 viewBox="0 0 15 15" style="enable-background:new 0 0 15 15;" xml:space="preserve">
<style type="text/css">
	.st0{fill:#B3B3B3;}
	.st1{fill:#BA225C;}
</style>
<g>
	<path class="st0" d="M12.86,15H2.88c-0.69,0-1.25-0.56-1.25-1.25V7.49c0-0.16,0.13-0.28,0.28-0.28h11.92
		c0.16,0,0.28,0.13,0.28,0.28v6.25C14.11,14.44,13.55,15,12.86,15z M2.19,7.77v5.97c0,0.38,0.31,0.69,0.69,0.69h9.98
		c0.38,0,0.69-0.31,0.69-0.69V7.77H2.19z"/>
	<path class="st0" d="M13.83,10.19H1.91c-0.16,0-0.28-0.13-0.28-0.28s0.13-0.28,0.28-0.28h11.92c0.16,0,0.28,0.13,0.28,0.28
		S13.99,10.19,13.83,10.19z"/>
	<path class="st0" d="M3.02,10.17c-0.03,0-0.06,0-0.09-0.02C2.78,10.1,2.7,9.94,2.75,9.79l0.82-2.37C3.62,7.28,3.78,7.2,3.93,7.25
		C4.07,7.3,4.15,7.46,4.1,7.61L3.29,9.98C3.24,10.09,3.14,10.17,3.02,10.17z"/>
	<path class="st0" d="M5.25,10.17c-0.03,0-0.06,0-0.09-0.02C5.02,10.1,4.94,9.94,4.99,9.79L5.8,7.42C5.85,7.28,6.01,7.2,6.16,7.25
		C6.31,7.3,6.39,7.46,6.34,7.61L5.52,9.98C5.48,10.09,5.37,10.17,5.25,10.17z"/>
	<path class="st0" d="M7.49,10.17c-0.03,0-0.06,0-0.09-0.02C7.25,10.1,7.17,9.94,7.22,9.79l0.82-2.37C8.09,7.28,8.25,7.2,8.4,7.25
		C8.54,7.3,8.62,7.46,8.57,7.61L7.76,9.98C7.71,10.09,7.61,10.17,7.49,10.17z"/>
	<path class="st0" d="M9.72,10.17c-0.03,0-0.06,0-0.09-0.02C9.49,10.1,9.41,9.94,9.46,9.79l0.82-2.37c0.05-0.15,0.21-0.23,0.36-0.17
		c0.15,0.05,0.23,0.21,0.17,0.36L9.99,9.98C9.95,10.09,9.84,10.17,9.72,10.17z"/>
	<path class="st0" d="M11.96,10.17c-0.03,0-0.06,0-0.09-0.02c-0.15-0.05-0.23-0.21-0.17-0.36l0.82-2.37
		c0.05-0.15,0.21-0.23,0.36-0.17c0.15,0.05,0.23,0.21,0.17,0.36l-0.82,2.37C12.19,10.09,12.08,10.17,11.96,10.17z"/>
	<path class="st1" d="M7.28,13.92c-0.05,0-0.09-0.01-0.13-0.03C7.05,13.84,7,13.74,7,13.64v-2.38c0-0.1,0.06-0.2,0.15-0.25
		s0.2-0.04,0.29,0.01l1.77,1.19c0.08,0.05,0.12,0.14,0.12,0.23c0,0.09-0.05,0.18-0.12,0.23l-1.77,1.19
		C7.39,13.91,7.33,13.92,7.28,13.92z M7.56,11.78v1.33l0.99-0.66L7.56,11.78z"/>
	<path class="st1" d="M1.91,7.77c-0.03,0-0.06,0-0.09-0.01C1.75,7.74,1.7,7.69,1.66,7.62L1.02,6.38c-0.15-0.3-0.18-0.64-0.08-0.96
		s0.32-0.58,0.62-0.73l8.88-4.55c0.62-0.32,1.37-0.07,1.69,0.54l0.64,1.24c0.03,0.07,0.04,0.14,0.02,0.21
		c-0.02,0.07-0.07,0.13-0.14,0.16L2.04,7.74C2,7.76,1.96,7.77,1.91,7.77z M11.02,0.56c-0.11,0-0.21,0.02-0.31,0.08L1.82,5.19
		c-0.16,0.08-0.29,0.23-0.34,0.4C1.43,5.77,1.44,5.96,1.53,6.12l0.51,0.99l10.11-5.18l-0.51-0.99C11.51,0.7,11.27,0.56,11.02,0.56z"
		/>
	<path class="st1" d="M3.62,6.9c-0.07,0-0.14-0.03-0.19-0.08L1.62,5.08C1.51,4.97,1.5,4.8,1.61,4.68c0.11-0.11,0.29-0.12,0.4-0.01
		l1.81,1.74c0.11,0.11,0.12,0.29,0.01,0.4C3.77,6.87,3.7,6.9,3.62,6.9z"/>
	<path class="st1" d="M5.61,5.88c-0.07,0-0.14-0.03-0.19-0.08L3.61,4.06C3.5,3.95,3.49,3.78,3.6,3.66C3.71,3.55,3.89,3.55,4,3.66
		l1.81,1.74c0.11,0.11,0.12,0.29,0.01,0.4C5.76,5.85,5.69,5.88,5.61,5.88z"/>
	<path class="st1" d="M7.6,4.86c-0.07,0-0.14-0.03-0.19-0.08L5.6,3.04c-0.11-0.11-0.12-0.29-0.01-0.4c0.11-0.11,0.29-0.12,0.4-0.01
		l1.81,1.74c0.11,0.11,0.12,0.29,0.01,0.4C7.75,4.83,7.67,4.86,7.6,4.86z"/>
	<path class="st1" d="M9.59,3.84c-0.07,0-0.14-0.03-0.19-0.08L7.59,2.02c-0.11-0.11-0.12-0.29-0.01-0.4
		c0.11-0.11,0.29-0.12,0.4-0.01l1.81,1.74C9.9,3.46,9.9,3.64,9.79,3.75C9.74,3.81,9.66,3.84,9.59,3.84z"/>
</g>
</svg>
