<?xml version="1.0" encoding="utf-8"?>
<!-- Generator: Adobe Illustrator 26.3.1, SVG Export Plug-In . SVG Version: 6.00 Build 0)  -->
<svg version="1.1" id="Camada_1" xmlns="http://www.w3.org/2000/svg" xmlns:xlink="http://www.w3.org/1999/xlink" x="0px" y="0px"
	 viewBox="0 0 75 85" style="enable-background:new 0 0 75 85;" xml:space="preserve">
<style type="text/css">
	.st0{fill:#B3B3B3;}
	.st1{fill:#BA225C;}
</style>
<g>
	<g>
		<path class="st0" d="M48.3,28.6H26.7c-2.7,0-5,2.2-5,5v16.3c0,0.3,0,0.7,0.1,1c0.1,0.7,0.8,1.1,1.5,1c0.7-0.1,1.1-0.8,1-1.5
			c0-0.2,0-0.3,0-0.5V33.6c0-1.4,1.1-2.5,2.5-2.5h21.6c1.4,0,2.5,1.1,2.5,2.5v16.3c0,1.4-1.1,2.5-2.5,2.5H29.9
			c-0.7,0-1.2,0.6-1.2,1.2c0,0.7,0.6,1.2,1.2,1.2h18.4c2.7,0,5-2.2,5-5V33.6C53.3,30.8,51,28.6,48.3,28.6z"/>
		<path class="st0" d="M66.4,4.3c0-0.7-0.6-1.2-1.2-1.2H9.8c-0.7,0-1.2,0.6-1.2,1.2v8.3c0,0,0,0,0,0c0,0,0,0,0,0c0,0,0,0.1,0,0.1
			c0,0,0,0,0,0c0,0,0,0.1,0,0.1c0,0,0,0,0,0c0,0,0,0.1,0.1,0.1c0,0,0,0,0,0c0,0,0,0.1,0.1,0.1c0,0,0,0,0,0l6.7,10.8v35.3L8.8,70.1
			c0,0,0,0,0,0c0,0,0,0.1-0.1,0.1c0,0,0,0,0,0c0,0,0,0.1-0.1,0.1c0,0,0,0,0,0c0,0,0,0.1,0,0.1c0,0,0,0,0,0c0,0,0,0.1,0,0.1
			c0,0,0,0,0,0c0,0,0,0,0,0v11.1c0,0.7,0.6,1.2,1.2,1.2h55.4c0.7,0,1.2-0.6,1.2-1.2V70.8c0,0,0,0,0,0c0,0,0,0,0,0c0,0,0-0.1,0-0.1
			c0,0,0,0,0,0c0,0,0-0.1,0-0.1c0,0,0,0,0,0c0,0,0-0.1-0.1-0.1c0,0,0,0,0,0c0,0,0-0.1-0.1-0.1c0,0,0,0,0,0l-6.7-10.8V24.1l6.7-10.8
			c0,0,0,0,0,0c0,0,0-0.1,0.1-0.1c0,0,0,0,0,0c0,0,0-0.1,0.1-0.1c0,0,0,0,0,0c0,0,0-0.1,0-0.1c0,0,0,0,0,0c0,0,0-0.1,0-0.1
			c0,0,0,0,0,0c0,0,0,0,0,0L66.4,4.3L66.4,4.3z M63.9,5.6v5.8H11.1V5.6H63.9z M11.1,80.6V72h52.9v8.6H11.1z M12.1,69.5l5.4-8.6h40.1
			l5.4,8.6H12.1z M18,58.5V25h39v33.5H18z M57.6,22.5H17.4l-5.4-8.6h50.9L57.6,22.5z"/>
		<path class="st0" d="M56.2,75.1h-5.4c-0.7,0-1.2,0.6-1.2,1.2s0.6,1.2,1.2,1.2h5.4c0.7,0,1.2-0.6,1.2-1.2S56.9,75.1,56.2,75.1z"/>
	</g>
	<g>
		<path class="st1" d="M41.5,64h-0.9c-0.7,0-1.2,0.6-1.2,1.2c0,0.7,0.6,1.2,1.2,1.2h0.9c0.7,0,1.2-0.6,1.2-1.2
			C42.7,64.5,42.2,64,41.5,64z"/>
		<path class="st1" d="M47.6,64h-0.9c-0.7,0-1.2,0.6-1.2,1.2c0,0.7,0.6,1.2,1.2,1.2h0.9c0.7,0,1.2-0.6,1.2-1.2
			C48.9,64.5,48.3,64,47.6,64z"/>
		<path class="st1" d="M53.8,64H53c-0.7,0-1.2,0.6-1.2,1.2c0,0.7,0.6,1.2,1.2,1.2h0.9c0.7,0,1.2-0.6,1.2-1.2
			C55.1,64.5,54.5,64,53.8,64z"/>
		<path class="st1" d="M46.1,32.6h-2.3c-0.7,0-1.2,0.6-1.2,1.2c0,0.7,0.6,1.2,1.2,1.2h2.3c0.3,0,0.6,0.3,0.6,0.6V38
			c0,0.7,0.6,1.2,1.2,1.2c0.7,0,1.2-0.6,1.2-1.2v-2.3C49.1,34,47.7,32.6,46.1,32.6z"/>
		<path class="st1" d="M25.8,48.3c-0.6,0-1.1,0.1-1.6,0.2c-1,0.3-1.8,0.9-2.5,1.7c-0.8,0.9-1.3,2.1-1.3,3.4c0,2.2,1.3,4,3.2,4.9
			c0.3,0.1,0.6,0.2,0.9,0.3V64h-0.8c-0.7,0-1.2,0.6-1.2,1.2c0,0.7,0.6,1.2,1.2,1.2h2c0,0,0,0,0,0s0,0,0,0h2c0.7,0,1.2-0.6,1.2-1.2
			c0-0.7-0.6-1.2-1.2-1.2h-0.8v-5.2c0.3-0.1,0.6-0.2,0.9-0.3c1.5-0.7,2.7-2,3-3.6c0.1-0.4,0.1-0.8,0.1-1.2c0-0.4-0.1-0.9-0.2-1.3
			C30.4,50,28.3,48.3,25.8,48.3z M28.6,53.6c0,1.4-1,2.5-2.2,2.8c-0.2,0-0.4,0.1-0.6,0.1c-0.2,0-0.4,0-0.6-0.1
			c-1.3-0.3-2.2-1.4-2.2-2.8c0-1.6,1.3-2.8,2.8-2.8C27.4,50.7,28.6,52,28.6,53.6L28.6,53.6L28.6,53.6z"/>
	</g>
</g>
</svg>
