<?xml version="1.0" encoding="utf-8"?>
<!-- Generator: Adobe Illustrator 26.3.1, SVG Export Plug-In . SVG Version: 6.00 Build 0)  -->
<svg version="1.1" id="Camada_1" xmlns="http://www.w3.org/2000/svg" xmlns:xlink="http://www.w3.org/1999/xlink" x="0px" y="0px"
	 viewBox="0 0 15 15" style="enable-background:new 0 0 15 15;" xml:space="preserve">
<style type="text/css">
	.st0{fill:#B3B3B3;}
	.st1{fill:#BA225C;}
</style>
<g>
	<g>
		<path class="st0" d="M9.5,4.8h-4C5,4.8,4.5,5.2,4.5,5.7v3.1c0,0.1,0,0.1,0,0.2c0,0.1,0.2,0.2,0.3,0.2C5,9.1,5,9,5,8.9
			c0,0,0-0.1,0-0.1V5.7c0-0.3,0.2-0.5,0.5-0.5h4c0.3,0,0.5,0.2,0.5,0.5v3.1C10,9,9.8,9.2,9.5,9.2H6.1c-0.1,0-0.2,0.1-0.2,0.2
			c0,0.1,0.1,0.2,0.2,0.2h3.5c0.5,0,0.9-0.4,0.9-0.9V5.7C10.5,5.2,10,4.8,9.5,4.8z"/>
		<path class="st0" d="M12.9,0.2c0-0.1-0.1-0.2-0.2-0.2H2.3C2.2,0,2.1,0.1,2.1,0.2v1.6c0,0,0,0,0,0c0,0,0,0,0,0c0,0,0,0,0,0
			c0,0,0,0,0,0c0,0,0,0,0,0c0,0,0,0,0,0c0,0,0,0,0,0c0,0,0,0,0,0c0,0,0,0,0,0c0,0,0,0,0,0l1.3,2v6.6l-1.3,2c0,0,0,0,0,0c0,0,0,0,0,0
			c0,0,0,0,0,0c0,0,0,0,0,0c0,0,0,0,0,0c0,0,0,0,0,0c0,0,0,0,0,0c0,0,0,0,0,0c0,0,0,0,0,0c0,0,0,0,0,0v2.1c0,0.1,0.1,0.2,0.2,0.2
			h10.4c0.1,0,0.2-0.1,0.2-0.2v-2.1c0,0,0,0,0,0c0,0,0,0,0,0c0,0,0,0,0,0c0,0,0,0,0,0c0,0,0,0,0,0c0,0,0,0,0,0c0,0,0,0,0,0
			c0,0,0,0,0,0c0,0,0,0,0,0c0,0,0,0,0,0l-1.3-2V3.9l1.3-2c0,0,0,0,0,0c0,0,0,0,0,0c0,0,0,0,0,0c0,0,0,0,0,0c0,0,0,0,0,0c0,0,0,0,0,0
			c0,0,0,0,0,0c0,0,0,0,0,0c0,0,0,0,0,0c0,0,0,0,0,0L12.9,0.2L12.9,0.2z M12.5,0.5v1.1H2.5V0.5H12.5z M2.5,14.5v-1.6h9.9v1.6H2.5z
			 M2.7,12.5l1-1.6h7.5l1,1.6H2.7z M3.8,10.4V4.1h7.3v6.3H3.8z M11.3,3.6H3.7L2.7,2h9.5L11.3,3.6z"/>
		<path class="st0" d="M11,13.5h-1c-0.1,0-0.2,0.1-0.2,0.2c0,0.1,0.1,0.2,0.2,0.2h1c0.1,0,0.2-0.1,0.2-0.2
			C11.2,13.6,11.1,13.5,11,13.5z"/>
	</g>
	<g>
		<path class="st1" d="M8.2,11.4H8.1c-0.1,0-0.2,0.1-0.2,0.2c0,0.1,0.1,0.2,0.2,0.2h0.2c0.1,0,0.2-0.1,0.2-0.2
			C8.5,11.5,8.4,11.4,8.2,11.4z"/>
		<path class="st1" d="M9.4,11.4H9.2c-0.1,0-0.2,0.1-0.2,0.2c0,0.1,0.1,0.2,0.2,0.2h0.2c0.1,0,0.2-0.1,0.2-0.2
			C9.6,11.5,9.5,11.4,9.4,11.4z"/>
		<path class="st1" d="M10.6,11.4h-0.2c-0.1,0-0.2,0.1-0.2,0.2c0,0.1,0.1,0.2,0.2,0.2h0.2c0.1,0,0.2-0.1,0.2-0.2
			C10.8,11.5,10.7,11.4,10.6,11.4z"/>
		<path class="st1" d="M9.1,5.5H8.7c-0.1,0-0.2,0.1-0.2,0.2S8.6,6,8.7,6h0.4c0.1,0,0.1,0,0.1,0.1v0.4c0,0.1,0.1,0.2,0.2,0.2
			c0.1,0,0.2-0.1,0.2-0.2V6.1C9.7,5.8,9.4,5.5,9.1,5.5z"/>
		<path class="st1" d="M5.3,8.5c-0.1,0-0.2,0-0.3,0C4.8,8.6,4.7,8.7,4.5,8.8C4.4,9,4.3,9.2,4.3,9.5c0,0.4,0.2,0.8,0.6,0.9
			c0.1,0,0.1,0,0.2,0.1v1H4.9c-0.1,0-0.2,0.1-0.2,0.2c0,0.1,0.1,0.2,0.2,0.2h0.4c0,0,0,0,0,0c0,0,0,0,0,0h0.4c0.1,0,0.2-0.1,0.2-0.2
			c0-0.1-0.1-0.2-0.2-0.2H5.5v-1c0.1,0,0.1,0,0.2-0.1C6,10.3,6.2,10,6.3,9.7c0-0.1,0-0.2,0-0.2c0-0.1,0-0.2,0-0.2
			C6.2,8.8,5.8,8.5,5.3,8.5z M5.8,9.5c0,0.3-0.2,0.5-0.4,0.5c0,0-0.1,0-0.1,0c0,0-0.1,0-0.1,0C5,9.9,4.8,9.7,4.8,9.5
			c0-0.3,0.2-0.5,0.5-0.5C5.6,8.9,5.8,9.2,5.8,9.5L5.8,9.5L5.8,9.5z"/>
	</g>
</g>
</svg>
