<?xml version="1.0" encoding="utf-8"?>
<!-- Generator: Adobe Illustrator 26.3.1, SVG Export Plug-In . SVG Version: 6.00 Build 0)  -->
<svg version="1.1" id="Camada_1" xmlns="http://www.w3.org/2000/svg" xmlns:xlink="http://www.w3.org/1999/xlink" x="0px" y="0px"
	 viewBox="0 0 75 85" style="enable-background:new 0 0 75 85;" xml:space="preserve">
<style type="text/css">
	.st0{fill:#BA225C;}
	.st1{fill:#CCCCCC;}
	.st2{fill:#121331;}
</style>
<g>
	<path class="st0" d="M11.4,50.6h-6c-0.6,0-1-0.4-1-1V38.2c0-0.6,0.4-1,1-1h6c0.6,0,1,0.4,1,1c0,0.6-0.4,1-1,1h-5v9.4h5
		c0.6,0,1,0.4,1,1C12.4,50.2,12,50.6,11.4,50.6z"/>
	<path class="st0" d="M67,47.8h-5.4c-0.6,0-1-0.4-1-1v-4.7c0-0.6,0.4-1,1-1c0.6,0,1,0.4,1,1v3.7H67c0.6,0,1,0.4,1,1
		C68,47.3,67.6,47.8,67,47.8z"/>
	<path class="st1" d="M18.3,52.4h-6.9c-0.6,0-1-0.4-1-1c0-0.6,0.4-1,1-1h6.9c0.6,0,1,0.4,1,1C19.3,52,18.9,52.4,18.3,52.4z"/>
	<path class="st1" d="M67.7,52.4h-7.3c-0.6,0-1-0.4-1-1c0-0.6,0.4-1,1-1h7.3c0.6,0,1,0.4,1,1C68.7,52,68.3,52.4,67.7,52.4z"/>
	<path class="st1" d="M51,52.4H27.7c-0.6,0-1-0.4-1-1c0-0.6,0.4-1,1-1H51c0.6,0,1,0.4,1,1C52,52,51.5,52.4,51,52.4z"/>
	<path class="st2" d="M48.8,57.5h-9.9c-0.6,0-1-0.4-1-1s0.4-1,1-1h9.9c0.6,0,1,0.4,1,1S49.3,57.5,48.8,57.5z"/>
	<path class="st1" d="M68.5,57.5h-5.9c-0.6,0-1-0.4-1-1s0.4-1,1-1h4.7l-1.6-10.3c0,0,0,0,0,0c-0.2-1.2-1-2.1-2.1-2.1H48.4
		c-0.4,0-0.8-0.3-0.9-0.7l-3.4-9.7c0,0,0,0,0-0.1c-0.3-1.2-1.4-2-2.6-2h-29l0,23.2c0,0,0,0.1,0,0.1c0,0.4,0.1,0.8,0.4,1.1
		c0.3,0.3,0.7,0.5,1.1,0.5h2.2c0.6,0,1,0.4,1,1s-0.4,1-1,1h-2.2c-1,0-1.9-0.4-2.6-1.1c-0.6-0.7-0.9-1.7-0.9-2.6l0-24.2
		c0-0.3,0.1-0.5,0.3-0.7c0.2-0.2,0.4-0.3,0.7-0.3h30c2.1,0,4,1.4,4.6,3.5l3.1,9h14.5c2,0,3.8,1.7,4,3.8l1.7,11.5
		c0,0.3,0,0.6-0.2,0.8C69.1,57.4,68.8,57.5,68.5,57.5z"/>
	<path class="st1" d="M48.8,57.5H29.9c-0.6,0-1-0.4-1-1s0.4-1,1-1h18.8c0.6,0,1,0.4,1,1S49.3,57.5,48.8,57.5z"/>
	<path class="st1" d="M23,64.5c-4.4,0-7.9-3.6-7.9-7.9s3.6-7.9,7.9-7.9s7.9,3.6,7.9,7.9S27.4,64.5,23,64.5z M23,50.6
		c-3.3,0-5.9,2.7-5.9,5.9s2.7,5.9,5.9,5.9c3.3,0,5.9-2.7,5.9-5.9S26.3,50.6,23,50.6z"/>
	<path class="st1" d="M55.7,64.5c-4.4,0-7.9-3.6-7.9-7.9s3.6-7.9,7.9-7.9s7.9,3.6,7.9,7.9S60.1,64.5,55.7,64.5z M55.7,50.6
		c-3.3,0-5.9,2.7-5.9,5.9s2.7,5.9,5.9,5.9s5.9-2.7,5.9-5.9S59,50.6,55.7,50.6z"/>
	<path class="st1" d="M48.4,43.1h-37c-0.6,0-1-0.4-1-1s0.4-1,1-1h37c0.6,0,1,0.4,1,1S49,43.1,48.4,43.1z"/>
	<path class="st1" d="M36.1,43.1c-0.6,0-1-0.4-1-1V29.6c0-0.6,0.4-1,1-1c0.6,0,1,0.4,1,1v12.5C37.1,42.6,36.7,43.1,36.1,43.1z"/>
	<path class="st1" d="M23.8,43.1c-0.6,0-1-0.4-1-1V29.6c0-0.6,0.4-1,1-1s1,0.4,1,1v12.5C24.8,42.6,24.3,43.1,23.8,43.1z"/>
	<path class="st0" d="M23,57.5L23,57.5c-0.6,0-1-0.4-1-1s0.4-1,1-1h0c0.6,0,1,0.4,1,1S23.6,57.5,23,57.5z"/>
	<path class="st0" d="M55.7,57.5L55.7,57.5c-0.6,0-1-0.4-1-1s0.4-1,1-1h0c0.6,0,1,0.4,1,1S56.2,57.5,55.7,57.5z"/>
	<path class="st0" d="M37.9,47.2h-4.1c-0.6,0-1-0.4-1-1c0-0.6,0.4-1,1-1h4.1c0.6,0,1,0.4,1,1C38.9,46.7,38.4,47.2,37.9,47.2z"/>
	<path class="st1" d="M39.5,30.6c-0.4,0-0.8-0.2-0.9-0.6L35.4,22c-0.2-0.5,0-1.1,0.6-1.3c0.5-0.2,1.1,0,1.3,0.6l3.2,7.9
		c0.2,0.5,0,1.1-0.6,1.3C39.8,30.6,39.6,30.6,39.5,30.6z"/>
	<path class="st1" d="M18,30.6c-0.4,0-0.8-0.2-0.9-0.6L13.9,22c-0.2-0.5,0-1.1,0.6-1.3c0.5-0.2,1.1,0,1.3,0.6l3.2,7.9
		c0.2,0.5,0,1.1-0.6,1.3C18.2,30.6,18.1,30.6,18,30.6z"/>
	<path class="st0" d="M43.8,22.7h-33c-0.6,0-1-0.4-1-1s0.4-1,1-1h33c0.6,0,1,0.4,1,1S44.4,22.7,43.8,22.7z"/>
</g>
</svg>
