<?xml version="1.0" encoding="utf-8"?>
<!-- Generator: Adobe Illustrator 26.3.1, SVG Export Plug-In . SVG Version: 6.00 Build 0)  -->
<svg version="1.1" id="Camada_1" xmlns="http://www.w3.org/2000/svg" xmlns:xlink="http://www.w3.org/1999/xlink" x="0px" y="0px"
	 viewBox="0 0 15 15" style="enable-background:new 0 0 15 15;" xml:space="preserve">
<style type="text/css">
	.st0{fill:#BA225C;}
	.st1{fill:#CCCCCC;}
	.st2{fill:#121331;}
</style>
<g>
	<path class="st0" d="M1.6,9.4H0.2C0.1,9.4,0,9.3,0,9.1V6.5c0-0.1,0.1-0.2,0.2-0.2h1.4c0.1,0,0.2,0.1,0.2,0.2c0,0.1-0.1,0.2-0.2,0.2
		H0.5v2.2h1.1c0.1,0,0.2,0.1,0.2,0.2C1.8,9.3,1.7,9.4,1.6,9.4z"/>
	<path class="st0" d="M14.4,8.7h-1.2c-0.1,0-0.2-0.1-0.2-0.2V7.4c0-0.1,0.1-0.2,0.2-0.2s0.2,0.1,0.2,0.2v0.9h1
		c0.1,0,0.2,0.1,0.2,0.2S14.6,8.7,14.4,8.7z"/>
	<path class="st1" d="M3.2,9.8H1.6c-0.1,0-0.2-0.1-0.2-0.2c0-0.1,0.1-0.2,0.2-0.2h1.6c0.1,0,0.2,0.1,0.2,0.2
		C3.4,9.7,3.3,9.8,3.2,9.8z"/>
	<path class="st1" d="M14.6,9.8h-1.7c-0.1,0-0.2-0.1-0.2-0.2c0-0.1,0.1-0.2,0.2-0.2h1.7c0.1,0,0.2,0.1,0.2,0.2
		C14.8,9.7,14.7,9.8,14.6,9.8z"/>
	<path class="st1" d="M10.7,9.8H5.4c-0.1,0-0.2-0.1-0.2-0.2c0-0.1,0.1-0.2,0.2-0.2h5.4c0.1,0,0.2,0.1,0.2,0.2
		C11,9.7,10.9,9.8,10.7,9.8z"/>
	<path class="st2" d="M10.2,11H7.9c-0.1,0-0.2-0.1-0.2-0.2c0-0.1,0.1-0.2,0.2-0.2h2.3c0.1,0,0.2,0.1,0.2,0.2
		C10.4,10.9,10.3,11,10.2,11z"/>
	<path class="st1" d="M14.8,11h-1.4c-0.1,0-0.2-0.1-0.2-0.2c0-0.1,0.1-0.2,0.2-0.2h1.1l-0.4-2.4c0,0,0,0,0,0c0-0.3-0.2-0.5-0.5-0.5
		h-3.5C10,7.6,10,7.6,9.9,7.5L9.2,5.2c0,0,0,0,0,0C9.1,4.9,8.8,4.7,8.5,4.7H1.8l0,5.4c0,0,0,0,0,0c0,0.1,0,0.2,0.1,0.3
		c0.1,0.1,0.2,0.1,0.2,0.1h0.5c0.1,0,0.2,0.1,0.2,0.2c0,0.1-0.1,0.2-0.2,0.2H2.2c-0.2,0-0.4-0.1-0.6-0.3c-0.1-0.2-0.2-0.4-0.2-0.6
		l0-5.6c0-0.1,0-0.1,0.1-0.2c0,0,0.1-0.1,0.2-0.1h6.9c0.5,0,0.9,0.3,1.1,0.8l0.7,2.1h3.4c0.5,0,0.9,0.4,0.9,0.9l0.4,2.7
		c0,0.1,0,0.1-0.1,0.2C14.9,10.9,14.8,11,14.8,11z"/>
	<path class="st1" d="M10.2,11H5.9c-0.1,0-0.2-0.1-0.2-0.2c0-0.1,0.1-0.2,0.2-0.2h4.3c0.1,0,0.2,0.1,0.2,0.2
		C10.4,10.9,10.3,11,10.2,11z"/>
	<path class="st1" d="M4.3,12.6c-1,0-1.8-0.8-1.8-1.8s0.8-1.8,1.8-1.8s1.8,0.8,1.8,1.8S5.3,12.6,4.3,12.6z M4.3,9.4
		c-0.8,0-1.4,0.6-1.4,1.4s0.6,1.4,1.4,1.4c0.8,0,1.4-0.6,1.4-1.4S5,9.4,4.3,9.4z"/>
	<path class="st1" d="M11.8,12.6c-1,0-1.8-0.8-1.8-1.8s0.8-1.8,1.8-1.8s1.8,0.8,1.8,1.8S12.8,12.6,11.8,12.6z M11.8,9.4
		c-0.8,0-1.4,0.6-1.4,1.4s0.6,1.4,1.4,1.4c0.8,0,1.4-0.6,1.4-1.4S12.6,9.4,11.8,9.4z"/>
	<path class="st1" d="M10.1,7.6H1.6c-0.1,0-0.2-0.1-0.2-0.2s0.1-0.2,0.2-0.2h8.5c0.1,0,0.2,0.1,0.2,0.2S10.3,7.6,10.1,7.6z"/>
	<path class="st1" d="M7.3,7.6c-0.1,0-0.2-0.1-0.2-0.2V4.5c0-0.1,0.1-0.2,0.2-0.2c0.1,0,0.2,0.1,0.2,0.2v2.9
		C7.5,7.5,7.4,7.6,7.3,7.6z"/>
	<path class="st1" d="M4.5,7.6c-0.1,0-0.2-0.1-0.2-0.2V4.5c0-0.1,0.1-0.2,0.2-0.2s0.2,0.1,0.2,0.2v2.9C4.7,7.5,4.6,7.6,4.5,7.6z"/>
	<path class="st0" d="M4.3,11L4.3,11C4.1,11,4,10.9,4,10.7c0-0.1,0.1-0.2,0.2-0.2h0c0.1,0,0.2,0.1,0.2,0.2C4.5,10.9,4.4,11,4.3,11z"
		/>
	<path class="st0" d="M11.8,11L11.8,11c-0.1,0-0.2-0.1-0.2-0.2c0-0.1,0.1-0.2,0.2-0.2h0c0.1,0,0.2,0.1,0.2,0.2
		C12,10.9,11.9,11,11.8,11z"/>
	<path class="st0" d="M7.7,8.6H6.8c-0.1,0-0.2-0.1-0.2-0.2s0.1-0.2,0.2-0.2h0.9c0.1,0,0.2,0.1,0.2,0.2S7.8,8.6,7.7,8.6z"/>
	<path class="st1" d="M8.1,4.7C8,4.7,7.9,4.7,7.9,4.6L7.1,2.8c0-0.1,0-0.3,0.1-0.3c0.1,0,0.3,0,0.3,0.1l0.7,1.8
		C8.3,4.5,8.3,4.7,8.1,4.7C8.1,4.7,8.1,4.7,8.1,4.7z"/>
	<path class="st1" d="M3.1,4.7C3,4.7,2.9,4.7,2.9,4.6L2.2,2.8c0-0.1,0-0.3,0.1-0.3c0.1,0,0.3,0,0.3,0.1l0.7,1.8
		C3.4,4.5,3.3,4.7,3.1,4.7C3.2,4.7,3.1,4.7,3.1,4.7z"/>
	<path class="st0" d="M9.1,2.9H1.5c-0.1,0-0.2-0.1-0.2-0.2s0.1-0.2,0.2-0.2h7.6c0.1,0,0.2,0.1,0.2,0.2S9.2,2.9,9.1,2.9z"/>
</g>
</svg>
