<?xml version="1.0" encoding="utf-8"?>
<!-- Generator: Adobe Illustrator 26.3.1, SVG Export Plug-In . SVG Version: 6.00 Build 0)  -->
<svg version="1.1" id="Camada_1" xmlns="http://www.w3.org/2000/svg" xmlns:xlink="http://www.w3.org/1999/xlink" x="0px" y="0px"
	 viewBox="0 0 85.2 85" style="enable-background:new 0 0 85.2 85;" xml:space="preserve">
<style type="text/css">
	.st0{fill:#BA225C;}
	.st1{fill:#CCCCCC;}
</style>
<g>
	<g>
		<path class="st0" d="M52,30c-0.5-0.5-1.3-0.7-2-0.6l-4.7,0.9c-0.7,0.1-1.1,0.8-1,1.5c0.1,0.7,0.8,1.1,1.5,1l4.5-0.9l-1,9.7l-4,0.8
			c-0.7,0.1-1.1,0.8-1,1.5c0.1,0.6,0.6,1,1.2,1c0.1,0,0.2,0,0.2,0l4.1-0.8c1-0.2,1.7-1,1.8-2l1-10.1C52.8,31.2,52.6,30.5,52,30z"/>
		<path class="st0" d="M29.3,41.7c-0.4-0.6-1.1-0.9-1.9-0.9l0,0c-0.7,0-1.4,0.3-1.9,0.9l-6.1,8.2c-0.6,0.8-0.6,1.9,0,2.8l6.1,8.2
			l0,0c0.4,0.6,1.1,0.9,1.9,0.9s1.4-0.3,1.9-0.9l6.1-8.2c0.6-0.8,0.6-1.9,0-2.8L29.3,41.7z M27.5,59.1l-5.8-7.8l5.8-7.8l5.8,7.8
			L27.5,59.1z"/>
	</g>
	<g>
		<path class="st1" d="M75.8,26.9L52.8,6c-0.7-0.7-1.7-1-2.7-1c-1,0-1.9,0.5-2.6,1.2L32.8,22.4H11.9c-2.1,0-3.8,1.7-3.8,3.8v50.1
			c0,2.1,1.7,3.8,3.8,3.8H43c2.1,0,3.8-1.7,3.8-3.8V64.5l29.3-32.3C77.5,30.7,77.4,28.3,75.8,26.9z M44.3,76.3
			c0,0.7-0.6,1.3-1.3,1.3H11.9c-0.7,0-1.3-0.6-1.3-1.3V26.2c0-0.7,0.6-1.3,1.3-1.3H43c0.7,0,1.3,0.6,1.3,1.3L44.3,76.3L44.3,76.3z
			 M74.2,30.5L46.8,60.8V26.2c0-2.1-1.7-3.8-3.8-3.8h-6.8L49.4,7.9c0.2-0.2,0.5-0.4,0.9-0.4c0.3,0,0.7,0.1,0.9,0.3l23,20.9
			C74.7,29.2,74.7,30,74.2,30.5z"/>
		<path class="st1" d="M52,12.3c-0.5-0.4-1.3-0.4-1.7,0l-3.2,3.1c0,0,0,0,0,0c-0.1,0.1-0.1,0.1-0.2,0.2c0,0,0,0,0,0
			c0,0.1-0.1,0.1-0.1,0.2c0,0,0,0,0,0c-0.1,0.1-0.1,0.3-0.1,0.5c0,0,0,0,0,0c0,0,0,0.1,0,0.1c0,0,0,0.1,0,0.1c0,0,0,0,0,0
			c0,0.1,0,0.1,0.1,0.2c0,0,0,0,0,0c0,0.1,0.1,0.1,0.1,0.2c0,0,0,0,0,0c0,0.1,0.1,0.1,0.2,0.2c0,0,0,0,0,0l0,0
			c0.3,0.3,0.6,0.4,1,0.4s0.8,0.1,1.1,0.4c0.3,0.3,0.4,0.6,0.5,1c0,0.4-0.1,0.7-0.4,1c-0.3,0.3-0.6,0.4-1,0.5s-0.7-0.1-1-0.4
			c-0.3-0.3-0.5-0.6-0.5-1c0-0.7-0.5-1.3-1.2-1.3c-0.7,0-1.3,0.5-1.3,1.2c0,1.1,0.5,2.2,1.3,2.9c0.7,0.7,1.6,1,2.6,1
			c0.1,0,0.1,0,0.2,0c1-0.1,2-0.5,2.7-1.3s1.1-1.8,1-2.8c-0.1-1-0.5-2-1.3-2.7c-0.2-0.1-0.3-0.3-0.5-0.4l0.8-0.8l2.2,2
			c0.5,0.5,1.3,0.4,1.8-0.1c0.5-0.5,0.4-1.3-0.1-1.8L52,12.3z"/>
		<path class="st1" d="M19.8,36.5h-2.6l2.7-3.2c0,0,0,0,0,0c0.5-0.6,0.7-1.3,0.7-2.1c0-1.9-1.6-3.5-3.5-3.5s-3.5,1.6-3.5,3.5
			c0,0.7,0.6,1.3,1.3,1.3s1.3-0.6,1.3-1.3c0-0.5,0.4-1,0.9-1c0.5,0,1,0.4,1,1c0,0.3-0.1,0.4-0.2,0.6L13.5,37
			c-0.3,0.4-0.4,0.9-0.2,1.3S14,39,14.5,39h5.3c0.7,0,1.3-0.6,1.3-1.3C21,37.1,20.5,36.5,19.8,36.5z"/>
		<path class="st1" d="M40.2,63.4h-5.3c-0.7,0-1.3,0.6-1.3,1.3c0,0.7,0.6,1.3,1.3,1.3h2.6l-2.7,3.2c0,0,0,0,0,0
			c-0.5,0.6-0.7,1.3-0.7,2.1c0,1.9,1.6,3.5,3.5,3.5s3.5-1.6,3.5-3.5c0-0.7-0.6-1.3-1.3-1.3c-0.7,0-1.3,0.6-1.3,1.3
			c0,0.5-0.4,1-0.9,1s-1-0.4-1-1c0-0.3,0.1-0.4,0.2-0.6l4.4-5.3c0.3-0.4,0.4-0.9,0.2-1.3C41.1,63.7,40.7,63.4,40.2,63.4z"/>
	</g>
</g>
</svg>
