<?xml version="1.0" encoding="utf-8"?>
<!-- Generator: Adobe Illustrator 26.3.1, SVG Export Plug-In . SVG Version: 6.00 Build 0)  -->
<svg version="1.1" id="Camada_1" xmlns="http://www.w3.org/2000/svg" xmlns:xlink="http://www.w3.org/1999/xlink" x="0px" y="0px"
	 viewBox="0 0 15 15" style="enable-background:new 0 0 15 15;" xml:space="preserve">
<style type="text/css">
	.st0{fill:#B3B3B3;}
	.st1{fill:#BA225C;}
</style>
<g>
	<path class="st0" d="M6.9,7.8c0,0-0.1,0-0.1,0L0.7,3c-0.1-0.1-0.1-0.2,0-0.3c0,0,1.1-1.4,1.3-1.6C2,1,2.1,1,2.2,1
		c0.2,0,0.3,0.1,0.4,0.2c0.2,0.3,0.2,0.8,0.2,1c1.5,1.1,4.3,3.3,4.4,3.3c0.1,0.1,0.1,0.2,0,0.3C7.1,6,6.9,6,6.8,5.9
		c0,0-3-2.3-4.5-3.4C2.3,2.5,2.3,2.4,2.3,2.3c0-0.2,0.1-0.7-0.1-0.8c0,0,0,0,0,0c-0.2,0.3-0.8,1-1,1.3l5.9,4.6
		c0.1,0.1,0.1,0.2,0,0.3C7.1,7.7,7,7.8,6.9,7.8z"/>
	<path class="st0" d="M9,15h-2c-0.1,0-0.2-0.1-0.2-0.2l0-7.2c0-0.1,0.1-0.2,0.2-0.2s0.2,0.1,0.2,0.2l0,7h1.6c0,0,0,0,0,0
		c-0.1-0.2-0.4-0.4-0.6-0.5c-0.1,0-0.1-0.1-0.1-0.2l0-2.6l0.1-3c0-0.1,0.1-0.2,0.2-0.2c0,0,0,0,0,0c0.1,0,0.2,0.1,0.2,0.2l-0.1,3
		l0,2.5c0.2,0.1,0.6,0.4,0.7,0.8c0,0.2,0,0.3-0.1,0.5C9.1,15,9,15,9,15z"/>
	<path class="st0" d="M12.8,5.8c-0.4,0-0.7-0.2-0.9-0.6l0,0l-0.3-0.6c-0.1-0.2,0-0.5,0.2-0.6l1-0.5c0.5-0.3,1.1,0,1.4,0.5L14.2,4
		c0.1,0.2,0.1,0.5,0.1,0.8c-0.1,0.3-0.3,0.5-0.5,0.6l-0.5,0.2C13.1,5.7,13,5.8,12.8,5.8z M12.3,5c0.1,0.3,0.5,0.4,0.8,0.3L13.6,5
		c0.1-0.1,0.2-0.2,0.3-0.3s0-0.3,0-0.4l-0.1-0.1c-0.1-0.1-0.2-0.2-0.3-0.3c-0.1,0-0.3,0-0.4,0l-1,0.5c0,0,0,0,0,0c0,0,0,0,0,0
		L12.3,5z"/>
	<path class="st1" d="M8.4,8.4c-0.1,0-0.2,0-0.2-0.1L6.8,5.9c0-0.1,0-0.1,0-0.2c0-0.1,0.1-0.1,0.1-0.1l2.7-1c0.1,0,0.2,0,0.3,0.1
		c0,0.1,0,0.2-0.1,0.3L7.3,5.9l1.2,2l2.7-0.8c0.1,0,0.2,0,0.3,0.2c0,0.1,0,0.2-0.2,0.3L8.4,8.4C8.4,8.4,8.4,8.4,8.4,8.4z"/>
	<path class="st1" d="M9.7,5C9.6,5,9.5,5,9.5,4.9L7.7,1.7C7.5,1.3,7.4,1,7.5,0.7C7.7,0.2,8.2,0,8.2,0c0.1,0,0.2,0,0.3,0.1L11,4.5
		c0.1,0.1,0,0.2-0.1,0.3c-0.1,0.1-0.2,0-0.3-0.1L8.2,0.5C8.1,0.6,8,0.7,7.9,0.8C7.9,1,7.9,1.2,8.1,1.4c0,0,0,0,0,0l1.8,3.3
		c0.1,0.1,0,0.2-0.1,0.3C9.7,5,9.7,5,9.7,5z"/>
	<path class="st1" d="M11,9.9c-0.3,0-0.6-0.1-0.8-0.3C9.9,9.3,9.9,8.9,9.9,8.8c0-0.1,0.1-0.2,0.2-0.2l1.4-0.2l-0.6-1
		c-0.1-0.1,0-0.2,0.1-0.3c0.1-0.1,0.2,0,0.3,0.1l0.7,1.3c0,0.1,0,0.1,0,0.2c0,0.1-0.1,0.1-0.2,0.1L10.4,9c0,0.1,0,0.1,0.1,0.2
		c0.1,0.1,0.3,0.2,0.5,0.1l2-0.2c0.1,0,0.1-0.1,0.1-0.1c0,0,0-0.1,0-0.1L12,7c-0.1-0.1,0-0.2,0.1-0.3c0.1-0.1,0.2,0,0.3,0.1l1.1,2
		c0.1,0.2,0.1,0.4,0,0.6c-0.1,0.2-0.3,0.3-0.5,0.3l-2,0.2C11.1,9.9,11.1,9.9,11,9.9C11,9.9,11,9.9,11,9.9z"/>
	<path class="st1" d="M12.2,7.1c-0.1,0-0.2,0-0.2-0.1l-1.4-2.5c-0.1-0.1,0-0.2,0.1-0.3c0.1-0.1,0.2,0,0.3,0.1l1.4,2.5
		c0.1,0.1,0,0.2-0.1,0.3C12.2,7.1,12.2,7.1,12.2,7.1z"/>
	<path class="st0" d="M2.2,4.1c0,0-0.1,0-0.1,0C2,4,2,3.9,2,3.8l0.7-1.1C2.8,2.5,3,2.5,3.1,2.6c0.1,0.1,0.1,0.2,0.1,0.3L2.4,4
		C2.4,4.1,2.3,4.1,2.2,4.1z"/>
	<path class="st0" d="M8.3,13.2H7c-0.1,0-0.2-0.1-0.2-0.2s0.1-0.2,0.2-0.2h1.3c0.1,0,0.2,0.1,0.2,0.2S8.4,13.2,8.3,13.2z"/>
	<path class="st1" d="M8.8,6.9c-0.1,0-0.1,0-0.2-0.1c-0.1-0.1-0.1-0.2,0-0.3l2.2-1.8c0.1-0.1,0.2-0.1,0.3,0c0.1,0.1,0.1,0.2,0,0.3
		L8.9,6.9C8.9,6.9,8.8,6.9,8.8,6.9z"/>
	<path class="st1" d="M11.8,6.6C11.8,6.6,11.8,6.6,11.8,6.6L9.4,6.4c-0.1,0-0.2-0.1-0.2-0.2c0-0.1,0.1-0.2,0.2-0.2l2.4,0.2
		c0.1,0,0.2,0.1,0.2,0.2C12,6.5,11.9,6.6,11.8,6.6z"/>
	<path class="st0" d="M9.4,10.3c-0.1,0-0.2-0.1-0.2-0.2V7.9L7.9,5.5C7.8,5.4,7.8,5.2,8,5.2c0.1-0.1,0.2,0,0.3,0.1l1.4,2.5
		c0,0,0,0.1,0,0.1v2.2C9.6,10.2,9.5,10.3,9.4,10.3z"/>
</g>
</svg>
