<?xml version="1.0" encoding="utf-8"?>
<!-- Generator: Adobe Illustrator 26.3.1, SVG Export Plug-In . SVG Version: 6.00 Build 0)  -->
<svg version="1.1" id="Camada_1" xmlns="http://www.w3.org/2000/svg" xmlns:xlink="http://www.w3.org/1999/xlink" x="0px" y="0px"
	 viewBox="0 0 85.2 85" style="enable-background:new 0 0 85.2 85;" xml:space="preserve">
<style type="text/css">
	.st0{fill:#BA225C;}
	.st1{fill:#CCCCCC;}
</style>
<g>
	<path class="st0" d="M78.9,49.2c-1.1,0-2.3-0.4-3.2-1c-1.2-0.8-2.1-2.2-2.3-3.7c-0.2-1.2,0.1-2.3,0.8-3.2c0.4-0.5,1.2-0.6,1.7-0.2
		c0.5,0.4,0.6,1.2,0.2,1.7c-0.3,0.4-0.4,0.8-0.3,1.3c0.1,0.8,0.6,1.6,1.3,2c1,0.7,2.6,0.8,3.4-0.1c0.1-0.1,0.2-0.2,0.2-0.4
		c0.3-0.6,1-0.9,1.6-0.6s0.9,1,0.6,1.6c-0.1,0.3-0.3,0.6-0.6,0.9C81.4,48.7,80.2,49.2,78.9,49.2z"/>
	<path class="st0" d="M8.7,40.1c-0.3,0-0.7-0.2-0.9-0.4l-4.2-5.2c-0.4-0.5-0.3-1.3,0.2-1.7c0.5-0.4,1.3-0.3,1.7,0.2l4.2,5.2
		c0.4,0.5,0.3,1.3-0.2,1.7C9.2,40,9,40.1,8.7,40.1z"/>
	<path class="st0" d="M8.7,34.9H1.4c-0.7,0-1.2-0.5-1.2-1.2c0-0.7,0.5-1.2,1.2-1.2h7.2c0.7,0,1.2,0.5,1.2,1.2
		C9.9,34.4,9.3,34.9,8.7,34.9z"/>
	<g>
		<path class="st1" d="M85.1,46.7c-0.8-1.4-1.8-2.6-3-3.8c-1.8-1.7-4.2-3.2-6.9-4.3c-4.1-1.7-7.9-2.4-9.1-2.5
			c-1.8-1.4-11.1-8.5-22-8.5c-18.5,0-34.4,7.5-35.1,7.8c-0.4,0.2-0.7,0.6-0.7,1.1v5.6H6.4c-0.4,0-0.7,0.2-1,0.5
			c-0.2,0.3-0.3,0.7-0.2,1.1l3,10.1c0.2,0.5,0.6,0.8,1.1,0.8H15c1.3,1.8,3.3,2.9,5.6,2.9s4.4-1.1,5.6-2.9h13.4c0,0,0,0,0,0
			c0,0,0,0,0,0h21.8c1.3,1.8,3.3,2.9,5.6,2.9s4.4-1.1,5.6-2.9H84c0.7,0,1.2-0.5,1.2-1.2l0-6.1C85.2,47.1,85.2,46.9,85.1,46.7z
			 M63.2,36.9l-5.6,2.3L39.5,37l2.1-7c0.8,0,1.6,0,2.4,0C52.3,29.9,59.9,34.6,63.2,36.9z M25.7,32.3c4-1,8.6-1.8,13.4-2.1l-1.9,6.5
			l-11.4-1.4L25.7,32.3L25.7,32.3z M20.7,55.1c-2.5,0-4.5-2-4.5-4.5s2-4.5,4.5-4.5s4.5,2,4.5,4.5S23.2,55.1,20.7,55.1z M27.4,52.2
			c0.1-0.5,0.2-1.1,0.2-1.6c0-3.8-3.1-6.9-6.9-6.9c-3.8,0-6.9,3.1-6.9,6.9c0,0.6,0.1,1.1,0.2,1.6h-3.6L8,44.5h1.4
			c0.7,0,1.2-0.5,1.2-1.2v-6.1c1.7-0.7,6.3-2.7,12.7-4.4v3.4c0,0.6,0.4,1.1,1,1.2l11,1.4l-1.9,1.9c-1.1,1-1.3,2.7-0.6,4c0,0,0,0,0,0
			l4.6,7.5L27.4,52.2L27.4,52.2z M67.1,55.1c-2.5,0-4.5-2-4.5-4.5s2-4.5,4.5-4.5c2.5,0,4.5,2,4.5,4.5S69.6,55.1,67.1,55.1z
			 M82.8,52.2h-9c0.1-0.5,0.2-1.1,0.2-1.6c0-3.8-3.1-6.9-6.9-6.9c-3.8,0-6.9,3.1-6.9,6.9c0,0.6,0.1,1.1,0.2,1.6h-20L35,43.5
			c-0.2-0.4-0.1-0.8,0.2-1.1l3.2-3.2l19.2,2.4c0,0,0.1,0,0.1,0c0.2,0,0.3,0,0.5-0.1l7.5-3.1c1,0.1,4.7,0.7,8.5,2.4
			c2.5,1.1,4.6,2.4,6.2,3.9c1,0.9,1.8,1.9,2.4,2.9L82.8,52.2z"/>
	</g>
	<path class="st0" d="M45,48.1c0,0-0.1,0-0.1,0l-3.6-0.4c-0.7-0.1-1.1-0.7-1-1.3c0.1-0.7,0.7-1.1,1.3-1l3.6,0.4
		c0.7,0.1,1.1,0.7,1,1.3C46.1,47.7,45.6,48.1,45,48.1z"/>
	<path class="st0" d="M21.2,54.2L21.2,54.2c-0.7,0-1.2-0.5-1.2-1.2c0-0.7,0.5-1.2,1.2-1.2h0c0.7,0,1.2,0.5,1.2,1.2
		C22.4,53.7,21.9,54.2,21.2,54.2z"/>
	<path class="st0" d="M67.7,54.2L67.7,54.2c-0.7,0-1.2-0.5-1.2-1.2c0-0.7,0.5-1.2,1.2-1.2h0c0.7,0,1.2,0.5,1.2,1.2
		C68.9,53.7,68.3,54.2,67.7,54.2z"/>
</g>
</svg>
