<?xml version="1.0" encoding="utf-8"?>
<!-- Generator: Adobe Illustrator 26.3.1, SVG Export Plug-In . SVG Version: 6.00 Build 0)  -->
<svg version="1.1" id="Camada_1" xmlns="http://www.w3.org/2000/svg" xmlns:xlink="http://www.w3.org/1999/xlink" x="0px" y="0px"
	 viewBox="0 0 15 15" style="enable-background:new 0 0 15 15;" xml:space="preserve">
<style type="text/css">
	.st0{fill:#BA225C;}
	.st1{fill:#CCCCCC;}
</style>
<g>
	<path class="st0" d="M13.9,8.7c-0.2,0-0.4-0.1-0.6-0.2c-0.2-0.1-0.4-0.4-0.4-0.6c0-0.2,0-0.4,0.1-0.6c0.1-0.1,0.2-0.1,0.3,0
		c0.1,0.1,0.1,0.2,0,0.3c-0.1,0.1-0.1,0.1-0.1,0.2c0,0.1,0.1,0.3,0.2,0.4c0.2,0.1,0.5,0.1,0.6,0c0,0,0,0,0-0.1
		c0-0.1,0.2-0.2,0.3-0.1c0.1,0,0.2,0.2,0.1,0.3c0,0.1-0.1,0.1-0.1,0.2C14.3,8.6,14.1,8.7,13.9,8.7z"/>
	<path class="st0" d="M1.5,7.1C1.4,7.1,1.4,7,1.3,7L0.6,6.1C0.5,6,0.5,5.9,0.6,5.8c0.1-0.1,0.2-0.1,0.3,0l0.7,0.9
		C1.7,6.8,1.7,7,1.6,7C1.6,7.1,1.5,7.1,1.5,7.1z"/>
	<path class="st0" d="M1.5,6.2H0.2C0.1,6.2,0,6.1,0,5.9c0-0.1,0.1-0.2,0.2-0.2h1.3c0.1,0,0.2,0.1,0.2,0.2C1.7,6.1,1.6,6.2,1.5,6.2z"
		/>
	<g>
		<path class="st1" d="M15,8.2c-0.1-0.2-0.3-0.5-0.5-0.7c-0.3-0.3-0.7-0.6-1.2-0.8c-0.7-0.3-1.4-0.4-1.6-0.4c-0.3-0.2-2-1.5-3.9-1.5
			c-3.3,0-6.1,1.3-6.2,1.4c-0.1,0-0.1,0.1-0.1,0.2v1H1.1C1,7.4,1,7.5,0.9,7.5c0,0.1-0.1,0.1,0,0.2l0.5,1.8c0,0.1,0.1,0.1,0.2,0.1h1
			c0.2,0.3,0.6,0.5,1,0.5s0.8-0.2,1-0.5H7c0,0,0,0,0,0c0,0,0,0,0,0h3.8c0.2,0.3,0.6,0.5,1,0.5s0.8-0.2,1-0.5h2
			c0.1,0,0.2-0.1,0.2-0.2l0-1.1C15,8.3,15,8.3,15,8.2z M11.1,6.5l-1,0.4L6.9,6.5l0.4-1.2c0.1,0,0.3,0,0.4,0
			C9.2,5.3,10.5,6.1,11.1,6.5z M4.5,5.7C5.2,5.5,6,5.4,6.9,5.3L6.5,6.5l-2-0.3L4.5,5.7L4.5,5.7z M3.6,9.7c-0.4,0-0.8-0.4-0.8-0.8
			c0-0.4,0.4-0.8,0.8-0.8s0.8,0.4,0.8,0.8S4,9.7,3.6,9.7z M4.8,9.2c0-0.1,0-0.2,0-0.3c0-0.7-0.5-1.2-1.2-1.2S2.4,8.2,2.4,8.9
			c0,0.1,0,0.2,0,0.3H1.8L1.4,7.8h0.3c0.1,0,0.2-0.1,0.2-0.2V6.6C2.1,6.4,3,6.1,4.1,5.8v0.6c0,0.1,0.1,0.2,0.2,0.2l1.9,0.2L5.9,7.2
			C5.7,7.4,5.6,7.7,5.8,7.9c0,0,0,0,0,0l0.8,1.3L4.8,9.2L4.8,9.2z M11.8,9.7c-0.4,0-0.8-0.4-0.8-0.8c0-0.4,0.4-0.8,0.8-0.8
			c0.4,0,0.8,0.4,0.8,0.8S12.2,9.7,11.8,9.7z M14.6,9.2H13c0-0.1,0-0.2,0-0.3c0-0.7-0.5-1.2-1.2-1.2c-0.7,0-1.2,0.5-1.2,1.2
			c0,0.1,0,0.2,0,0.3H7.1L6.1,7.7c0-0.1,0-0.1,0-0.2l0.6-0.6l3.4,0.4c0,0,0,0,0,0c0,0,0.1,0,0.1,0l1.3-0.5c0.2,0,0.8,0.1,1.5,0.4
			c0.4,0.2,0.8,0.4,1.1,0.7c0.2,0.2,0.3,0.3,0.4,0.5L14.6,9.2z"/>
	</g>
	<path class="st0" d="M7.9,8.5C7.9,8.5,7.9,8.5,7.9,8.5L7.2,8.4C7.1,8.4,7,8.3,7.1,8.2C7.1,8.1,7.2,8,7.3,8l0.6,0.1
		c0.1,0,0.2,0.1,0.2,0.2C8.1,8.4,8,8.5,7.9,8.5z"/>
	<path class="st0" d="M3.7,9.6L3.7,9.6c-0.1,0-0.2-0.1-0.2-0.2s0.1-0.2,0.2-0.2h0c0.1,0,0.2,0.1,0.2,0.2S3.8,9.6,3.7,9.6z"/>
	<path class="st0" d="M11.9,9.6L11.9,9.6c-0.1,0-0.2-0.1-0.2-0.2s0.1-0.2,0.2-0.2h0c0.1,0,0.2,0.1,0.2,0.2S12,9.6,11.9,9.6z"/>
</g>
</svg>
