<?xml version="1.0" encoding="utf-8"?>
<!-- Generator: Adobe Illustrator 26.3.1, SVG Export Plug-In . SVG Version: 6.00 Build 0)  -->
<svg version="1.1" id="Camada_1" xmlns="http://www.w3.org/2000/svg" xmlns:xlink="http://www.w3.org/1999/xlink" x="0px" y="0px"
	 viewBox="0 0 15 15" style="enable-background:new 0 0 15 15;" xml:space="preserve">
<style type="text/css">
	.st0{fill:#BA225C;}
	.st1{fill:#CCCCCC;}
</style>
<g>
	<path class="st0" d="M4.1,12.3c-0.1,0-0.1,0-0.2,0c-0.1-0.1-0.1-0.2-0.1-0.4l1.5-2.1l-1-3.2L2.1,5.7C2,5.6,1.9,5.5,2,5.3
		s0.2-0.2,0.3-0.1l2.2,0.9l2.7-2V1.8c0-0.1,0.1-0.3,0.3-0.3c0.1,0,0.3,0.1,0.3,0.3v2.3l2.7,2l2.2-0.9c0.1-0.1,0.3,0,0.3,0.1
		c0.1,0.1,0,0.3-0.1,0.3l-2.2,0.9l-1,3.2l1.6,2.1c0.1,0.1,0.1,0.3-0.1,0.4c-0.1,0.1-0.3,0.1-0.4-0.1l-1.6-2.1H5.8l-1.5,2.1
		C4.3,12.2,4.2,12.3,4.1,12.3z M5.9,9.6h3.2l1-3.1L7.5,4.6L4.9,6.5L5.9,9.6z"/>
	<path class="st1" d="M5.6,14.7c-0.1,0-0.2,0-0.2-0.1l-1.4-2.4l-2.6-0.6c-0.1,0-0.2-0.2-0.2-0.3c0-0.1,0.2-0.2,0.3-0.2l2.7,0.7
		c0,0,0,0,0,0c0,0,0,0,0,0c0,0,0.1,0,0.1,0c0,0,0.1,0,0.1,0.1v0l0,0c0,0,0,0,0,0l1.5,2.4c0.1,0.1,0,0.3-0.1,0.4
		C5.6,14.7,5.6,14.7,5.6,14.7z M9.5,14.7c0,0-0.1,0-0.1,0c-0.1-0.1-0.2-0.2-0.1-0.4l1.4-2.5c0,0,0,0,0,0l0,0v0c0,0,0-0.1,0.1-0.1
		c0,0,0.1,0,0.1,0l2.7-0.7c0.1,0,0.3,0,0.3,0.2s0,0.3-0.2,0.3l-2.6,0.7l-1.4,2.4C9.7,14.7,9.6,14.7,9.5,14.7z M0.3,7.7
		c-0.1,0-0.1,0-0.2-0.1C0,7.5,0,7.4,0.1,7.3L2,5.3l0-2.7c0-0.1,0.1-0.3,0.3-0.3c0,0,0,0,0,0c0.1,0,0.3,0.1,0.3,0.3l0,2.9
		c0,0,0,0.1,0,0.1c0,0,0,0.1-0.1,0.1c0,0,0,0,0,0l-2,2C0.4,7.7,0.3,7.7,0.3,7.7z M14.7,7.7c-0.1,0-0.1,0-0.2-0.1l-2-2c0,0,0,0,0,0
		l0,0c0,0,0-0.1-0.1-0.1c0,0,0-0.1,0-0.1l0,0l0,0c0,0,0,0,0,0l0.1-2.8c0-0.1,0.1-0.3,0.3-0.3c0.1,0,0.3,0.1,0.3,0.3L13,5.3l1.9,1.9
		c0.1,0.1,0.1,0.3,0,0.4C14.9,7.7,14.8,7.7,14.7,7.7z M7.5,2.1L7.5,2.1L7.5,2.1C7.5,2.1,7.4,2.1,7.5,2.1c-0.1,0-0.1,0-0.1,0L4.8,1
		C4.7,0.9,4.7,0.8,4.7,0.6C4.8,0.5,4.9,0.4,5,0.5l2.5,1.1L10,0.5c0.1-0.1,0.3,0,0.3,0.1c0.1,0.1,0,0.3-0.1,0.3L7.6,2.1
		C7.6,2.1,7.5,2.1,7.5,2.1z"/>
	<path class="st1" d="M7.5,15c-0.9,0-1.9-0.2-2.7-0.5c-1.9-0.7-3.3-2.1-4.1-4c-0.8-1.8-0.8-3.9-0.1-5.7C2,0.9,6.4-1,10.2,0.5l0,0
		c1.9,0.7,3.3,2.1,4.1,4c0.8,1.8,0.8,3.9,0.1,5.7c-0.7,1.9-2.1,3.3-4,4.1C9.5,14.8,8.5,15,7.5,15z M7.5,0.5C4.7,0.5,2.1,2.2,1,4.9
		c-0.7,1.7-0.6,3.6,0.1,5.3c0.7,1.7,2.1,3,3.8,3.7c1.7,0.7,3.6,0.6,5.3-0.1c1.7-0.7,3-2.1,3.7-3.8c0.7-1.7,0.6-3.6-0.1-5.3
		c-0.7-1.7-2.1-3-3.8-3.7C9.2,0.7,8.4,0.5,7.5,0.5z"/>
</g>
</svg>
