<?xml version="1.0" encoding="utf-8"?>
<!-- Generator: Adobe Illustrator 26.3.1, SVG Export Plug-In . SVG Version: 6.00 Build 0)  -->
<svg version="1.1" id="Camada_1" xmlns="http://www.w3.org/2000/svg" xmlns:xlink="http://www.w3.org/1999/xlink" x="0px" y="0px"
	 viewBox="0 0 85.2 85" style="enable-background:new 0 0 85.2 85;" xml:space="preserve">
<style type="text/css">
	.st0{fill:#BA225C;}
	.st1{fill:#CCCCCC;}
</style>
<g>
	<path class="st0" d="M25.6,66.4c-0.3,0-0.5-0.1-0.8-0.2c-0.6-0.4-0.7-1.2-0.3-1.8l7.6-10.5L27,37.9l-11.2-4.6c-0.7-0.3-1-1-0.7-1.7
		c0.3-0.7,1-1,1.7-0.7l11.1,4.5l13.4-9.8V14.2c0-0.7,0.6-1.3,1.3-1.3s1.3,0.6,1.3,1.3v11.5l13.4,9.8L68.5,31
		c0.7-0.3,1.4,0.1,1.7,0.7c0.3,0.7-0.1,1.4-0.7,1.7l-11.2,4.6L53,53.8l7.8,10.4c0.4,0.6,0.3,1.4-0.3,1.8c-0.6,0.4-1.4,0.3-1.8-0.3
		L51,55.4H34.3l-7.6,10.5C26.4,66.2,26,66.4,25.6,66.4z M34.6,52.8h16.1l5-15.3l-13-9.5l-13,9.5L34.6,52.8z"/>
	<path class="st1" d="M32.9,78.7c-0.4,0-0.9-0.2-1.1-0.6l-7-11.8l-13.1-3.2c-0.7-0.2-1.1-0.9-0.9-1.6c0.2-0.7,0.9-1.1,1.6-0.9
		l13.6,3.3c0,0,0,0,0,0c0,0,0,0,0,0c0.1,0,0.3,0.1,0.4,0.2c0.1,0.1,0.3,0.2,0.3,0.4v0l0,0c0,0,0,0,0,0L34,76.7
		c0.4,0.6,0.2,1.4-0.4,1.8C33.4,78.6,33.1,78.7,32.9,78.7z M52.7,78.6c-0.2,0-0.4-0.1-0.6-0.2c-0.6-0.4-0.8-1.1-0.5-1.8l7.1-12.3
		c0,0,0,0,0,0l0,0v0c0.1-0.1,0.2-0.3,0.3-0.4c0.1-0.1,0.3-0.2,0.5-0.2l13.7-3.5c0.7-0.2,1.4,0.2,1.6,0.9c0.2,0.7-0.2,1.4-0.9,1.6
		l-13.1,3.4l-6.9,11.8C53.5,78.3,53.1,78.6,52.7,78.6z M6.4,43.5c-0.3,0-0.7-0.1-0.9-0.4c-0.5-0.5-0.5-1.3,0-1.8l9.5-9.7l-0.2-13.7
		c0-0.7,0.6-1.3,1.3-1.3c0,0,0,0,0,0c0.7,0,1.3,0.6,1.3,1.3l0.2,14.3c0,0.2,0,0.3-0.1,0.5c-0.1,0.1-0.1,0.3-0.3,0.4c0,0,0,0,0,0
		l-9.9,10C7.1,43.4,6.8,43.5,6.4,43.5z M78.8,43.5c-0.3,0-0.7-0.1-0.9-0.4l-9.8-10c0,0,0,0,0,0l0,0c-0.1-0.1-0.2-0.3-0.3-0.4
		c-0.1-0.2-0.1-0.3-0.1-0.5l0,0l0,0c0,0,0,0,0,0L68,18.1c0-0.7,0.6-1.3,1.3-1.3c0.7,0,1.3,0.6,1.3,1.3l-0.4,13.5l9.5,9.6
		c0.5,0.5,0.5,1.3,0,1.8C79.5,43.4,79.1,43.5,78.8,43.5z M42.6,15.5L42.6,15.5L42.6,15.5c-0.2,0-0.3,0-0.5-0.1c0,0,0,0,0,0L29.3,9.8
		c-0.7-0.3-1-1-0.7-1.7s1-1,1.7-0.7l12.2,5.3l12.3-5.3c0.7-0.3,1.4,0,1.7,0.7c0.3,0.7,0,1.4-0.7,1.7l-12.8,5.5
		C43,15.5,42.8,15.5,42.6,15.5z"/>
	<path class="st1" d="M42.6,80c-4.6,0-9.3-0.9-13.7-2.6c-9.3-3.7-16.7-10.7-20.7-19.9c-4-9.2-4.2-19.4-0.5-28.7
		C15.3,9.6,37.1,0.1,56.3,7.6l0,0C65.6,11.3,73,18.4,77,27.5s4.2,19.4,0.5,28.7S66.8,72.9,57.6,76.9C52.8,79,47.7,80,42.6,80z
		 M42.7,7.6c-13.9,0-27.1,8.4-32.5,22.1c-3.4,8.7-3.2,18.2,0.5,26.7C14.4,65,21.2,71.6,29.9,75c8.7,3.4,18.2,3.2,26.7-0.5
		c8.5-3.7,15.1-10.6,18.5-19.2c3.4-8.7,3.2-18.2-0.5-26.7C70.9,20,64.1,13.4,55.4,10C51.2,8.4,46.9,7.6,42.7,7.6z"/>
</g>
</svg>
