<?xml version="1.0" encoding="utf-8"?>
<!-- Generator: Adobe Illustrator 26.3.1, SVG Export Plug-In . SVG Version: 6.00 Build 0)  -->
<svg version="1.1" id="Camada_1" xmlns="http://www.w3.org/2000/svg" xmlns:xlink="http://www.w3.org/1999/xlink" x="0px" y="0px"
	 viewBox="0 0 15 15" style="enable-background:new 0 0 15 15;" xml:space="preserve">
<style type="text/css">
	.st0{fill:#08A88A;}
	.st1{fill:#BA225C;}
	.st2{fill:#CCCCCC;}
</style>
<g>
	<path class="st0" d="M9.5,15c-1.3,0-2.3-1-2.3-2.3s1-2.3,2.3-2.3c0.1,0,0.3,0.1,0.3,0.3c0,0.1-0.1,0.3-0.3,0.3
		c-1,0-1.7,0.8-1.7,1.7s0.8,1.7,1.7,1.7c0.2,0,0.4,0,0.6-0.1c0.1,0,0.3,0,0.3,0.2c0,0.1,0,0.3-0.2,0.3C10,15,9.8,15,9.5,15z
		 M11.4,11.7c-0.1,0-0.3-0.1-0.3-0.3c0-0.8-0.7-1.5-1.5-1.5c-0.1,0-0.3-0.1-0.3-0.3c0-0.1,0.1-0.3,0.3-0.3c1.1,0,2,0.9,2,2
		C11.7,11.5,11.5,11.7,11.4,11.7z M3.6,11.7c-0.1,0-0.3-0.1-0.3-0.3c0-1.1,0.9-2,2-2c0.1,0,0.3,0.1,0.3,0.3c0,0.1-0.1,0.3-0.3,0.3
		c-0.8,0-1.5,0.7-1.5,1.5C3.9,11.5,3.7,11.7,3.6,11.7z M13.9,10c-0.1,0-0.2-0.1-0.3-0.2c0-0.2-0.1-0.4-0.3-0.6
		c-0.4,0.3-0.8,0.5-1.3,0.5c-0.1,0-0.3-0.1-0.3-0.3s0.1-0.3,0.3-0.3c0.4,0,0.8-0.2,1.1-0.5c0,0,0,0,0,0c0.3-0.3,0.4-0.6,0.4-1
		c0-0.5-0.3-1-0.7-1.3c-0.1,0-0.1-0.1-0.1-0.2c0-0.1,0-0.1,0-0.2c0.2-0.3,0.3-0.6,0.3-0.9c0-0.5-0.2-0.9-0.6-1.2
		c-0.1-0.1-0.1-0.1-0.1-0.2c-0.1,0-0.2,0.1-0.2,0c-0.2-0.1-0.3-0.1-0.5-0.1c-0.8,0-1.5,0.7-1.5,1.5c0,0.1-0.1,0.3-0.3,0.3
		c-0.1,0-0.3-0.1-0.3-0.3c0-1.1,0.9-2,2-2c0.2,0,0.5,0,0.7,0.1c0.1,0,0.2,0.1,0.2,0.3c0.1-0.1,0.2-0.1,0.3,0c0.5,0.4,0.8,1,0.8,1.6
		c0,0.3-0.1,0.7-0.2,1c0.5,0.4,0.8,1,0.8,1.6c0,0.4-0.1,0.8-0.4,1.2C14,9,14.1,9.3,14.2,9.7C14.2,9.8,14.1,10,13.9,10
		C14,10,14,10,13.9,10z M4.8,8.4c-0.2,0-0.4,0-0.7-0.1C4,8.2,4,8,4,7.9c0.1-0.1,0.2-0.2,0.3-0.1c0.1,0.1,0.3,0.1,0.4,0.1
		c0.3,0,0.6-0.1,0.8-0.3C4.7,7.5,3.9,6.8,3.6,5.9c0-0.1,0-0.3,0.2-0.3c0.1,0,0.3,0,0.3,0.2C4.4,6.5,5,7,5.8,7c0.6,0,1.1-0.3,1.4-0.8
		c0.1-0.1,0.2-0.2,0.4-0.1c0.1,0.1,0.2,0.2,0.1,0.4c-0.3,0.5-0.9,0.8-1.4,1C6,8,5.4,8.4,4.8,8.4z M7.5,2.1C7.4,2.1,7.2,2,7.2,1.9
		c0-0.4,0.1-0.7,0.3-1c0.1-0.1,0.2-0.2,0.4-0.1S8.1,1,8,1.1C7.8,1.3,7.8,1.6,7.8,1.9C7.8,2,7.6,2.1,7.5,2.1z"/>
	<path class="st1" d="M9.5,15c-1.3,0-2.3-1-2.3-2.3s1-2.3,2.3-2.3c0.1,0,0.3,0.1,0.3,0.3c0,0.1-0.1,0.3-0.3,0.3
		c-1,0-1.7,0.8-1.7,1.7s0.8,1.7,1.7,1.7c0.7,0,1.3-0.4,1.6-1c0-0.1,0.2-0.2,0.3-0.2c0.1,0,0.1,0,0.1,0c0.9,0,1.6-0.7,1.6-1.6
		c0-0.2,0-0.3-0.1-0.5c0-0.1,0-0.2,0.1-0.3c0.4-0.2,0.6-0.6,0.6-1c0-0.3-0.1-0.6-0.3-0.8c-0.4,0.3-0.8,0.5-1.3,0.5
		c-0.1,0-0.3-0.1-0.3-0.3c0-0.1,0.1-0.3,0.3-0.3c0.4,0,0.8-0.2,1.1-0.5c0,0,0,0,0,0c0.3-0.3,0.4-0.6,0.4-1c0-0.5-0.3-1-0.7-1.3
		c-0.1,0-0.1-0.1-0.1-0.2c0-0.1,0-0.1,0-0.2c0.2-0.3,0.3-0.6,0.3-0.9c0-0.6-0.4-1.2-1-1.4c0,0,0,0,0,0c-0.2-0.1-0.3-0.1-0.5-0.1
		c-0.8,0-1.5,0.7-1.5,1.5c0,0.1-0.1,0.3-0.3,0.3S9.5,5.2,9.5,5.1c0-1.1,0.9-2,2-2c0.1,0,0.2,0,0.4,0c-0.1-0.6-0.6-1.1-1.3-1.1
		c0,0,0,0,0,0c-0.1,0-0.2-0.1-0.3-0.2C10.3,1,9.7,0.5,9.1,0.5c-0.7,0-1.3,0.6-1.3,1.3c0,0.1-0.1,0.3-0.3,0.3C7.4,2.1,7.2,2,7.2,1.9
		c0-0.5,0.2-1,0.5-1.3C8.1,0.2,8.6,0,9.1,0c0.9,0,1.6,0.6,1.8,1.4c0.9,0.1,1.6,0.9,1.6,1.8c0.7,0.3,1.1,1,1.1,1.8
		c0,0.3-0.1,0.7-0.2,1c0.5,0.4,0.8,1,0.8,1.6c0,0.4-0.1,0.8-0.4,1.2c0.3,0.3,0.5,0.7,0.5,1.2c0,0.5-0.3,1-0.7,1.3c0,0.1,0,0.3,0,0.4
		c0,1.2-0.9,2.1-2.1,2.1c0,0,0,0,0,0C11.1,14.6,10.3,15,9.5,15z M11.4,11.7c-0.1,0-0.3-0.1-0.3-0.3c0-0.8-0.7-1.5-1.5-1.5
		c-0.1,0-0.3-0.1-0.3-0.3c0-0.1,0.1-0.3,0.3-0.3c1.1,0,2,0.9,2,2C11.7,11.5,11.5,11.7,11.4,11.7z M3.6,11.7c-0.1,0-0.3-0.1-0.3-0.3
		c0-1.1,0.9-2,2-2c0.1,0,0.3,0.1,0.3,0.3c0,0.1-0.1,0.3-0.3,0.3c-0.8,0-1.5,0.7-1.5,1.5C3.9,11.5,3.7,11.7,3.6,11.7z M4.8,8.4
		c-0.2,0-0.4,0-0.7-0.1C4,8.2,4,8,4,7.9c0.1-0.1,0.2-0.2,0.3-0.1c0.3,0.1,0.6,0.1,0.9,0c0.1-0.1,0.3-0.1,0.4-0.2
		C4.7,7.5,3.9,6.8,3.6,5.9c0-0.1,0-0.3,0.2-0.3c0.1,0,0.3,0,0.3,0.2C4.4,6.5,5,7,5.8,7c0.6,0,1.1-0.3,1.4-0.8
		c0.1-0.1,0.2-0.2,0.4-0.1c0.1,0.1,0.2,0.2,0.1,0.4c-0.3,0.5-0.9,0.8-1.4,1C6.1,7.9,5.8,8.1,5.4,8.3C5.2,8.3,5,8.4,4.8,8.4z"/>
	<path class="st2" d="M5.5,15c-0.8,0-1.6-0.4-2-1.2c0,0,0,0,0,0c-1.2,0-2.1-0.9-2.1-2.1c0-0.1,0-0.3,0-0.4C1,11,0.8,10.5,0.8,10
		c0-0.4,0.2-0.9,0.5-1.2C1,8.5,0.9,8.1,0.9,7.6c0-0.6,0.3-1.2,0.8-1.6c-0.2-0.3-0.2-0.6-0.2-1c0-0.8,0.4-1.5,1.1-1.8
		c0-0.9,0.7-1.7,1.6-1.8C4.4,0.6,5.1,0,5.9,0c0.5,0,1,0.2,1.3,0.5c0.3,0.3,0.5,0.8,0.5,1.3v0.5c0.2-0.1,0.4-0.2,0.6-0.2
		c0.1,0,0.3,0.1,0.3,0.3c0,0.1-0.1,0.3-0.3,0.3c-0.1,0-0.3,0-0.4,0.1C7.8,2.9,7.8,3.1,7.8,3.3v3C8.1,6.8,8.6,7,9.2,7
		c0.8,0,1.4-0.5,1.7-1.2c0-0.1,0.2-0.2,0.3-0.2c0.1,0,0.2,0.2,0.2,0.3c-0.3,0.9-1,1.5-1.9,1.6c0.1,0.1,0.2,0.2,0.4,0.2
		c0.3,0.1,0.6,0.1,0.9,0c0.1-0.1,0.3,0,0.3,0.1s0,0.3-0.1,0.3c-0.4,0.2-0.9,0.2-1.3,0C9.2,8.1,8.9,7.9,8.7,7.5
		C8.4,7.4,8,7.3,7.8,7.1v5.8c0,0,0,0,0,0.1C7.7,14.1,6.7,15,5.5,15z M3.7,13.3c0.1,0,0.2,0.1,0.2,0.2c0.3,0.6,0.9,1,1.6,1
		c1,0,1.7-0.8,1.7-1.7S6.5,11,5.5,11c-0.1,0-0.3-0.1-0.3-0.3c0-0.1,0.1-0.3,0.3-0.3c0.7,0,1.3,0.3,1.7,0.8v-8c0,0,0,0,0,0
		c0,0,0,0,0,0c0-0.2-0.1-0.3-0.2-0.4C6.9,2.7,6.8,2.7,6.7,2.7c-0.1,0-0.3-0.1-0.3-0.3s0.1-0.3,0.3-0.3c0.2,0,0.4,0.1,0.6,0.2V1.9
		c0-0.7-0.6-1.3-1.3-1.3C5.3,0.5,4.7,1,4.7,1.7C4.6,1.8,4.5,2,4.4,2c0,0,0,0,0,0C3.7,2,3.2,2.4,3.1,3.1c0.1,0,0.2,0,0.4,0
		c1.1,0,2,0.9,2,2c0,0.1-0.1,0.3-0.3,0.3S4.9,5.2,4.9,5.1c0-0.8-0.7-1.5-1.5-1.5c-0.2,0-0.4,0-0.5,0.1c0,0,0,0,0,0
		c-0.6,0.2-1,0.8-1,1.4C1.9,5.4,2,5.7,2.2,6c0,0.1,0.1,0.1,0,0.2c0,0.1-0.1,0.1-0.1,0.2C1.7,6.6,1.4,7.1,1.4,7.6
		c0,0.4,0.1,0.7,0.4,1c0,0,0,0,0,0C2.1,9,2.5,9.1,2.9,9.1c0.1,0,0.3,0.1,0.3,0.3c0,0.1-0.1,0.3-0.3,0.3C2.4,9.7,2,9.5,1.6,9.2
		C1.4,9.4,1.3,9.7,1.3,10c0,0.4,0.2,0.8,0.6,1C2,11,2,11.2,2,11.3c0,0.1-0.1,0.3-0.1,0.5c0,0.9,0.7,1.6,1.6,1.6
		C3.6,13.3,3.6,13.3,3.7,13.3C3.7,13.3,3.7,13.3,3.7,13.3z"/>
</g>
</svg>
