<?xml version="1.0" encoding="utf-8"?>
<!-- Generator: Adobe Illustrator 26.3.1, SVG Export Plug-In . SVG Version: 6.00 Build 0)  -->
<svg version="1.1" id="Camada_1" xmlns="http://www.w3.org/2000/svg" xmlns:xlink="http://www.w3.org/1999/xlink" x="0px" y="0px"
	 viewBox="0 0 85.2 85" style="enable-background:new 0 0 85.2 85;" xml:space="preserve">
<style type="text/css">
	.st0{fill:#08A88A;}
	.st1{fill:#BA225C;}
	.st2{fill:#CCCCCC;}
</style>
<g>
	<path class="st0" d="M53.3,82.5c-6.7,0-12.1-5.4-12.1-12.1s5.4-12.1,12.1-12.1c0.8,0,1.4,0.6,1.4,1.4s-0.6,1.4-1.4,1.4
		c-5.1,0-9.3,4.2-9.3,9.3c0,5.1,4.2,9.3,9.3,9.3c1,0,2-0.2,3-0.5c0.7-0.3,1.5,0.1,1.8,0.9c0.3,0.7-0.1,1.5-0.9,1.8
		C56,82.3,54.7,82.5,53.3,82.5z M63.4,64.7c-0.8,0-1.4-0.6-1.4-1.4c0-4.4-3.6-8-8-8c-0.8,0-1.4-0.6-1.4-1.4s0.6-1.4,1.4-1.4
		c6,0,10.8,4.9,10.8,10.8C64.8,64,64.2,64.7,63.4,64.7z M21.8,64.7c-0.8,0-1.4-0.6-1.4-1.4c0-6,4.9-10.8,10.8-10.8
		c0.8,0,1.4,0.6,1.4,1.4c0,0.8-0.6,1.4-1.4,1.4c-4.4,0-8,3.6-8,8C23.3,64,22.6,64.7,21.8,64.7z M77,55.8c-0.7,0-1.3-0.5-1.4-1.2
		c-0.2-1.2-0.8-2.2-1.6-3.1c-1.9,1.6-4.4,2.6-7,2.6c-0.8,0-1.4-0.6-1.4-1.4s0.6-1.4,1.4-1.4c2.2,0,4.3-0.9,5.8-2.4
		c0-0.1,0.1-0.1,0.1-0.2c1.4-1.5,2.1-3.4,2.1-5.4c0-2.8-1.4-5.4-3.8-6.8c-0.3-0.2-0.6-0.5-0.6-0.9c-0.1-0.4,0-0.8,0.2-1.1
		c1-1.4,1.5-3,1.5-4.7c0-2.6-1.2-5-3.3-6.5c-0.4-0.3-0.6-0.7-0.6-1.2c-0.4,0.2-0.8,0.3-1.3,0.1c-0.9-0.3-1.9-0.5-2.8-0.5
		c-4.4,0-8,3.6-8,8c0,0.8-0.6,1.4-1.4,1.4s-1.4-0.6-1.4-1.4c0-6,4.9-10.8,10.8-10.8c1.3,0,2.6,0.2,3.8,0.7c0.6,0.2,0.9,0.8,0.9,1.3
		c0.5-0.3,1.1-0.3,1.6,0c2.8,2,4.5,5.3,4.5,8.8c0,1.8-0.5,3.6-1.3,5.2c2.5,2,4,5.1,4,8.4c0,2.2-0.7,4.4-1.9,6.2
		c1.3,1.3,2.1,2.9,2.5,4.7c0.1,0.8-0.4,1.5-1.1,1.6C77.2,55.8,77.1,55.8,77,55.8z M28.3,47.2c-1.2,0-2.4-0.2-3.5-0.7
		c-0.7-0.3-1-1.1-0.7-1.9c0.3-0.7,1.1-1,1.9-0.7c0.8,0.3,1.6,0.5,2.4,0.5c1.6,0,3-0.6,4.1-1.6c-4.8-0.5-8.9-3.8-10.3-8.5
		c-0.2-0.7,0.2-1.5,0.9-1.8c0.7-0.2,1.5,0.2,1.8,0.9c1.2,3.9,4.8,6.6,8.9,6.6c3.1,0,6-1.5,7.7-4.1c0.4-0.6,1.3-0.8,2-0.4
		c0.6,0.4,0.8,1.3,0.4,2c-1.8,2.7-4.6,4.5-7.7,5.1C34.5,45.4,31.5,47.2,28.3,47.2z M42.6,13.8c-0.8,0-1.4-0.6-1.4-1.4
		c0-2,0.6-3.9,1.7-5.6c0.4-0.6,1.3-0.8,2-0.4s0.8,1.3,0.4,2c-0.8,1.2-1.2,2.6-1.2,4C44,13.2,43.4,13.8,42.6,13.8z"/>
	<path class="st1" d="M53.3,82.5c-6.7,0-12.1-5.4-12.1-12.1s5.4-12.1,12.1-12.1c0.8,0,1.4,0.6,1.4,1.4s-0.6,1.4-1.4,1.4
		c-5.1,0-9.3,4.2-9.3,9.3c0,5.1,4.2,9.3,9.3,9.3c3.6,0,6.9-2.1,8.4-5.4c0.3-0.5,0.8-0.9,1.4-0.8c0.3,0,0.5,0,0.8,0
		c4.6,0,8.4-3.8,8.4-8.4c0-0.8-0.1-1.7-0.4-2.4c-0.2-0.6,0.1-1.3,0.7-1.6c1.9-1.1,3.1-3.1,3.1-5.3c0-1.6-0.6-3.1-1.7-4.2
		c-1.9,1.6-4.4,2.6-7,2.6c-0.8,0-1.4-0.6-1.4-1.4s0.6-1.4,1.4-1.4c2.2,0,4.3-0.9,5.8-2.4c0-0.1,0.1-0.1,0.1-0.2
		c1.4-1.5,2.1-3.4,2.1-5.4c0-2.8-1.4-5.4-3.8-6.8c-0.3-0.2-0.6-0.5-0.6-0.9c-0.1-0.4,0-0.8,0.2-1.1c1-1.4,1.5-3,1.5-4.7
		c0-3.3-2.1-6.3-5.2-7.5c0,0,0,0-0.1,0c-0.9-0.3-1.8-0.5-2.8-0.5c-4.4,0-8,3.6-8,8c0,0.8-0.6,1.4-1.4,1.4s-1.4-0.6-1.4-1.4
		c0-6,4.9-10.8,10.8-10.8c0.6,0,1.3,0.1,1.9,0.2c-0.5-3.4-3.4-6.1-7-6.1c0,0,0,0-0.1,0c-0.7,0-1.3-0.5-1.4-1.3
		C57.4,8,54.5,5.3,51,5.3c-3.9,0-6.9,3.1-6.9,7.1c0,0.8-0.6,1.4-1.4,1.4c-0.8,0-1.4-0.6-1.4-1.4c0-2.6,1-5.1,2.8-7
		c1.8-1.9,4.3-2.9,6.9-2.9c4.6,0,8.4,3.1,9.4,7.6c4.9,0.6,8.7,4.7,8.7,9.8c3.6,1.8,6,5.6,6,9.7c0,1.8-0.5,3.6-1.3,5.2
		c2.5,2,4,5.1,4,8.4c0,2.2-0.7,4.4-1.9,6.2c1.7,1.7,2.6,3.9,2.6,6.3c0,2.8-1.4,5.5-3.6,7.2c0.1,0.7,0.2,1.5,0.2,2.2
		c0,6.2-5,11.2-11.2,11.2c0,0,0,0,0,0C61.7,80.1,57.7,82.5,53.3,82.5z M63.4,64.7c-0.8,0-1.4-0.6-1.4-1.4c0-4.4-3.6-8-8-8
		c-0.8,0-1.4-0.6-1.4-1.4s0.6-1.4,1.4-1.4c6,0,10.8,4.9,10.8,10.8C64.8,64,64.2,64.7,63.4,64.7z M21.8,64.7c-0.8,0-1.4-0.6-1.4-1.4
		c0-6,4.9-10.8,10.8-10.8c0.8,0,1.4,0.6,1.4,1.4c0,0.8-0.6,1.4-1.4,1.4c-4.4,0-8,3.6-8,8C23.3,64,22.6,64.7,21.8,64.7z M28.3,47.2
		c-1.2,0-2.4-0.2-3.5-0.7c-0.7-0.3-1-1.1-0.7-1.9c0.3-0.7,1.1-1,1.9-0.7c1.5,0.6,3.1,0.7,4.6,0.1c0.7-0.3,1.4-0.7,1.9-1.2
		c-4.8-0.5-8.9-3.8-10.4-8.5c-0.2-0.7,0.2-1.5,0.9-1.8c0.7-0.2,1.5,0.2,1.8,0.9c1.2,3.9,4.8,6.6,8.9,6.6c3.1,0,6-1.5,7.7-4.1
		c0.4-0.6,1.3-0.8,2-0.4c0.6,0.4,0.8,1.3,0.4,2c-1.8,2.7-4.6,4.5-7.7,5.1c-1,1.8-2.6,3.2-4.5,4C30.5,47,29.4,47.2,28.3,47.2z"/>
	<path class="st2" d="M31.9,82.5c-4.4,0-8.4-2.4-10.5-6.1c0,0,0,0,0,0c-6.2,0-11.2-5-11.2-11.2c0-0.7,0.1-1.5,0.2-2.2
		c-2.3-1.7-3.6-4.3-3.6-7.2c0-2.4,1-4.7,2.6-6.3c-1.3-1.8-1.9-3.9-1.9-6.2c0-3.3,1.5-6.4,4-8.4c-0.9-1.6-1.3-3.3-1.3-5.2
		c0-4.1,2.4-7.9,6-9.7c0-5,3.8-9.2,8.7-9.8c1-4.5,4.8-7.6,9.4-7.6c2.6,0,5.1,1,6.9,2.9c1.8,1.9,2.8,4.3,2.8,7v2.5
		c0.9-0.6,2-0.9,3.1-0.9c0.8,0,1.4,0.6,1.4,1.4c0,0.8-0.6,1.4-1.4,1.4c-0.7,0-1.4,0.2-2,0.7c-0.7,0.6-1.1,1.4-1.2,2.3v16.2
		c1.7,2.4,4.6,3.9,7.6,3.9c4.1,0,7.7-2.6,8.9-6.6c0.2-0.7,1-1.2,1.8-0.9s1.2,1,0.9,1.8c-1.4,4.7-5.5,8-10.4,8.5
		c0.5,0.5,1.2,0.9,1.9,1.2c1.5,0.6,3.1,0.6,4.6-0.1c0.7-0.3,1.5,0,1.9,0.7s0,1.5-0.7,1.9c-2.2,0.9-4.5,1-6.7,0.1
		c-2-0.8-3.5-2.2-4.5-4c-1.9-0.4-3.7-1.2-5.2-2.4v30.7c0,0.1,0,0.2,0,0.3C43.6,77.5,38.3,82.5,31.9,82.5z M22.2,73.5
		c0.5,0,1,0.3,1.3,0.8c1.5,3.3,4.8,5.4,8.4,5.4c5.1,0,9.3-4.2,9.3-9.3c0-5.1-4.2-9.3-9.3-9.3c-0.8,0-1.4-0.6-1.4-1.4
		s0.6-1.4,1.4-1.4c3.7,0,7.1,1.7,9.3,4.4V20c0,0,0,0,0-0.1c0,0,0,0,0-0.1c0-0.9-0.4-1.8-1.2-2.3c-0.6-0.5-1.2-0.7-2-0.7
		c-0.8,0-1.4-0.6-1.4-1.4c0-0.8,0.6-1.4,1.4-1.4c1.1,0,2.2,0.3,3.1,0.9v-2.5c0-4-3-7.1-6.9-7.1c-3.6,0-6.4,2.7-6.8,6.3
		c-0.1,0.7-0.7,1.3-1.4,1.3c0,0,0,0-0.1,0c-3.6,0-6.5,2.7-7,6.1c0.6-0.1,1.3-0.2,1.9-0.2c6,0,10.8,4.9,10.8,10.8
		c0,0.8-0.6,1.4-1.4,1.4c-0.8,0-1.4-0.6-1.4-1.4c0-4.4-3.6-8-8-8c-1,0-1.9,0.2-2.8,0.5c0,0,0,0-0.1,0c-3.1,1.2-5.2,4.2-5.2,7.5
		c0,1.7,0.5,3.3,1.5,4.7c0.2,0.3,0.3,0.7,0.2,1.1c-0.1,0.4-0.3,0.7-0.6,0.9c-2.4,1.5-3.8,4-3.8,6.8c0,2,0.7,3.9,2.1,5.4
		c0,0.1,0.1,0.1,0.1,0.2c1.5,1.6,3.6,2.4,5.8,2.4c0.8,0,1.4,0.6,1.4,1.4s-0.6,1.4-1.4,1.4c-2.6,0-5.1-0.9-7-2.6
		c-1.1,1.1-1.7,2.6-1.7,4.2c0,2.2,1.2,4.2,3.1,5.3c0.6,0.3,0.8,1,0.7,1.6c-0.2,0.8-0.4,1.6-0.4,2.4c0,4.6,3.8,8.4,8.4,8.4
		c0.2,0,0.5,0,0.8,0C22.1,73.5,22.1,73.5,22.2,73.5z"/>
</g>
</svg>
