<?xml version="1.0" encoding="utf-8"?>
<!-- Generator: Adobe Illustrator 26.3.1, SVG Export Plug-In . SVG Version: 6.00 Build 0)  -->
<svg version="1.1" id="Camada_1" xmlns="http://www.w3.org/2000/svg" xmlns:xlink="http://www.w3.org/1999/xlink" x="0px" y="0px"
	 viewBox="0 0 15 15" style="enable-background:new 0 0 15 15;" xml:space="preserve">
<style type="text/css">
	.st0{fill:#CCCCCC;}
	.st1{fill:#BA225C;}
</style>
<g>
	<path class="st0" d="M7.5,15C3.4,15,0,11.6,0,7.5S3.4,0,7.5,0S15,3.4,15,7.5S11.6,15,7.5,15z M7.5,13.1c0.1,0,0.3,0.1,0.3,0.3v1.1
		c3.6-0.1,6.5-3.1,6.7-6.7h-1.1c-0.1,0-0.3-0.1-0.3-0.3s0.1-0.3,0.3-0.3h1.1c-0.1-3.6-3.1-6.5-6.7-6.7v1.1c0,0.1-0.1,0.3-0.3,0.3
		S7.2,1.8,7.2,1.6V0.5C3.6,0.7,0.7,3.6,0.5,7.2h1.1c0.1,0,0.3,0.1,0.3,0.3S1.8,7.8,1.6,7.8H0.5c0.1,3.6,3.1,6.5,6.7,6.7v-1.1
		C7.2,13.2,7.4,13.1,7.5,13.1z"/>
	<path class="st1" d="M7.5,9.7c-0.1,0-0.3-0.1-0.3-0.3V7.8H5.6c-0.1,0-0.3-0.1-0.3-0.3s0.1-0.3,0.3-0.3h1.6V5.6
		c0-0.1,0.1-0.3,0.3-0.3s0.3,0.1,0.3,0.3v1.6h1.6c0.1,0,0.3,0.1,0.3,0.3S9.6,7.8,9.4,7.8H7.8v1.6C7.8,9.6,7.6,9.7,7.5,9.7z"/>
</g>
</svg>
