<?xml version="1.0" encoding="utf-8"?>
<!-- Generator: Adobe Illustrator 26.3.1, SVG Export Plug-In . SVG Version: 6.00 Build 0)  -->
<svg version="1.1" id="Camada_1" xmlns="http://www.w3.org/2000/svg" xmlns:xlink="http://www.w3.org/1999/xlink" x="0px" y="0px"
	 viewBox="0 0 85.2 85" style="enable-background:new 0 0 85.2 85;" xml:space="preserve">
<style type="text/css">
	.st0{fill:#CCCCCC;}
	.st1{fill:#BA225C;}
</style>
<g>
	<path class="st0" d="M42.6,80C21.9,80,5.1,63.2,5.1,42.5S21.9,5,42.6,5s37.5,16.8,37.5,37.5S63.3,80,42.6,80z M42.6,70.6
		c0.7,0,1.3,0.6,1.3,1.3v5.4C62.1,76.6,76.7,62,77.4,43.9H72c-0.7,0-1.3-0.6-1.3-1.3s0.6-1.3,1.3-1.3h5.4C76.7,23,62.1,8.4,44,7.7
		v5.4c0,0.7-0.6,1.3-1.3,1.3s-1.3-0.6-1.3-1.3V7.7C23.2,8.4,8.5,23,7.8,41.2h5.4c0.7,0,1.3,0.6,1.3,1.3s-0.6,1.3-1.3,1.3H7.8
		C8.5,62,23.2,76.6,41.3,77.3v-5.4C41.3,71.2,41.9,70.6,42.6,70.6z"/>
	<path class="st1" d="M42.6,53.4c-0.7,0-1.3-0.6-1.3-1.3v-8.2h-8.2c-0.7,0-1.3-0.6-1.3-1.3s0.6-1.3,1.3-1.3h8.2V33
		c0-0.7,0.6-1.3,1.3-1.3S44,32.2,44,33v8.2h8.2c0.7,0,1.3,0.6,1.3,1.3s-0.6,1.3-1.3,1.3H44v8.2C44,52.8,43.4,53.4,42.6,53.4z"/>
</g>
</svg>
