<?xml version="1.0" encoding="utf-8"?>
<!-- Generator: Adobe Illustrator 26.3.1, SVG Export Plug-In . SVG Version: 6.00 Build 0)  -->
<svg version="1.1" id="Camada_1" xmlns="http://www.w3.org/2000/svg" xmlns:xlink="http://www.w3.org/1999/xlink" x="0px" y="0px"
	 viewBox="0 0 85.2 85" style="enable-background:new 0 0 85.2 85;" xml:space="preserve">
<style type="text/css">
	.st0{fill:#BA225C;}
	.st1{fill:#CCCCCC;}
</style>
<g>
	<path class="st0" d="M36.4,66.7c-0.2,0-0.4-0.1-0.6-0.2l-9.4-5.4c-0.6-0.3-0.8-1.1-0.5-1.7c0.3-0.6,1.1-0.8,1.7-0.5l9.4,5.4
		c0.6,0.3,0.8,1.1,0.5,1.7C37.3,66.5,36.9,66.7,36.4,66.7z"/>
	<path class="st1" d="M67.7,13.5l-0.6-9.8c0-0.4-0.3-0.8-0.6-1c-0.4-0.2-0.8-0.2-1.2,0L56.5,7c-0.2,0.1-0.4,0.3-0.5,0.5L34.4,44.8
		l-4-2.3c-1.2-0.7-2.7-0.3-3.3,0.9l-2.2,3.8c-0.3,0.6-0.4,1.2-0.2,1.8c0.2,0.6,0.6,1.2,1.1,1.5l4,2.3l-6.3,10.9
		c-0.8,1.4-1,3-0.6,4.6c0.1,0.3,0.2,0.7,0.4,1c-0.3,0-0.5,0.1-0.8,0.2c-1.7,0.5-3.1,1.5-4,3.1s-1.1,3.3-0.7,5s1.5,3.1,3.1,4
		c1,0.6,2.2,0.9,3.3,0.9c2.3,0,4.5-1.2,5.7-3.3c0.9-1.5,1.1-3.3,0.7-5c-0.1-0.3-0.2-0.5-0.3-0.8c0.4,0,0.7-0.1,1.1-0.2
		c1.6-0.4,2.9-1.4,3.7-2.8l6.3-10.9l4,2.3c0.4,0.2,0.8,0.3,1.2,0.3c0.8,0,1.7-0.4,2.1-1.2l2.2-3.8c0.7-1.2,0.3-2.7-0.9-3.3l-4-2.3
		l21.5-37.3C67.6,13.9,67.7,13.7,67.7,13.5z M27.7,78c-1.1,2-3.7,2.6-5.6,1.5c-1-0.5-1.6-1.4-1.9-2.5s-0.1-2.2,0.4-3.1
		c0.5-1,1.4-1.6,2.5-1.9c0.4-0.1,0.7-0.1,1.1-0.1c0.7,0,1.4,0.2,2,0.6c1,0.5,1.6,1.4,1.9,2.5C28.4,75.9,28.3,77,27.7,78z M32.9,69.2
		c-0.5,0.8-1.2,1.4-2.2,1.7c-0.9,0.2-1.9,0.1-2.7-0.4l-1-0.6c-1.7-1-2.3-3.2-1.3-4.9l6.3-10.9l7.2,4.2L32.9,69.2z M46.5,59.6l-5-2.9
		l0,0l0,0l-14.4-8.3l2.2-3.7l5,2.9l0,0l0,0l9.4,5.4l0,0l0,0l5,2.9L46.5,59.6z M43.8,50.2L36.6,46l21.4-37l6.8-3.4l0.5,7.5L43.8,50.2
		z"/>
</g>
</svg>
