<?xml version="1.0" encoding="utf-8"?>
<!-- Generator: Adobe Illustrator 26.3.1, SVG Export Plug-In . SVG Version: 6.00 Build 0)  -->
<svg version="1.1" id="Camada_1" xmlns="http://www.w3.org/2000/svg" xmlns:xlink="http://www.w3.org/1999/xlink" x="0px" y="0px"
	 viewBox="0 0 85.2 85" style="enable-background:new 0 0 85.2 85;" xml:space="preserve">
<style type="text/css">
	.st0{fill:#CCCCCC;}
	.st1{fill:#BA225C;}
</style>
<g>
	<path class="st0" d="M42.6,82.5c-1.7,0-3.4-0.5-4.8-1.4c-13.2-8.3-19.4-20.2-22.3-28.8c-3-8.9-3.1-15.9-3.1-16.8
		c-0.8-8.5,2.1-16.9,7.8-23.2c5.7-6.3,13.9-9.9,22.4-9.9S59.3,6.1,65,12.4c5.7,6.3,8.6,14.7,7.8,23.2c0,0.8-0.1,7.9-3.1,16.7
		c-2.9,8.6-9.1,20.5-22.2,28.8C46,82,44.3,82.5,42.6,82.5z M42.6,5.4c-7.7,0-15.1,3.3-20.3,8.9s-7.8,13.3-7.1,21c0,0,0,0.1,0,0.1
		c0,0.1,0,7.1,3,16c2.7,8.1,8.6,19.4,21,27.2c2,1.3,4.6,1.3,6.6,0c12.4-7.8,18.3-19.2,21-27.3c3-8.8,3-15.8,3-15.9c0,0,0-0.1,0-0.1
		c0.7-7.7-1.9-15.3-7.1-21C57.7,8.7,50.3,5.4,42.6,5.4z"/>
	<g>
		<path class="st1" d="M49.9,49.7c-1.1,0-2.1-0.4-2.8-1.2c-0.8-0.8-1.2-1.9-1.2-3c0.2-3.9,1.9-7.7,4.7-10.5
			c2.8-2.8,6.5-4.5,10.5-4.7c1.1-0.1,2.2,0.4,3,1.2c0.8,0.8,1.2,1.9,1.2,3c-0.2,3.9-1.9,7.7-4.7,10.5c-2.8,2.8-6.5,4.5-10.5,4.7
			C50,49.7,49.9,49.7,49.9,49.7z M61.2,33.3C61.2,33.3,61.2,33.3,61.2,33.3c-3.3,0.2-6.3,1.5-8.6,3.8c-2.3,2.3-3.7,5.3-3.8,8.6
			c0,0.4,0.2,0.7,0.3,0.8c0.1,0.1,0.4,0.3,0.8,0.3c3.2-0.2,6.3-1.5,8.6-3.8c2.3-2.3,3.7-5.3,3.8-8.6c0-0.4-0.2-0.7-0.3-0.8
			C61.9,33.5,61.6,33.3,61.2,33.3z"/>
		<path class="st1" d="M35.4,49.7c-0.1,0-0.1,0-0.2,0c-3.9-0.2-7.7-1.9-10.5-4.7l0,0l0,0c-2.8-2.8-4.5-6.5-4.7-10.5
			c-0.1-1.1,0.4-2.2,1.2-3c0.8-0.8,1.9-1.2,3-1.2c3.9,0.2,7.7,1.9,10.5,4.7c2.8,2.8,4.5,6.5,4.7,10.5c0.1,1.1-0.4,2.2-1.2,3
			C37.4,49.3,36.4,49.7,35.4,49.7z M24,33.3c-0.4,0-0.6,0.2-0.8,0.3c-0.1,0.1-0.3,0.4-0.3,0.8c0.2,3.2,1.5,6.3,3.8,8.6l0,0
			c2.3,2.3,5.3,3.7,8.6,3.8c0.4,0,0.7-0.2,0.8-0.3c0.1-0.1,0.3-0.4,0.3-0.8c-0.2-3.2-1.5-6.3-3.8-8.6C30.4,34.8,27.3,33.5,24,33.3
			C24.1,33.3,24,33.3,24,33.3z"/>
	</g>
</g>
</svg>
