<?xml version="1.0" encoding="utf-8"?>
<!-- Generator: Adobe Illustrator 26.3.1, SVG Export Plug-In . SVG Version: 6.00 Build 0)  -->
<svg version="1.1" id="Camada_1" xmlns="http://www.w3.org/2000/svg" xmlns:xlink="http://www.w3.org/1999/xlink" x="0px" y="0px"
	 viewBox="0 0 15 15" style="enable-background:new 0 0 15 15;" xml:space="preserve">
<style type="text/css">
	.st0{fill:#BA225C;}
	.st1{fill:#CCCCCC;}
</style>
<g>
	<path class="st0" d="M5,9.5c-0.8,0-1.2-0.1-1.5-0.3C3.1,9.2,2.8,9,2.1,9C2,9,1.9,8.9,1.9,8.8c0-0.1,0.1-0.2,0.2-0.2c0,0,0,0,0,0
		c0.7,0,1.1,0.1,1.5,0.3C4,8.9,4.3,9,5,9s1-0.1,1.4-0.2c0.4-0.1,0.8-0.3,1.5-0.3c0.8,0,1.2,0.1,1.5,0.3C9.8,8.9,10.1,9,10.8,9
		C10.9,9,11,9.1,11,9.3c0,0.1-0.1,0.2-0.2,0.2c0,0,0,0,0,0c-0.7,0-1.1-0.1-1.5-0.3C8.9,9.2,8.6,9,7.9,9c-0.7,0-1,0.1-1.4,0.2
		C6.2,9.4,5.8,9.5,5,9.5z"/>
	<path class="st1" d="M10.1,6.5C9.6,5.8,8.8,5.2,8,4.9V3.7h0.3c0.1,0,0.2-0.1,0.2-0.2V2.2c0-0.1-0.1-0.2-0.2-0.2H7.7V0.2
		C7.7,0.1,7.6,0,7.5,0h-2C5.3,0,5.2,0.1,5.2,0.2v1.7H4.6C4.5,1.9,4.4,2,4.4,2.2v1.3c0,0.1,0.1,0.2,0.2,0.2h0.3v1.3
		C4.1,5.2,3.3,5.8,2.8,6.5C2.2,7.3,1.9,8.2,1.9,9.2c0,1.2,0.4,2.3,1.2,3.1c0,0.1,0.1,0.1,0.2,0.1c0.1,0,0.1,0,0.2-0.1
		c0.1-0.1,0.1-0.3,0-0.4c-0.7-0.8-1.1-1.7-1.1-2.8c0-1.8,1.1-3.4,2.9-3.9c0.1,0,0.2-0.1,0.2-0.2V3.7h2.1v1.4c0,0.1,0.1,0.2,0.2,0.2
		c1.7,0.5,2.9,2.1,2.9,3.9c0,2.2-1.8,4.1-4.1,4.1c-0.4,0-0.8-0.1-1.2-0.2c-0.1,0-0.3,0-0.3,0.2c0,0.1,0,0.3,0.2,0.3
		c0.4,0.1,0.9,0.2,1.3,0.2c2.5,0,4.6-2,4.6-4.6C11,8.2,10.7,7.3,10.1,6.5z M5.7,0.5h1.5v1.4H5.7V0.5z M4.9,2.4h0.6h2H8v0.8H4.9
		L4.9,2.4L4.9,2.4z"/>
	<path class="st0" d="M6.5,12.5l-1.3-0.7l-0.7-1.3c0-0.1-0.1-0.1-0.2-0.1c-0.1,0-0.2,0-0.2,0.1l-0.7,1.3l-1.3,0.7
		c-0.1,0-0.1,0.1-0.1,0.2c0,0.1,0,0.2,0.1,0.2l1.3,0.7l0.7,1.3C4.2,15,4.3,15,4.4,15s0.2,0,0.2-0.1l0.7-1.3l1.3-0.7
		c0.1,0,0.1-0.1,0.1-0.2C6.6,12.6,6.6,12.5,6.5,12.5z M5,13.2C4.9,13.2,4.9,13.3,5,13.2l-0.6,1l-0.5-0.9c0,0-0.1-0.1-0.1-0.1
		l-0.9-0.5l0.9-0.5c0,0,0.1-0.1,0.1-0.1l0.5-0.9l0.5,0.9c0,0,0.1,0.1,0.1,0.1l0.9,0.5L5,13.2z"/>
	<path class="st0" d="M13,3.5L12.1,3l-0.5-0.9C11.6,2,11.5,2,11.4,2c-0.1,0-0.2,0-0.2,0.1L10.7,3L9.8,3.5c-0.1,0-0.1,0.1-0.1,0.2
		s0,0.2,0.1,0.2l0.9,0.5l0.5,0.9c0,0.1,0.1,0.1,0.2,0.1c0.1,0,0.2,0,0.2-0.1l0.5-0.9L13,3.9c0.1,0,0.1-0.1,0.1-0.2S13.1,3.5,13,3.5z
		 M11.8,4C11.7,4,11.7,4.1,11.8,4l-0.4,0.7l-0.3-0.6C11.1,4.1,11,4,11,4l-0.6-0.3L11,3.4c0,0,0.1-0.1,0.1-0.1l0.3-0.6l0.3,0.6
		c0,0,0.1,0.1,0.1,0.1l0.6,0.3L11.8,4z"/>
</g>
</svg>
