<?xml version="1.0" encoding="utf-8"?>
<!-- Generator: Adobe Illustrator 26.3.1, SVG Export Plug-In . SVG Version: 6.00 Build 0)  -->
<svg version="1.1" id="Camada_1" xmlns="http://www.w3.org/2000/svg" xmlns:xlink="http://www.w3.org/1999/xlink" x="0px" y="0px"
	 viewBox="0 0 85.2 85" style="enable-background:new 0 0 85.2 85;" xml:space="preserve">
<style type="text/css">
	.st0{fill:#BA225C;}
	.st1{fill:#CCCCCC;}
</style>
<g>
	<path class="st0" d="M29.4,53.3c-4.1,0-6.2-0.7-8.2-1.4c-1.8-0.6-3.6-1.2-7-1.2c-0.7,0-1.3-0.6-1.3-1.3c0-0.7,0.6-1.3,1.3-1.3
		c0,0,0,0,0,0c3.9,0,5.9,0.7,7.8,1.4c1.9,0.6,3.7,1.2,7.4,1.2s5.5-0.6,7.4-1.2c2-0.7,4.1-1.4,8.2-1.4c4.1,0,6.2,0.7,8.2,1.4
		c1.8,0.6,3.5,1.2,6.9,1.2c0.7,0,1.3,0.6,1.3,1.3c0,0.7-0.6,1.3-1.3,1.3c0,0,0,0,0,0c-3.8,0-5.8-0.7-7.8-1.4
		c-1.9-0.6-3.7-1.2-7.4-1.2c-3.7,0-5.5,0.6-7.4,1.2C35.6,52.6,33.5,53.3,29.4,53.3z"/>
	<path class="st1" d="M56.3,37.1c-2.9-3.8-6.9-6.8-11.3-8.4V22h1.6c0.7,0,1.3-0.6,1.3-1.3V14c0-0.7-0.6-1.3-1.3-1.3h-3V3.8
		c0-0.7-0.6-1.3-1.3-1.3H31.3c-0.7,0-1.3,0.6-1.3,1.3v8.8h-3c-0.7,0-1.3,0.6-1.3,1.3v6.7c0,0.7,0.6,1.3,1.3,1.3h1.6v6.7
		c-4.5,1.6-8.5,4.5-11.3,8.4c-3.2,4.2-4.8,9.3-4.8,14.6c0,6.2,2.4,12.2,6.6,16.7c0.3,0.3,0.6,0.4,1,0.4c0.3,0,0.7-0.1,0.9-0.4
		c0.5-0.5,0.6-1.3,0.1-1.9c-3.8-4-5.9-9.3-5.9-14.9c0-9.6,6.1-17.9,15.3-20.7c0.6-0.2,0.9-0.7,0.9-1.3V22h11v7.6
		c0,0.6,0.4,1.1,0.9,1.3c9.1,2.8,15.3,11.2,15.3,20.7c0,12-9.7,21.7-21.7,21.7c-2.1,0-4.2-0.3-6.1-0.9c-0.7-0.2-1.4,0.2-1.7,0.9
		c-0.2,0.7,0.2,1.4,0.9,1.7c2.2,0.7,4.5,1,6.9,1c13.4,0,24.4-10.9,24.4-24.4C61.1,46.4,59.5,41.3,56.3,37.1z M32.7,5.2h8.3v7.5h-8.3
		V5.2z M28.4,15.3h3h10.9h3v4H28.4L28.4,15.3L28.4,15.3z"/>
	<path class="st0" d="M37.5,69.1l-6.7-3.7l-3.7-6.7c-0.2-0.4-0.7-0.7-1.2-0.7c-0.5,0-0.9,0.3-1.2,0.7l-3.7,6.7l-6.7,3.7
		c-0.4,0.2-0.7,0.7-0.7,1.2c0,0.5,0.3,0.9,0.7,1.2l6.7,3.7l3.7,6.7c0.2,0.4,0.7,0.7,1.2,0.7s0.9-0.3,1.2-0.7l3.7-6.7l6.7-3.7
		c0.4-0.2,0.7-0.7,0.7-1.2C38.2,69.8,38,69.4,37.5,69.1z M29.2,73c-0.2,0.1-0.4,0.3-0.5,0.5L26,78.4l-2.7-4.9
		c-0.1-0.2-0.3-0.4-0.5-0.5l-4.9-2.7l4.9-2.7c0.2-0.1,0.4-0.3,0.5-0.5l2.7-4.9l2.7,4.9c0.1,0.2,0.3,0.4,0.5,0.5l4.9,2.7L29.2,73z"/>
	<path class="st0" d="M72.1,21.1l-4.8-2.6l-2.6-4.8c-0.2-0.4-0.7-0.7-1.2-0.7c-0.5,0-0.9,0.3-1.2,0.7l-2.6,4.8l-4.8,2.6
		c-0.4,0.2-0.7,0.7-0.7,1.2s0.3,0.9,0.7,1.2l4.8,2.6l2.6,4.8c0.2,0.4,0.7,0.7,1.2,0.7c0.5,0,0.9-0.3,1.2-0.7l2.6-4.8l4.8-2.6
		c0.4-0.2,0.7-0.7,0.7-1.2S72.5,21.3,72.1,21.1z M65.7,23.9c-0.2,0.1-0.4,0.3-0.5,0.5l-1.6,3l-1.6-3c-0.1-0.2-0.3-0.4-0.5-0.5
		l-3-1.7l3-1.6c0.2-0.1,0.4-0.3,0.5-0.5l1.6-3l1.6,3c0.1,0.2,0.3,0.4,0.5,0.5l3,1.6L65.7,23.9z"/>
</g>
</svg>
