<?xml version="1.0" encoding="utf-8"?>
<!-- Generator: Adobe Illustrator 26.3.1, SVG Export Plug-In . SVG Version: 6.00 Build 0)  -->
<svg version="1.1" id="Camada_1" xmlns="http://www.w3.org/2000/svg" xmlns:xlink="http://www.w3.org/1999/xlink" x="0px" y="0px"
	 viewBox="0 0 85.2 85" style="enable-background:new 0 0 85.2 85;" xml:space="preserve">
<style type="text/css">
	.st0{fill:#BA225C;}
	.st1{fill:#CCCCCC;}
</style>
<g>
	<g>
		<path class="st0" d="M30.3,43.5c-6.8,0-12.4-5.5-12.4-12.3s5.5-12.3,12.4-12.3c1.2,0,2.4,0.2,3.6,0.5c0.7,0.2,1,0.9,0.8,1.6
			c-0.2,0.7-0.9,1-1.6,0.8c-0.9-0.3-1.9-0.4-2.8-0.4c-5.4,0-9.8,4.4-9.8,9.8s4.4,9.8,9.8,9.8c2,0,4-0.6,5.6-1.7
			c0.6-0.4,1.4-0.3,1.8,0.3c0.4,0.6,0.3,1.4-0.3,1.8C35.3,42.8,32.8,43.5,30.3,43.5z"/>
		<path class="st0" d="M15.7,67.1H6.4c-0.7,0-1.3-0.6-1.3-1.3v-0.4C5.1,55.2,13.4,47,23.6,47h13.6c0.7,0,1.4,0,2.1,0.1
			c0.7,0.1,1.2,0.7,1.1,1.4c-0.1,0.7-0.7,1.2-1.4,1.1c-0.6-0.1-1.2-0.1-1.8-0.1H23.6c-8.5,0-15.5,6.7-15.9,15.1h8
			c0.7,0,1.3,0.6,1.3,1.3S16.4,67.1,15.7,67.1z"/>
	</g>
	<g>
		<path class="st0" d="M54.8,43.5c-2.6,0-5.2-0.8-7.3-2.4c-0.6-0.4-0.7-1.2-0.3-1.8s1.2-0.7,1.8-0.3c1.7,1.2,3.7,1.9,5.8,1.9
			c5.4,0,9.8-4.4,9.8-9.8s-4.4-9.8-9.8-9.8c-1.1,0-2.2,0.2-3.2,0.5c-0.7,0.2-1.4-0.1-1.6-0.8c-0.2-0.7,0.1-1.4,0.8-1.6
			c1.3-0.4,2.6-0.7,4-0.7c6.8,0,12.4,5.5,12.4,12.3S61.6,43.5,54.8,43.5z"/>
		<path class="st0" d="M78.9,67.1H69c-0.7,0-1.3-0.6-1.3-1.3s0.6-1.3,1.3-1.3h8.5c-0.4-8.4-7.4-15.1-15.9-15.1H48.1
			c-0.6,0-1.2,0-1.8,0.1c-0.7,0.1-1.3-0.4-1.4-1.1c-0.1-0.7,0.4-1.3,1.1-1.4c0.7-0.1,1.4-0.1,2.1-0.1h13.6
			c10.2,0,18.5,8.3,18.5,18.5v0.4C80.1,66.5,79.6,67.1,78.9,67.1z"/>
	</g>
	<g>
		<path class="st1" d="M42.3,42.9c-7.5,0-13.6-6.1-13.6-13.6s6.1-13.6,13.6-13.6s13.6,6.1,13.6,13.6S49.8,42.9,42.3,42.9z
			 M42.3,18.2c-6.1,0-11.1,5-11.1,11.1s5,11.1,11.1,11.1s11.1-5,11.1-11.1S48.4,18.2,42.3,18.2z"/>
		<path class="st1" d="M69,69.3H15.7c-0.7,0-1.3-0.6-1.3-1.3v-2.5c0-10.2,8.3-18.5,18.5-18.5h18.9c10.2,0,18.5,8.3,18.5,18.5V68
			C70.3,68.7,69.7,69.3,69,69.3z M17,66.8h50.8v-1.2c0-8.8-7.1-15.9-15.9-15.9H32.9c-8.8,0-15.9,7.1-15.9,15.9
			C17,65.5,17,66.8,17,66.8z"/>
	</g>
</g>
</svg>
