<?xml version="1.0" encoding="utf-8"?>
<!-- Generator: Adobe Illustrator 26.3.1, SVG Export Plug-In . SVG Version: 6.00 Build 0)  -->
<svg version="1.1" id="Camada_1" xmlns="http://www.w3.org/2000/svg" xmlns:xlink="http://www.w3.org/1999/xlink" x="0px" y="0px"
	 viewBox="0 0 85.2 85" style="enable-background:new 0 0 85.2 85;" xml:space="preserve">
<style type="text/css">
	.st0{fill:#BA225C;}
	.st1{fill:#CCCCCC;}
</style>
<g>
	<path class="st0" d="M33.3,43.4c-0.4,0-0.7-0.1-1.1-0.4c-0.5-0.6-0.5-1.6,0-2.1c1.1-1.1,2.5-2.9,3.3-5.3c1.7-5.6-1.5-10.3-1.9-10.8
		c-3.2-4.5-8.2-5.1-9.1-5.2c-0.8-0.1-1.4-0.8-1.4-1.6c0.1-0.8,0.8-1.4,1.6-1.4c1.7,0.1,7.4,1.1,11.3,6.5c0.4,0.6,4.4,6.4,2.3,13.4
		c-0.7,2.4-2.1,4.8-4.1,6.7C34,43.2,33.6,43.4,33.3,43.4z"/>
	<path class="st1" d="M18.4,85c-4.2,0-7.8-3.5-7.8-7.8v-3.8c0-4.2,3.5-7.8,7.8-7.8c1.8,0,3.5,0.6,4.8,1.7V18c0-0.8,0.6-1.5,1.5-1.5
		c0.8,0,1.5,0.6,1.5,1.5v59.3C26.1,81.5,22.6,85,18.4,85z M18.4,68.6c-2.7,0-4.8,2.1-4.8,4.8v3.8c0,2.7,2.1,4.8,4.8,4.8
		s4.8-2.1,4.8-4.8v-3.8C23.2,70.8,21,68.6,18.4,68.6z"/>
	<path class="st0" d="M68.9,26.9c-0.4,0-0.7-0.1-1.1-0.4c-0.5-0.6-0.5-1.6,0-2.1c1.1-1.1,2.5-2.9,3.3-5.3c1.7-5.6-1.5-10.3-1.9-10.8
		c-3.2-4.5-8.2-5.1-9.1-5.2c-0.8-0.1-1.4-0.8-1.4-1.6C59,0.5,59.6-0.1,60.5,0c1.7,0.1,7.4,1.1,11.3,6.5c0.4,0.6,4.4,6.4,2.3,13.4
		c-0.7,2.4-2.1,4.8-4.1,6.7C69.7,26.8,69.3,26.9,68.9,26.9z"/>
	<path class="st1" d="M54.1,68.5c-4.2,0-7.8-3.5-7.8-7.8V57c0-4.2,3.5-7.8,7.8-7.8c1.8,0,3.5,0.6,4.8,1.7V1.5c0-0.8,0.6-1.5,1.5-1.5
		s1.5,0.6,1.5,1.5v59.3C61.8,65,58.3,68.5,54.1,68.5z M54.1,52.2c-2.7,0-4.8,2.1-4.8,4.8v3.8c0,2.7,2.1,4.8,4.8,4.8
		c2.7,0,4.8-2.1,4.8-4.8V57C58.9,54.3,56.7,52.2,54.1,52.2z"/>
</g>
</svg>
