<?xml version="1.0" encoding="utf-8"?>
<!-- Generator: Adobe Illustrator 26.3.1, SVG Export Plug-In . SVG Version: 6.00 Build 0)  -->
<svg version="1.1" id="Camada_1" xmlns="http://www.w3.org/2000/svg" xmlns:xlink="http://www.w3.org/1999/xlink" x="0px" y="0px"
	 viewBox="0 0 85.2 85" style="enable-background:new 0 0 85.2 85;" xml:space="preserve">
<style type="text/css">
	.st0{clip-path:url(#SVGID_00000063619486006776790950000000673223226501749676_);}
	.st1{fill:#BA225C;}
	.st2{fill:#CCCCCC;}
</style>
<g>
	<g>
		<g>
			<defs>
				<circle id="SVGID_1_" cx="42.6" cy="42.2" r="36.1"/>
			</defs>
			<clipPath id="SVGID_00000112623580002297373060000015725828474049933716_">
				<use xlink:href="#SVGID_1_"  style="overflow:visible;"/>
			</clipPath>
			<g style="clip-path:url(#SVGID_00000112623580002297373060000015725828474049933716_);">
				<path class="st1" d="M54.4,86.6c-0.1,0-0.2,0-0.3,0c-2.3-0.5-3.7-2.1-4.3-4.4c0-0.1,0-0.2,0-0.3c0-0.1-0.2-8.9-2.2-12.8
					c-0.1-0.3-0.8-1.4-3.7-4.1c-1.5-1.4-2.2-3.5-2-5.5l0.3-2.7c0-0.3,0.2-0.6,0.4-0.8l6.8-6.2c0.5-0.5,1.2-0.5,1.7-0.1
					c0.1,0,6.8,5.3,15.3,8.5c0.7,0.2,1,0.9,0.8,1.6l-2,7.4c0,0.2-0.1,0.3-0.2,0.4l-9.1,13c0,1.1-0.2,3.9-0.2,4.8
					c0,0.4-0.2,0.7-0.6,1C55,86.5,54.7,86.6,54.4,86.6z M52.5,81.6c0.2,0.6,0.4,1.1,0.7,1.4c0.1-1.4,0.1-3,0.1-3
					c0-0.2,0.1-0.5,0.2-0.7l9.2-13.1l1.6-6c-6.5-2.7-11.8-6.3-13.9-7.7l-5.6,5.1l-0.2,2.2c-0.1,1.2,0.3,2.4,1.2,3.2
					c3.5,3.3,4.1,4.5,4.3,4.9C52.1,72.1,52.5,80.4,52.5,81.6z"/>
				<path class="st1" d="M39.7,50.5c-0.2,0-0.5,0-0.7-0.2L27.4,44c-0.4-0.2-0.6-0.5-0.7-0.9L24,27.6c-0.1-0.4,0.1-0.9,0.4-1.2
					c0,0,4.7-5,2.7-7.6c-1.4-1.8-1.6-1.8-2.8-1.2c-0.2,0.1-0.4,0.1-0.6,0.1l-6.4-0.1c-0.6,0-1.2-0.4-1.3-1l-1.6-6.4
					c-0.1-0.5,0-0.9,0.4-1.3l4-4c0.2-0.2,0.6-0.4,0.9-0.4l35.1-0.1l0,0c0.5,0,1,0.3,1.2,0.8l2.3,4.8c0.3,0.6,0.1,1.4-0.5,1.7
					L51.4,16l2.6,1.9l5.6-0.5c0.5,0,0.9,0.2,1.2,0.5c2.3,3.1,2.4,3.9,2.4,4.2c0.3,2.3-1.1,6.3-1.2,6.7c-0.2,0.5-0.7,0.9-1.2,0.9
					l-9.3,0.4l-2.8,5.5c-0.2,0.4-0.5,0.6-0.9,0.7c-0.4,0.1-0.8,0-1.1-0.2l-5.6-4.2c-0.9,0.2-2.5,0.8-3.2,1.8
					c-0.2,0.3-0.3,0.7-0.4,1.1l4.1,3c0.2,0.1,0.3,0.3,0.4,0.5l3.2,6.6c0.3,0.5,0.1,1.2-0.3,1.6l-4.4,3.8
					C40.3,50.4,40,50.5,39.7,50.5z M29.3,42l10.2,5.6l2.9-2.5l-2.6-5.3l-4.3-3.1c-0.3-0.2-0.5-0.5-0.5-0.8c-0.2-1.3,0-2.6,0.8-3.7
					c1.6-2.3,5.1-2.9,5.5-3c0.4,0,0.7,0,1,0.2l4.8,3.6l2.4-4.7c0.2-0.4,0.7-0.7,1.2-0.7l9.1-0.3c0.5-1.4,0.9-3.4,0.8-4.5
					c-0.1-0.3-0.8-1.4-1.5-2.4l-5.4,0.5c-0.3,0-0.7-0.1-0.9-0.3L48.2,17c-0.4-0.3-0.6-0.7-0.5-1.1c0-0.5,0.2-0.9,0.6-1.1l7.2-4.6
					l-1.4-2.9L20.4,7.2l-3.1,3l1.2,4.6l5,0.1c2.9-1.2,4.4,0.3,5.8,2.2c2.9,3.8-1,8.9-2.4,10.6L29.3,42z"/>
				<path class="st1" d="M98.1,69.7c-2.4,0-6.9-4.5-8-8.9c-0.1-0.2,0-0.5,0-0.7c1.4-4.2,0.8-11.4,0.4-14l-4.9,0.5
					c-0.5,0-0.9-0.1-1.2-0.5c-0.5-0.6-1.1-1.3-1.8-1.9c-2.2-2.3-4.4-4.7-4.2-7.4c0.1-1.5,0.9-2.9,2.5-4.1c0.1,0,0.1-0.1,0.2-0.1
					c2.1-1.1,9.1-4.8,11.5-4.6c1.2,0.1,3,1.1,5.6,3c0.9,0.7,2.5,0.4,3.3,0.1l2.1-5l-9.9-3.6l-7.2-0.3c-0.6,0-1.1-0.4-1.2-1
					c-0.2-0.6,0.1-1.2,0.5-1.5c0.2-0.1,4.9-3.3,6-4c0,0,0.1,0,0.1-0.1l3.8-1.9l-6.3-3.5c-0.4-0.2-0.6-0.6-0.7-1
					c0-0.4,0.1-0.9,0.4-1.2c0.5-0.4,4.8-4.3,6.6-5.3c0.2-0.1,0.5-0.2,0.7-0.2l9.4,0.6c0.5,0,1,0.4,1.2,0.9l2.1,6l7-1.9
					c1.1-1.9,3.1-4.4,5-4.2c10.3,1.2,17.2,1,22.8,0.8c7.1-0.2,11.8-0.4,17.4,2.8c1.4,0.8,0.5,2.5,0.1,3.3c-0.6,1.1-1.5,2.6-2.4,3.9
					c-1,1.4-2,2.6-3.1,2.4l-7.5,0.4c-0.2,0.1-1.5,1-3.3,7.7c-0.9,3.2-1.5,6.2-1.6,7.2c0.2,0.5,0.4,1.4,0.7,2.5
					c0.5,2.5,0.4,3.8-0.4,4.6c-0.9,0.9-2.6,1.8-2.8,1.9c-0.5,0.3-1.2,0.2-1.6-0.3c-2.8-3-6.4-6.5-7.4-7.3c-2,0.4-3.2,4.4-3.6,6.4
					c-0.1,0.7-0.7,1.2-1.5,1.1l-2.9-0.3c-0.5,0-1-0.4-1.2-0.9c-1.6-4.6-5.8-8-8.8-10.3l-1.4,5.1c0,0.1-0.1,0.2-0.1,0.3l-3.6,6.1
					l4.2,0.6c0.4,0.1,0.8,0.3,1,0.7c0.2,0.4,0.2,0.8,0.1,1.2c-0.7,1.9-3.9,8.3-7,13.8c-1.8,3.3-3.4,5.9-4.8,7.8
					C100.2,69,99.1,69.7,98.1,69.7z M97.9,67L97.9,67L97.9,67z M92.8,60.5c1,3.3,4.1,6.1,5.1,6.5c0.5-0.3,2.3-2.1,7.3-11
					c2.4-4.4,4.6-8.8,5.8-11.2l-4.4-0.7c-0.5-0.1-0.8-0.4-1-0.8c-0.2-0.4-0.2-0.9,0.1-1.3l4.6-7.7l1.9-6.9c0.1-0.5,0.5-0.8,0.9-0.9
					c0.4-0.1,0.9,0,1.3,0.2c0.4,0.3,0.8,0.7,1.3,1.1c2.9,2.2,7.5,5.8,9.6,10.9l0.9,0.1c0.6-2.4,2.3-7.4,6.1-7.4c0.6,0,1.6,0,8.5,7.4
					c0.4-0.2,0.8-0.5,1.1-0.8c0.1-0.7-0.3-2.9-0.9-4.8c-0.1-0.2-0.1-0.5,0-0.7c0-0.2,0.7-4.2,1.9-8.3c2.2-8,4.1-9.2,5.6-9.3l7.5-0.4
					c0.8-0.7,2.7-3.5,3.4-5c-4.6-2.3-8.6-2.2-15.2-2c-5.7,0.2-12.7,0.4-23.1-0.8c-0.5,0.2-1.8,1.8-2.7,3.3c-0.2,0.3-0.5,0.5-0.8,0.6
					l-8.8,2.4c-0.7,0.2-1.4-0.2-1.6-0.9l-2.2-6.4l-8.1-0.6c-1.1,0.7-2.9,2.3-4.3,3.5l6.9,3.8c0.5,0.2,0.7,0.7,0.7,1.2
					c0,0.5-0.3,1-0.8,1.2l-6.1,3c-0.5,0.3-1.4,0.9-2.4,1.6l3.3,0.1c0.1,0,0.3,0,0.4,0.1l11.5,4.1c0.4,0.1,0.6,0.4,0.8,0.7
					c0.2,0.3,0.2,0.7,0,1.1l-2.9,6.8c-0.1,0.3-0.4,0.6-0.7,0.7c-0.2,0.1-3.9,1.7-6.5-0.3c-2.9-2.2-3.9-2.5-4.2-2.5
					c-1.1-0.1-5.9,2.1-9.8,4.2c-0.9,0.7-1.3,1.4-1.4,2.1c-0.1,1.6,1.7,3.5,3.5,5.4c0.5,0.5,0.9,1,1.4,1.5l5.4-0.6
					c0.4,0,0.9,0.1,1.2,0.5c0.2,0.2,0.5,0.5,0.7,2.6c0.2,1.3,0.3,2.8,0.4,4.3C93.8,53.4,93.8,57.4,92.8,60.5z M141.9,37.9
					L141.9,37.9L141.9,37.9z M121.1,6.7L121.1,6.7z"/>
				<path class="st1" d="M68.8,10.8c-0.3,0-0.6-0.1-0.9-0.2c-1-0.4-1.1-1.5-1.2-2.7c-0.2-1.5-0.4-3.5-1.8-4.9
					c-2.1-1.9-7-3.1-8.8-3.4c-0.4-0.1-0.7-0.3-1-0.7S54.8-1.7,55-2.1c0.8-2,3.4-4.7,17.7-4.6c7.5,0,14.8,0.9,14.9,0.9
					c0.6,0.1,1.1,0.5,1.2,1.1c0.1,0.6-0.2,1.2-0.8,1.4l-13.2,6c-0.8,2.1-2.9,7-5.1,7.9C69.4,10.7,69.1,10.8,68.8,10.8z M59.1-2.4
					c2.3,0.6,5.6,1.7,7.6,3.5c2.1,2,2.5,4.7,2.7,6.4c0.9-1.2,2.2-3.7,3.1-6.3c0.1-0.3,0.4-0.6,0.7-0.8l9-4.1c-2.7-0.2-6-0.4-9.5-0.4
					C64.7-4.1,60.9-3.2,59.1-2.4z"/>
				<path class="st1" d="M164.3,87.5c-2.2,0-4.4-1.1-5.6-3l-1.9-2.7l-11.5,2.7c-0.4,0.1-0.9,0-1.2-0.3c-0.3-0.3-0.5-0.7-0.5-1.1
					l0.3-6c0.2-3.8,3.9-6.8,7.4-7.7l9.4-7.2c0.6-0.4,1.4-0.4,1.8,0.2l3.9,4.2l3.2-4.4c0.3-0.5,0.9-0.7,1.4-0.5
					c0.5,0.2,0.9,0.6,1,1.2l0.6,6.5l2.6,4.3c0.9,1.5,0.8,3.3-0.2,4.7l-6.2,8.5c-0.2,0.3-0.6,0.5-1,0.6l-3,0.2
					C164.6,87.5,164.5,87.5,164.3,87.5z M157.4,78.9c0.4,0,0.9,0.2,1.1,0.6l2.4,3.5c0.8,1.2,2.3,1.9,3.7,1.8l2.3-0.2l5.8-7.9
					c0.4-0.5,0.4-1.2,0.1-1.7l-2.7-4.6c-0.1-0.2-0.2-0.4-0.2-0.6l-0.3-3.2l-2,2.8c-0.2,0.3-0.6,0.5-1,0.6c-0.4,0-0.8-0.1-1.1-0.4
					l-4.2-4.5l-8.6,6.7c-0.2,0.1-0.4,0.2-0.6,0.2c-2.6,0.5-5.4,2.8-5.6,5.3l-0.2,4.2l10.7-2.5C157.2,78.9,157.3,78.9,157.4,78.9z"/>
				<path class="st1" d="M151.3,59.8c-0.1,0-0.3,0-0.4-0.1l-12.7-3.9c-0.3-0.1-0.5-0.2-0.7-0.5l-6.1-8.4c-0.3-0.5-0.3-1-0.1-1.5
					l1.2-1.9c0.2-0.4,0.6-0.6,1-0.7c0.4,0,0.9,0.1,1.1,0.5l7.2,8l14.2,5.5c0.6,0.2,0.9,0.8,0.9,1.5c-0.1,0.6-0.6,1.1-1.2,1.2
					L151.3,59.8C151.3,59.8,151.3,59.8,151.3,59.8z M139.4,53.4l0.8,0.2c-0.1,0-0.2-0.1-0.2-0.2l-3-3.3L139.4,53.4z"/>
			</g>
		</g>
	</g>
	<path class="st2" d="M42.6,80C21.9,80,5.1,63.2,5.1,42.5S21.9,5,42.6,5s37.5,16.8,37.5,37.5S63.3,80,42.6,80z M42.6,7.7
		C23.4,7.7,7.8,23.3,7.8,42.5s15.6,34.8,34.8,34.8s34.8-15.6,34.8-34.8S61.8,7.7,42.6,7.7z"/>
</g>
</svg>
