<?xml version="1.0" encoding="utf-8"?>
<!-- Generator: Adobe Illustrator 26.3.1, SVG Export Plug-In . SVG Version: 6.00 Build 0)  -->
<svg version="1.1" id="Camada_1" xmlns="http://www.w3.org/2000/svg" xmlns:xlink="http://www.w3.org/1999/xlink" x="0px" y="0px"
	 viewBox="0 0 85.2 85" style="enable-background:new 0 0 85.2 85;" xml:space="preserve">
<style type="text/css">
	.st0{fill:#BA225C;}
	.st1{fill:#08A385;}
	.st2{fill:#CCCCCC;}
</style>
<g>
	<path class="st0" d="M65.7,80c-2.9,0-5.3-2.3-5.4-5.2c0-0.1,0-0.1,0-0.2v-9.3c0-0.2-0.1-0.5-0.3-0.6c-0.2-0.1-0.4-0.1-0.6,0
		C59.1,64.8,59,65,59,65.2v3.8c0,3-2.4,5.4-5.4,5.4s-5.4-2.4-5.4-5.4V53c0-0.7,0.6-1.3,1.3-1.3s1.3,0.6,1.3,1.3v16.1
		c0,1.6,1.3,2.9,2.9,2.9c1.6,0,2.9-1.3,2.9-2.9v-3.8c0-1.2,0.7-2.3,1.7-2.8c0.9-0.5,2-0.5,2.9,0c1,0.5,1.7,1.6,1.7,2.8v9.3
		c0,0,0,0.1,0,0.1c0.1,1.6,1.3,2.8,2.9,2.8s2.8-1.2,2.9-2.8c0,0,0-0.1,0-0.1V41c0-0.7,0.6-1.3,1.3-1.3s1.3,0.6,1.3,1.3v33.6
		c0,0.1,0,0.1,0,0.2C71,77.7,68.6,80,65.7,80z"/>
	<path class="st1" d="M49.6,31.3L49.6,31.3c-0.7,0-1.3-0.6-1.3-1.3c0-0.7,0.6-1.3,1.3-1.3s1.3,0.6,1.3,1.3
		C50.9,30.8,50.3,31.3,49.6,31.3z"/>
	<path class="st0" d="M46.1,48.7h-7c-0.5,0-0.9-0.2-1.1-0.6l-3.5-6c-0.2-0.4-0.2-0.9,0-1.3l3.5-6c0.2-0.4,0.6-0.6,1.1-0.6h7
		c0.5,0,0.9,0.2,1.1,0.6l3.5,6c0.2,0.4,0.2,0.9,0,1.3l-3.5,6C47,48.4,46.6,48.7,46.1,48.7z M39.9,46.1h5.5l2.8-4.8l-2.8-4.8h-5.5
		l-2.8,4.8L39.9,46.1z"/>
	<path class="st0" d="M25.9,37h-7c-0.5,0-0.9-0.2-1.1-0.6l-3.5-6c-0.2-0.4-0.2-0.9,0-1.3l3.5-6c0.2-0.4,0.6-0.6,1.1-0.6h7
		c0.5,0,0.9,0.2,1.1,0.6l3.5,6c0.2,0.4,0.2,0.9,0,1.3l-3.5,6C26.7,36.7,26.3,37,25.9,37z M19.6,34.4h5.5l2.8-4.8l-2.8-4.8h-5.5
		l-2.8,4.8L19.6,34.4z"/>
	<path class="st2" d="M77.5,29l-6.7-11.7c-0.2-0.4-0.6-0.6-1.1-0.6H56.8L50.5,5.6C50.2,5.3,49.8,5,49.4,5H35.9
		c-0.5,0-0.9,0.2-1.1,0.6l-6.4,11.1H15.6c-0.5,0-0.9,0.2-1.1,0.6L7.8,29c-0.2,0.4-0.2,0.9,0,1.3l6.4,11.1L7.8,52.4
		c-0.2,0.4-0.2,0.9,0,1.3l6.7,11.7c0.2,0.4,0.6,0.6,1.1,0.6h13.5c0.5,0,0.9-0.2,1.1-0.6l6.4-11.1h12.8c0.5,0,0.9-0.2,1.1-0.6
		l6.4-11.1h12.8c0.5,0,0.9-0.2,1.1-0.6l6.7-11.7C77.7,29.9,77.7,29.4,77.5,29z M36.6,7.5h12l6,10.4l-6,10.4h-12l-6-10.4L36.6,7.5z
		 M16.4,19.2h12l6,10.4l-6,10.4h-12l-6-10.4L16.4,19.2z M28.4,63.5h-12l-6-10.4l6-10.4h12l6,10.4L28.4,63.5z M48.6,51.8h-12l-6-10.4
		l6-10.4h12l6,10.4L48.6,51.8z M68.9,40.1h-12l-6-10.4l6-10.4h12l6,10.4L68.9,40.1z"/>
</g>
</svg>
