<?xml version="1.0" encoding="utf-8"?>
<!-- Generator: Adobe Illustrator 26.3.1, SVG Export Plug-In . SVG Version: 6.00 Build 0)  -->
<svg version="1.1" id="Camada_1" xmlns="http://www.w3.org/2000/svg" xmlns:xlink="http://www.w3.org/1999/xlink" x="0px" y="0px"
	 viewBox="0 0 15 15" style="enable-background:new 0 0 15 15;" xml:space="preserve">
<style type="text/css">
	.st0{fill:#BA225C;}
	.st1{fill:#CCCCCC;}
</style>
<g>
	<path class="st0" d="M11.6,6.4C11.6,6.4,11.5,6.4,11.6,6.4L8,4.7C7.7,4.6,7.3,4.6,7,4.7L3.5,6.3c-0.1,0.1-0.3,0-0.3-0.1
		C3.1,6.1,3.2,6,3.3,5.9l3.5-1.6c0.4-0.2,0.9-0.2,1.3,0l3.5,1.6c0.1,0.1,0.2,0.2,0.1,0.3C11.8,6.3,11.7,6.4,11.6,6.4z"/>
	<path class="st1" d="M12,10.6c-0.1-0.1-0.4-0.6-0.3-2.3c0-1,0.1-1.9,0.1-1.9c0,0,0,0,0,0c0-1-0.4-2-1-2.8c-0.6-0.7-1.5-1.2-2.4-1.4
		l-0.6-2C7.7,0.1,7.6,0,7.5,0C7.4,0,7.3,0.1,7.3,0.2l-0.6,2C5.7,2.3,4.8,2.8,4.2,3.6c-0.7,0.8-1,1.8-1,2.8c0,0,0,0,0,0
		c0,0,0.1,0.9,0.1,1.9c0.1,1.7-0.2,2.2-0.3,2.3c-0.1,0.1-0.1,0.2,0,0.3l2.8,4C5.8,15,5.9,15,6,15s0.2-0.1,0.2-0.2L6,9.7
		C6,9.6,6,9.5,5.9,9.5L4.9,9c0,0-0.1-0.1-0.1-0.1V8.1c0-0.1,0-0.1,0-0.1S4.9,8,5,8l1.6,0.4c0.1,0,0.1,0.1,0.1,0.2l-0.1,2.6
		c0,0.1,0,0.1,0.1,0.2l0.6,0.6c0.1,0.1,0.2,0.1,0.3,0l0.6-0.6c0.1,0,0.1-0.1,0.1-0.2L8.3,8.5c0-0.1,0-0.1,0.1-0.2L10,8
		c0.1,0,0.1,0,0.1,0c0,0,0,0,0,0.1v0.8c0,0,0,0.1-0.1,0.1l-1,0.4l0,0C9,9.5,9,9.6,9,9.7l-0.1,5.1C8.8,14.9,8.9,15,9,15
		c0,0,0,0,0.1,0c0.1,0,0.1,0,0.2-0.1l2.8-4C12.1,10.8,12.1,10.7,12,10.6z M9.3,14c0-1.2,0.1-3.5,0.1-4.1l0.9-0.4
		c0.2-0.1,0.4-0.3,0.4-0.5V8.1c0-0.2-0.1-0.3-0.2-0.5c-0.1-0.1-0.3-0.2-0.5-0.1L8.3,7.9C8,8,7.8,8.3,7.8,8.6L7.9,11l-0.4,0.4L7.1,11
		l0.1-2.5C7.2,8.3,7,8,6.7,7.9L5.1,7.5c-0.2,0-0.4,0-0.5,0.1C4.4,7.8,4.4,7.9,4.4,8.1v0.8c0,0.2,0.1,0.4,0.4,0.5l0.9,0.4L5.7,14
		l-2.2-3.2c0.3-0.4,0.4-1.2,0.3-2.5c0-1-0.1-1.8-0.1-2c0-1.9,1.4-3.5,3.2-3.8c0,0,0,0,0,0c0,0,0,0,0,0c0,0,0,0,0,0c0,0,0,0,0,0
		c0,0,0,0,0,0c0,0,0,0,0,0c0,0,0,0,0.1,0c0,0,0,0,0,0c0,0,0,0,0,0c0,0,0,0,0,0c0,0,0,0,0,0c0,0,0,0,0,0c0,0,0,0,0,0c0,0,0,0,0,0
		c0,0,0,0,0,0c0,0,0,0,0,0c0,0,0,0,0,0c0,0,0,0,0,0c0,0,0,0,0,0c0,0,0,0,0,0L7.5,1L8,2.4c0,0,0,0,0,0c0,0,0,0,0,0c0,0,0,0,0,0
		c0,0,0,0,0,0c0,0,0,0,0,0c0,0,0,0,0,0c0,0,0,0,0,0c0,0,0,0,0,0c0,0,0,0,0,0c0,0,0,0,0.1,0c0,0,0,0,0,0c0,0,0,0,0,0c0,0,0,0,0,0h0
		c1.9,0.3,3.2,1.9,3.2,3.8c0,0.1-0.1,1-0.1,1.9c0,1.2,0.1,2.1,0.3,2.5L9.3,14z"/>
</g>
</svg>
