<?xml version="1.0" encoding="utf-8"?>
<!-- Generator: Adobe Illustrator 26.3.1, SVG Export Plug-In . SVG Version: 6.00 Build 0)  -->
<svg version="1.1" id="Camada_1" xmlns="http://www.w3.org/2000/svg" xmlns:xlink="http://www.w3.org/1999/xlink" x="0px" y="0px"
	 viewBox="0 0 85.2 85" style="enable-background:new 0 0 85.2 85;" xml:space="preserve">
<style type="text/css">
	.st0{fill:#BA225C;}
	.st1{fill:#CCCCCC;}
</style>
<g>
	<path class="st0" d="M64.5,36.4c-0.2,0-0.4,0-0.5-0.1l-18.8-8.7c-1.6-0.7-3.4-0.7-5,0l-18.8,8.7c-0.6,0.3-1.4,0-1.7-0.6
		c-0.3-0.6,0-1.4,0.6-1.7L39,25.4c2.3-1,4.9-1,7.1,0L65,34c0.6,0.3,0.9,1,0.6,1.7C65.4,36.2,64.9,36.4,64.5,36.4z"/>
	<path class="st1" d="M66.6,59.2c-0.6-0.6-1.9-3-1.7-12.2c0.2-5.3,0.8-10,0.8-10.2c0-0.1,0-0.1,0-0.2c0-5.5-2-10.9-5.6-15
		c-3.4-3.9-8-6.6-13-7.6L43.8,3.4c-0.2-0.5-0.6-0.9-1.2-0.9s-1,0.4-1.2,0.9L38.1,14c-5,1-9.6,3.7-13,7.6c-3.6,4.2-5.6,9.5-5.6,15
		c0,0.1,0,0.1,0,0.2c0,0,0.6,4.9,0.8,10.2c0.3,9.2-1.1,11.6-1.7,12.2c-0.4,0.4-0.5,1.1-0.1,1.6L33.3,82c0.3,0.5,0.9,0.6,1.4,0.5
		c0.5-0.2,0.9-0.7,0.9-1.2l-0.7-27c0-0.5-0.3-0.9-0.7-1.1l-5.3-2.3c-0.2-0.1-0.4-0.3-0.4-0.6v-4.4c0-0.3,0.2-0.4,0.2-0.5
		c0.1-0.1,0.3-0.2,0.5-0.1l8.6,2c0.4,0.1,0.7,0.5,0.7,0.8L38,61.8c0,0.4,0.1,0.7,0.4,1l3.4,3c0.5,0.4,1.2,0.4,1.6,0l3.4-3
		c0.3-0.2,0.4-0.6,0.4-1l-0.5-13.7c0-0.4,0.3-0.8,0.7-0.9l8.6-2c0.3-0.1,0.5,0.1,0.6,0.1c0.1,0.1,0.2,0.2,0.2,0.5v4.4
		c0,0.3-0.2,0.5-0.4,0.6l-5.3,2.3l0,0c-0.4,0.2-0.7,0.5-0.8,1.2l-0.7,27c0,0.5,0.3,1,0.9,1.2c0.1,0,0.3,0.1,0.4,0.1
		c0.4,0,0.8-0.2,1-0.5l14.8-21.2C67.1,60.3,67.1,59.6,66.6,59.2z M52.3,77.2c0.2-6.6,0.5-18.9,0.6-22.1l4.6-2
		c1.1-0.5,1.9-1.6,1.9-2.9v-4.4c0-1-0.4-1.9-1.2-2.5c-0.8-0.6-1.7-0.8-2.7-0.6l-8.6,2c-1.5,0.4-2.6,1.8-2.6,3.4l0.5,13.1l-2.2,1.9
		l-2.2-1.9l0.5-13.1c0-1.6-1-3-2.6-3.4l-8.6-2c-0.9-0.2-1.9,0-2.7,0.6c-0.8,0.6-1.2,1.5-1.2,2.5v4.4c0,1.3,0.7,2.4,1.9,2.9l4.6,2
		l0.6,22.1L21,60.1c1.4-2.2,1.9-6.5,1.7-13.2c-0.1-5.1-0.7-9.7-0.8-10.4c0-10.1,7.3-18.6,17.2-20.3c0,0,0,0,0,0c0,0,0,0,0.1,0
		c0,0,0,0,0.1,0c0,0,0,0,0,0c0,0,0.1,0,0.1,0c0,0,0,0,0,0c0.1,0,0.2-0.1,0.3-0.2c0,0,0,0,0,0c0,0,0,0,0.1-0.1c0,0,0,0,0,0
		c0,0,0,0,0,0c0,0,0,0,0.1-0.1c0,0,0,0,0,0c0,0,0,0,0-0.1c0,0,0,0,0,0c0,0,0,0,0-0.1c0,0,0,0,0-0.1c0,0,0,0,0,0c0,0,0,0,0-0.1
		c0,0,0,0,0,0l2.4-7.6l2.4,7.6c0,0,0,0,0,0c0,0.1,0,0.1,0.1,0.2c0,0,0,0,0,0c0,0,0.1,0.1,0.1,0.1c0,0,0,0,0,0c0,0,0.1,0.1,0.1,0.1
		c0,0,0,0,0,0c0,0,0.1,0.1,0.1,0.1c0,0,0,0,0,0c0.1,0.1,0.2,0.1,0.3,0.2c0,0,0,0,0,0c0.1,0,0.1,0,0.2,0c0,0,0,0,0,0h0
		c10,1.7,17.2,10.2,17.2,20.3c-0.1,0.7-0.6,5.3-0.8,10.4c-0.2,6.6,0.4,11,1.7,13.2L52.3,77.2z"/>
</g>
</svg>
