<?xml version="1.0" encoding="utf-8"?>
<!-- Generator: Adobe Illustrator 26.3.1, SVG Export Plug-In . SVG Version: 6.00 Build 0)  -->
<svg version="1.1" id="Camada_1" xmlns="http://www.w3.org/2000/svg" xmlns:xlink="http://www.w3.org/1999/xlink" x="0px" y="0px"
	 viewBox="0 0 85.2 85" style="enable-background:new 0 0 85.2 85;" xml:space="preserve">
<style type="text/css">
	.st0{fill:#CCCCCC;}
	.st1{fill:#BA225C;}
</style>
<g>
	<path class="st0" d="M68,64.1H52.7c-2.3,0-4.4-1.1-6.1-3c0,0,0,0,0,0c-1.1-1.3-2.5-2-3.9-2c-1.4,0-2.7,0.7-3.9,2
		c-1.7,1.9-3.9,3-6.1,3H17.4c-3.1,0-6-1.2-8.1-3.2c-0.1,0-0.1,0-0.2,0l-1.8,0c-2.6,0-4.7-2.1-4.7-4.7V28.8c0-2.6,2.1-4.7,4.7-4.7h2
		c2.1-1.9,5-3.1,8-3.1H68c3.1,0,5.9,1.2,8,3.1l1.9,0c2.6,0,4.7,2.1,4.7,4.7v27.4c0,2.6-2.1,4.7-4.7,4.7h-1.6c-0.1,0-0.1,0-0.2,0
		C73.9,62.9,71.1,64.1,68,64.1z M48.8,59.1C48.8,59.1,48.8,59.1,48.8,59.1c1.1,1.3,2.5,2,3.9,2h15.3c5,0,9.1-4.1,9.1-9.1v-4.4h-2.3
		c-2.8,0-5.1-2.3-5.1-5.1s2.3-5.1,5.1-5.1H77V33c0-5-4.1-9.1-9.1-9.1H17.4c-5,0-9.1,4.1-9.1,9.1v4.4h2.1c2.8,0,5.1,2.3,5.1,5.1
		s-2.3,5.1-5.1,5.1H8.4V52c0,5,4.1,9.1,9.1,9.1h15.3c1.4,0,2.8-0.7,3.9-2c1.7-1.9,3.9-3,6.1-3l0,0C44.9,56.1,47.1,57.2,48.8,59.1z
		 M5.6,54.6v1.6c0,0.8,0.5,1.4,1.2,1.6C6.3,56.9,5.9,55.8,5.6,54.6z M79.6,55.1c-0.3,0.9-0.6,1.8-1.1,2.7c0.6-0.3,1.1-0.9,1.1-1.6
		V55.1z M74.7,40.4c-1.2,0-2.1,1-2.1,2.1s1,2.1,2.1,2.1h2.1v-4.2H74.7z M8.4,44.6h2.1c1.2,0,2.1-1,2.1-2.1s-1-2.1-2.1-2.1H8.4V44.6z
		 M6.9,27.1c-0.7,0.2-1.3,0.9-1.3,1.7v1.7C5.9,29.2,6.3,28.1,6.9,27.1z M78.5,27.1c0.5,0.9,0.9,1.8,1.1,2.8v-1.2
		C79.6,28,79.1,27.4,78.5,27.1z"/>
	<path class="st1" d="M50.3,51.6c-0.5,0-1-0.2-1.3-0.7l-3.9-5.7c-0.4-0.6-0.4-1.3-0.1-1.9c0.3-0.6,0.9-1,1.6-1l1.1,0
		c1.7,0,3-1.4,3-3s-1.4-3-3-3h-2.3l-5.1,13.9c-0.3,0.8-1.1,1.3-1.9,1.3c0,0,0,0,0,0c-0.9,0-1.6-0.5-1.9-1.4l-5.4-14.9
		c-0.3-0.8,0.1-1.6,0.9-1.9c0.8-0.3,1.6,0.1,1.9,0.9l4.5,12.4l4.2-11.6c0.4-1.1,1.5-1.8,2.6-1.8h2.4c3.3,0,6,2.7,6,6
		c0,3-2.2,5.5-5,5.9l2.7,4c0.5,0.7,0.3,1.6-0.4,2.1C50.8,51.6,50.5,51.6,50.3,51.6z M46.7,45.4L46.7,45.4L46.7,45.4
		C46.7,45.4,46.7,45.4,46.7,45.4z"/>
</g>
</svg>
