<?xml version="1.0" encoding="utf-8"?>
<!-- Generator: Adobe Illustrator 26.3.1, SVG Export Plug-In . SVG Version: 6.00 Build 0)  -->
<svg version="1.1" id="Camada_1" xmlns="http://www.w3.org/2000/svg" xmlns:xlink="http://www.w3.org/1999/xlink" x="0px" y="0px"
	 viewBox="0 0 85.2 85" style="enable-background:new 0 0 85.2 85;" xml:space="preserve">
<style type="text/css">
	.st0{fill:#BA225C;}
	.st1{fill:#CCCCCC;}
</style>
<g>
	<path class="st0" d="M42.5,42.9c-7.4,0-13.4-6-13.4-13.4s6-13.4,13.4-13.4s13.4,6,13.4,13.4S49.9,42.9,42.5,42.9z M42.5,18.6
		c-6,0-10.9,4.9-10.9,10.9s4.9,10.9,10.9,10.9s10.9-4.9,10.9-10.9S48.5,18.6,42.5,18.6z"/>
	<g>
		<path class="st1" d="M68.9,68.9H16.4c-0.7,0-1.2-0.6-1.2-1.2v-2.5c0-10,8.2-18.2,18.2-18.2h18.6c10,0,18.2,8.2,18.2,18.2v2.5
			C70.1,68.3,69.6,68.9,68.9,68.9z M17.6,66.4h50v-1.2c0-8.7-7-15.7-15.7-15.7H33.3c-8.7,0-15.7,7-15.7,15.7V66.4z"/>
	</g>
</g>
</svg>
