<?xml version="1.0" encoding="utf-8"?>
<!-- Generator: Adobe Illustrator 26.3.1, SVG Export Plug-In . SVG Version: 6.00 Build 0)  -->
<svg version="1.1" id="Camada_1" xmlns="http://www.w3.org/2000/svg" xmlns:xlink="http://www.w3.org/1999/xlink" x="0px" y="0px"
	 viewBox="0 0 15 15" style="enable-background:new 0 0 15 15;" xml:space="preserve">
<style type="text/css">
	.st0{fill:#CCCCCC;}
	.st1{fill:#BA225C;}
</style>
<g>
	<path class="st0" d="M7.5,4.7c-0.1,0-0.2,0-0.2-0.1C7.1,4.3,6.2,3,6.2,2.4c0-0.7,0.6-1.3,1.3-1.3s1.3,0.6,1.3,1.3
		c0,0.6-0.9,1.9-1.1,2.1C7.7,4.6,7.6,4.7,7.5,4.7z M7.5,1.7C7.1,1.7,6.8,2,6.8,2.4c0,0.3,0.4,0.9,0.7,1.5c0.4-0.5,0.7-1.2,0.7-1.5
		C8.2,2,7.9,1.7,7.5,1.7z"/>
	<path class="st0" d="M9.4,15H5.6c-0.1,0-0.2,0-0.2-0.1c-0.1-0.1-0.1-0.1-0.1-0.2l1.2-7.9L2.4,7.2c-0.1,0-0.2,0-0.2-0.1
		C2.1,7.1,2.1,7,2.1,7V4.5c0-0.1,0-0.2,0.1-0.2c0.1-0.1,0.1-0.1,0.2-0.1L6.3,5C5.6,3.7,5.2,2.8,5.2,2.3C5.2,1,6.2,0,7.5,0
		s2.3,1,2.3,2.3c0,0.5-0.4,1.4-1.1,2.7l3.9-0.7c0.1,0,0.2,0,0.2,0.1c0.1,0.1,0.1,0.1,0.1,0.2V7c0,0.1,0,0.1-0.1,0.2
		c-0.1,0.1-0.1,0.1-0.2,0.1L8.5,6.8l1.1,7.9c0,0.1,0,0.2-0.1,0.2C9.5,15,9.4,15,9.4,15z M6,14.5h3.1L7.9,6.5c0-0.1,0-0.2,0.1-0.2
		C8,6.2,8.1,6.2,8.2,6.2l4.2,0.4V4.8L8.2,5.6c-0.1,0-0.2,0-0.3-0.1c-0.1-0.1-0.1-0.2,0-0.3c0.9-1.4,1.4-2.4,1.4-2.9
		c0-1-0.8-1.8-1.8-1.8S5.7,1.3,5.7,2.3c0,0.5,0.5,1.5,1.4,2.9c0.1,0.1,0.1,0.2,0,0.3C7,5.6,6.9,5.6,6.8,5.6L2.6,4.8v1.8l4.2-0.4
		c0.1,0,0.2,0,0.2,0.1c0.1,0.1,0.1,0.1,0.1,0.2L6,14.5z"/>
	<path class="st1" d="M7.5,13.8c-0.1,0-0.3-0.1-0.3-0.3V9.9c0-0.1,0.1-0.3,0.3-0.3c0.1,0,0.3,0.1,0.3,0.3v3.6
		C7.8,13.7,7.6,13.8,7.5,13.8z"/>
</g>
</svg>
