<?xml version="1.0" encoding="utf-8"?>
<!-- Generator: Adobe Illustrator 26.3.1, SVG Export Plug-In . SVG Version: 6.00 Build 0)  -->
<svg version="1.1" id="Camada_1" xmlns="http://www.w3.org/2000/svg" xmlns:xlink="http://www.w3.org/1999/xlink" x="0px" y="0px"
	 viewBox="0 0 85.2 85" style="enable-background:new 0 0 85.2 85;" xml:space="preserve">
<style type="text/css">
	.st0{fill:#CCCCCC;}
	.st1{fill:#BA225C;}
</style>
<g>
	<path class="st0" d="M42.6,27.4c-0.5,0-0.9-0.2-1.2-0.6c-0.9-1.3-5.6-8.1-5.6-11.3c0-3.7,3-6.8,6.8-6.8s6.8,3,6.8,6.8
		c0,3.2-4.7,10-5.6,11.3C43.5,27.2,43.1,27.4,42.6,27.4z M42.6,11.5c-2.2,0-3.9,1.8-3.9,3.9c0,1.4,2,5,3.9,7.9
		c1.9-2.9,3.9-6.5,3.9-7.9C46.5,13.3,44.8,11.5,42.6,11.5z"/>
	<path class="st0" d="M52.6,82.5H32.7c-0.4,0-0.8-0.2-1.1-0.5c-0.3-0.3-0.4-0.7-0.3-1.2l6.1-42.1L15.2,41c-0.4,0-0.8-0.1-1.1-0.4
		c-0.3-0.3-0.5-0.7-0.5-1.1v-13c0-0.4,0.2-0.8,0.5-1.1s0.8-0.4,1.2-0.3L36.3,29c-4-6.6-6-11.4-6-14.2c0-6.8,5.5-12.3,12.3-12.3
		S54.9,8,54.9,14.8c0,2.9-2,7.6-6,14.2l20.9-3.8c0.4-0.1,0.9,0,1.2,0.3c0.3,0.3,0.5,0.7,0.5,1.1v13c0,0.4-0.2,0.8-0.5,1.1
		c-0.3,0.3-0.7,0.4-1.1,0.4l-22.1-2.2L54,80.9c0.1,0.4-0.1,0.8-0.3,1.2C53.4,82.3,53,82.5,52.6,82.5z M34.4,79.6h16.5l-6.2-42.3
		c-0.1-0.4,0.1-0.9,0.4-1.2c0.3-0.3,0.7-0.5,1.2-0.4L68.7,38v-9.6l-22.4,4.1c-0.6,0.1-1.1-0.1-1.5-0.6c-0.3-0.5-0.3-1.1,0-1.6
		C49.4,23,52,17.4,52,14.8c0-5.2-4.2-9.4-9.4-9.4s-9.4,4.2-9.4,9.4c0,2.6,2.6,8.2,7.2,15.4c0.3,0.5,0.3,1.1,0,1.6
		c-0.3,0.5-0.9,0.7-1.5,0.6l-22.4-4.1V38L39,35.7c0.4,0,0.9,0.1,1.2,0.4c0.3,0.3,0.5,0.8,0.4,1.2L34.4,79.6z"/>
	<path class="st1" d="M42.6,76.1c-0.8,0-1.4-0.6-1.4-1.4V55.4c0-0.8,0.6-1.4,1.4-1.4s1.4,0.6,1.4,1.4v19.3
		C44.1,75.4,43.4,76.1,42.6,76.1z"/>
</g>
</svg>
