<?xml version="1.0" encoding="utf-8"?>
<!-- Generator: Adobe Illustrator 26.3.1, SVG Export Plug-In . SVG Version: 6.00 Build 0)  -->
<svg version="1.1" id="Camada_1" xmlns="http://www.w3.org/2000/svg" xmlns:xlink="http://www.w3.org/1999/xlink" x="0px" y="0px"
	 viewBox="0 0 15 15" style="enable-background:new 0 0 15 15;" xml:space="preserve">
<style type="text/css">
	.st0{fill:#CCCCCC;}
	.st1{fill:#BA225C;}
</style>
<g>
	<path class="st0" d="M12.2,11.5H9.4c-0.4,0-0.8-0.2-1.1-0.6c0,0,0,0,0,0c-0.2-0.2-0.5-0.4-0.7-0.4S7,10.7,6.8,11
		c-0.3,0.4-0.7,0.6-1.2,0.6H2.8c-0.6,0-1.1-0.2-1.5-0.6c0,0,0,0,0,0l-0.3,0C0.4,11,0,10.6,0,10.1V4.9C0,4.4,0.4,4,0.9,4h0.4
		c0.4-0.4,0.9-0.6,1.5-0.6h9.5c0.6,0,1.1,0.2,1.5,0.6l0.4,0C14.6,4,15,4.4,15,4.9v5.1c0,0.5-0.4,0.9-0.9,0.9h-0.3c0,0,0,0,0,0
		C13.4,11.3,12.8,11.5,12.2,11.5z M8.7,10.6C8.7,10.6,8.7,10.6,8.7,10.6C8.9,10.8,9.1,11,9.4,11h2.9c0.9,0,1.7-0.8,1.7-1.7V8.5h-0.4
		c-0.5,0-1-0.4-1-1s0.4-1,1-1h0.4V5.7c0-0.9-0.8-1.7-1.7-1.7H2.8C1.8,4,1.1,4.8,1.1,5.7v0.8h0.4c0.5,0,1,0.4,1,1s-0.4,1-1,1H1.1v0.8
		c0,0.9,0.8,1.7,1.7,1.7h2.9c0.3,0,0.5-0.1,0.7-0.4C6.7,10.2,7.1,10,7.5,10l0,0C7.9,10,8.3,10.2,8.7,10.6z M0.6,9.8v0.3
		c0,0.1,0.1,0.3,0.2,0.3C0.7,10.2,0.6,10,0.6,9.8z M14.4,9.9c0,0.2-0.1,0.3-0.2,0.5c0.1,0,0.2-0.2,0.2-0.3V9.9z M13.5,7.1
		c-0.2,0-0.4,0.2-0.4,0.4s0.2,0.4,0.4,0.4h0.4V7.1H13.5z M1.1,7.9h0.4c0.2,0,0.4-0.2,0.4-0.4S1.7,7.1,1.5,7.1H1.1V7.9z M0.8,4.6
		c-0.1,0-0.2,0.2-0.2,0.3v0.3C0.6,5,0.7,4.8,0.8,4.6z M14.2,4.6c0.1,0.2,0.2,0.3,0.2,0.5V4.9C14.4,4.8,14.3,4.7,14.2,4.6z"/>
	<path class="st1" d="M8.9,9.2c-0.1,0-0.2,0-0.2-0.1L8,8C7.9,7.9,7.9,7.8,8,7.7C8,7.5,8.1,7.5,8.3,7.5l0.2,0C8.8,7.5,9,7.2,9,6.9
		S8.8,6.3,8.5,6.3H8L7.1,9C7,9.1,6.9,9.2,6.7,9.2c0,0,0,0,0,0C6.6,9.2,6.4,9.1,6.4,9l-1-2.8C5.3,6,5.4,5.9,5.5,5.8
		c0.1-0.1,0.3,0,0.4,0.2l0.8,2.3l0.8-2.2C7.6,5.9,7.8,5.8,8,5.8h0.5c0.6,0,1.1,0.5,1.1,1.1c0,0.6-0.4,1-0.9,1.1l0.5,0.7
		c0.1,0.1,0.1,0.3-0.1,0.4C9,9.2,9,9.2,8.9,9.2z M8.3,8L8.3,8L8.3,8C8.3,8,8.3,8,8.3,8z"/>
</g>
</svg>
