<?xml version="1.0" encoding="utf-8"?>
<!-- Generator: Adobe Illustrator 26.3.1, SVG Export Plug-In . SVG Version: 6.00 Build 0)  -->
<svg version="1.1" id="Camada_1" xmlns="http://www.w3.org/2000/svg" xmlns:xlink="http://www.w3.org/1999/xlink" x="0px" y="0px"
	 viewBox="0 0 85.2 85" style="enable-background:new 0 0 85.2 85;" xml:space="preserve">
<style type="text/css">
	.st0{fill:#CCCCCC;}
	.st1{fill:#BA225C;}
</style>
<g>
	<path class="st0" d="M72.5,74.6H12.7c-0.8,0-1.5-0.7-1.5-1.5v-7.6c0-0.8,0.7-1.5,1.5-1.5h59.7c0.8,0,1.5,0.7,1.5,1.5v7.6
		C74,73.9,73.3,74.6,72.5,74.6z M14.2,71.6H71V67H14.2V71.6z"/>
	<path class="st1" d="M42.1,50.2c-0.4,0-0.8-0.1-1.1-0.4l-7.6-7.6c-0.6-0.6-0.6-1.5,0-2.1l7.6-7.6c0.6-0.6,1.5-0.6,2.1,0l7.6,7.6
		c0.6,0.6,0.6,1.5,0,2.1l-7.6,7.6C42.9,50.1,42.5,50.2,42.1,50.2z M36.7,41.2l5.5,5.5l5.5-5.5l-5.5-5.5L36.7,41.2z"/>
	<path class="st0" d="M72.9,60.1H12.3c-1,0-1.9-0.7-2.1-1.7L2.7,20.5c-0.2-0.9,0.2-1.8,1-2.2c0.8-0.5,1.7-0.4,2.4,0.2l17.3,13.8
		L41,11.2c0.4-0.5,1-0.8,1.6-0.8c0.6,0,1.2,0.3,1.6,0.8l17.6,21.1l17.3-13.8c0.8-0.6,1.8-0.6,2.6-0.1c0.7,0.5,1,1.3,0.8,2.1L75,58.4
		C74.8,59.4,73.9,60.1,72.9,60.1z M14.1,55.8h57.1l6.1-30.4L62.9,36.9c-0.9,0.7-2.2,0.6-3-0.3L42.6,15.9L25.3,36.6
		c-0.7,0.9-2.1,1-3,0.3L8,25.4L14.1,55.8z"/>
</g>
</svg>
